<svg id="svg" version="1.1" xmlns="http://www.w3.org/2000/svg" xmlns:xlink="http://www.w3.org/1999/xlink" width="400" height="400" viewBox="0, 0, 400,400"><g id="svgg"><path id="path0" d="M52.441 96.119 C 52.242 96.318,51.296 96.511,50.339 96.547 C 49.383 96.583,48.219 96.828,47.753 97.092 C 47.287 97.356,46.796 97.463,46.662 97.329 C 46.529 97.195,46.110 97.337,45.733 97.643 C 45.139 98.125,45.088 98.119,45.353 97.600 C 45.611 97.094,45.576 97.096,45.130 97.615 C 44.838 97.953,44.302 98.168,43.937 98.092 C 43.573 98.017,43.157 98.146,43.014 98.378 C 42.870 98.610,42.123 98.800,41.353 98.800 C 40.521 98.800,40.053 98.962,40.200 99.200 C 40.345 99.434,39.930 99.600,39.200 99.600 C 38.470 99.600,38.055 99.766,38.200 100.000 C 38.340 100.227,38.004 100.400,37.424 100.400 C 36.861 100.400,36.400 100.591,36.400 100.824 C 36.400 101.057,36.247 101.152,36.059 101.036 C 35.871 100.920,35.376 101.084,34.959 101.400 C 34.542 101.716,33.795 101.980,33.300 101.987 C 32.805 101.994,32.400 102.180,32.400 102.400 C 32.400 102.620,32.164 102.800,31.875 102.800 C 31.587 102.800,30.957 103.167,30.475 103.616 C 29.994 104.064,29.600 104.321,29.600 104.187 C 29.600 104.053,29.317 104.226,28.971 104.571 C 28.626 104.917,28.086 105.200,27.771 105.200 C 27.457 105.200,27.200 105.350,27.200 105.532 C 27.200 105.715,26.705 106.119,26.100 106.430 C 25.495 106.740,24.709 107.311,24.353 107.697 C 23.997 108.084,23.452 108.400,23.141 108.400 C 22.831 108.400,22.317 108.760,22.000 109.200 C 21.683 109.640,21.183 110.000,20.888 110.000 C 20.585 110.000,20.477 110.201,20.638 110.462 C 20.816 110.749,20.748 110.815,20.459 110.636 C 19.960 110.328,18.800 111.262,18.800 111.971 C 18.800 112.207,18.530 112.400,18.200 112.400 C 17.870 112.400,17.600 112.591,17.600 112.824 C 17.600 113.057,17.420 113.136,17.200 113.000 C 16.980 112.864,16.800 113.063,16.800 113.443 C 16.800 113.823,16.681 114.014,16.536 113.869 C 16.390 113.724,16.061 114.009,15.803 114.502 C 15.545 114.996,15.124 115.355,14.867 115.300 C 14.610 115.245,14.445 115.425,14.500 115.700 C 14.555 115.975,14.362 116.151,14.070 116.090 C 13.779 116.030,13.655 116.165,13.794 116.390 C 13.933 116.616,13.722 116.814,13.324 116.832 C 12.856 116.852,12.787 116.938,13.129 117.075 C 13.474 117.212,13.149 117.633,12.198 118.279 C 11.395 118.825,10.833 119.367,10.950 119.483 C 11.066 119.600,10.945 119.938,10.681 120.234 C 9.608 121.435,9.200 121.978,9.200 122.204 C 9.200 122.755,7.307 125.173,7.065 124.931 C 6.919 124.786,6.800 125.067,6.800 125.557 C 6.800 126.049,6.621 126.337,6.400 126.200 C 6.180 126.064,6.000 126.151,6.000 126.393 C 6.000 126.635,5.640 127.220,5.200 127.692 C 4.760 128.164,4.400 128.798,4.400 129.099 C 4.400 129.401,4.242 129.550,4.049 129.430 C 3.855 129.311,3.595 129.705,3.469 130.306 C 3.344 130.908,2.764 131.907,2.180 132.526 C 1.597 133.146,1.212 133.746,1.326 133.860 C 1.440 133.973,1.188 134.412,0.767 134.833 C -0.372 135.972,-0.233 137.975,1.062 139.087 C 2.165 140.035,2.490 140.147,3.756 140.011 C 4.333 139.950,4.446 140.102,4.235 140.653 C 4.082 141.051,4.074 141.259,4.217 141.116 C 4.360 140.973,5.095 141.204,5.850 141.628 C 6.606 142.053,7.449 142.400,7.724 142.400 C 7.999 142.400,8.483 142.760,8.800 143.200 C 9.117 143.640,9.707 144.000,10.112 144.000 C 10.516 144.000,10.736 144.180,10.600 144.400 C 10.464 144.620,10.616 144.800,10.939 144.800 C 11.737 144.800,14.800 146.464,14.800 146.898 C 14.800 147.090,14.969 147.143,15.176 147.015 C 15.382 146.887,16.035 147.282,16.626 147.891 C 17.218 148.501,17.570 148.762,17.409 148.470 C 17.169 148.036,17.262 148.032,17.932 148.451 C 18.381 148.731,18.657 149.109,18.544 149.290 C 18.432 149.471,18.489 149.575,18.670 149.521 C 19.157 149.374,21.600 150.542,21.600 150.921 C 21.600 151.101,21.781 151.135,22.003 150.998 C 22.224 150.861,22.514 151.031,22.646 151.375 C 22.778 151.719,23.136 152.000,23.443 152.000 C 23.749 152.000,24.000 152.191,24.000 152.424 C 24.000 152.657,24.207 152.719,24.461 152.562 C 24.714 152.406,25.119 152.547,25.361 152.876 C 25.602 153.205,26.487 153.700,27.327 153.977 C 28.167 154.253,28.757 154.577,28.638 154.696 C 28.519 154.814,29.174 155.283,30.094 155.738 C 31.013 156.193,32.088 156.888,32.483 157.283 C 32.877 157.677,33.560 158.000,34.000 158.000 C 34.440 158.000,34.800 158.180,34.800 158.400 C 34.800 158.620,35.158 158.800,35.597 158.800 C 36.035 158.800,36.618 159.160,36.893 159.600 C 37.168 160.040,37.583 160.400,37.816 160.400 C 38.477 160.400,40.393 161.365,40.397 161.700 C 40.399 161.865,40.760 162.000,41.200 162.000 C 41.640 162.000,42.000 162.180,42.000 162.400 C 42.000 162.620,42.317 162.800,42.704 162.800 C 43.091 162.800,43.632 163.160,43.907 163.600 C 44.207 164.080,44.845 164.402,45.503 164.406 C 46.358 164.411,46.468 164.498,46.000 164.800 C 45.543 165.095,45.529 165.189,45.938 165.194 C 46.234 165.197,46.975 165.555,47.583 165.988 C 48.192 166.422,48.801 166.666,48.936 166.531 C 49.071 166.396,49.294 166.580,49.432 166.940 C 49.571 167.301,49.829 167.506,50.006 167.396 C 50.532 167.071,51.617 167.648,51.336 168.104 C 51.185 168.348,51.268 168.405,51.535 168.240 C 51.788 168.084,52.450 168.414,53.015 168.978 C 54.121 170.084,54.597 170.295,54.193 169.500 C 54.053 169.225,54.297 169.405,54.734 169.900 C 55.171 170.395,55.814 170.800,56.164 170.800 C 56.514 170.800,56.800 170.991,56.800 171.224 C 56.800 171.457,56.980 171.536,57.200 171.400 C 57.420 171.264,57.600 171.373,57.600 171.643 C 57.600 171.913,57.709 172.024,57.843 171.891 C 57.976 171.757,58.453 171.991,58.903 172.410 C 59.353 172.829,59.872 173.079,60.056 172.966 C 60.240 172.852,60.886 173.218,61.491 173.779 C 62.097 174.341,62.864 174.801,63.196 174.802 C 63.528 174.803,64.610 175.349,65.600 176.015 C 66.590 176.682,67.985 177.512,68.700 177.859 C 69.415 178.207,70.000 178.651,70.000 178.846 C 70.000 179.041,70.360 179.200,70.800 179.200 C 71.240 179.200,71.600 179.349,71.600 179.532 C 71.600 179.714,72.500 180.285,73.600 180.800 C 74.700 181.315,75.600 181.886,75.600 182.068 C 75.600 182.251,75.960 182.400,76.400 182.400 C 76.840 182.400,77.200 182.580,77.200 182.800 C 77.200 183.020,77.554 183.200,77.986 183.200 C 78.418 183.200,78.965 183.560,79.200 184.000 C 79.435 184.440,79.992 184.800,80.438 184.800 C 80.948 184.800,81.142 184.971,80.962 185.262 C 80.798 185.527,80.851 185.616,81.086 185.470 C 81.311 185.331,82.012 185.661,82.644 186.204 C 83.276 186.747,84.064 187.148,84.396 187.095 C 84.728 187.043,84.948 187.247,84.884 187.549 C 84.809 187.903,84.991 188.012,85.399 187.856 C 85.766 187.715,86.125 187.861,86.257 188.204 C 86.382 188.529,86.624 188.709,86.794 188.603 C 86.965 188.498,87.764 188.859,88.570 189.406 C 89.376 189.953,90.218 190.400,90.441 190.400 C 90.665 190.400,90.717 190.611,90.558 190.868 C 90.368 191.176,90.481 191.254,90.891 191.097 C 91.237 190.964,91.891 191.211,92.367 191.655 C 92.837 192.093,93.577 192.478,94.011 192.511 C 94.445 192.543,94.800 192.712,94.800 192.885 C 94.800 193.058,95.081 193.200,95.424 193.200 C 95.793 193.200,95.931 193.388,95.762 193.662 C 95.593 193.935,95.651 194.016,95.904 193.859 C 96.140 193.714,96.868 194.046,97.524 194.597 C 98.179 195.149,99.105 195.600,99.581 195.600 C 100.058 195.600,100.336 195.780,100.200 196.000 C 100.064 196.220,100.233 196.400,100.576 196.400 C 100.919 196.400,101.200 196.580,101.200 196.800 C 101.200 197.020,101.436 197.200,101.725 197.200 C 102.013 197.200,102.643 197.567,103.125 198.016 C 103.606 198.464,104.000 198.713,104.000 198.570 C 104.000 198.426,104.424 198.586,104.942 198.925 C 105.459 199.264,106.584 199.668,107.442 199.823 C 108.299 199.978,109.180 200.245,109.400 200.417 C 109.620 200.590,111.960 201.970,114.600 203.484 C 136.875 216.263,142.922 219.745,147.800 222.606 C 150.880 224.413,154.210 226.342,155.200 226.894 C 156.190 227.445,158.620 228.843,160.600 230.000 C 164.061 232.022,165.269 232.722,168.100 234.346 C 176.545 239.192,182.867 242.839,184.038 243.543 L 185.477 244.406 186.559 243.403 C 187.154 242.851,187.825 242.400,188.049 242.400 C 188.274 242.400,188.727 242.130,189.057 241.800 C 189.387 241.470,190.116 241.200,190.678 241.200 C 191.584 241.200,191.636 241.125,191.149 240.531 C 190.660 239.934,190.698 239.887,191.500 240.093 C 192.047 240.234,192.402 240.144,192.406 239.863 C 192.410 239.604,192.583 239.664,192.800 240.000 C 193.108 240.477,193.189 240.486,193.194 240.047 C 193.197 239.743,193.588 239.158,194.061 238.747 C 194.976 237.953,195.811 237.734,195.403 238.395 C 195.263 238.622,195.423 238.689,195.779 238.553 C 196.121 238.422,196.400 238.064,196.400 237.757 C 196.400 237.451,196.670 237.200,197.000 237.200 C 197.330 237.200,197.600 236.998,197.600 236.751 C 197.600 236.452,197.834 236.481,198.300 236.838 C 198.685 237.133,198.868 237.218,198.707 237.027 C 198.546 236.837,198.769 236.373,199.203 235.997 C 199.870 235.419,200.567 169.331,199.957 164.600 C 199.928 164.380,199.920 164.086,199.937 163.947 C 199.954 163.808,199.661 163.718,199.284 163.747 C 198.908 163.776,198.650 163.561,198.710 163.270 C 198.786 162.906,198.566 162.820,198.010 162.997 C 197.417 163.185,197.200 163.075,197.200 162.584 C 197.200 162.131,196.990 161.995,196.552 162.163 C 196.162 162.313,195.629 162.094,195.211 161.613 C 194.830 161.174,194.402 160.931,194.259 161.074 C 194.117 161.217,194.000 161.143,194.000 160.910 C 194.000 160.677,193.516 160.365,192.924 160.217 C 192.332 160.068,191.522 159.571,191.124 159.112 C 190.620 158.531,190.392 158.448,190.373 158.839 C 190.358 159.147,190.151 158.995,189.912 158.500 C 189.640 157.936,189.118 157.600,188.515 157.600 C 187.975 157.600,187.661 157.424,187.800 157.200 C 187.936 156.980,187.754 156.800,187.395 156.800 C 187.036 156.800,186.471 156.528,186.139 156.196 C 185.807 155.864,185.370 155.695,185.168 155.820 C 184.965 155.945,184.800 155.857,184.800 155.624 C 184.800 155.391,184.522 155.200,184.183 155.200 C 183.844 155.200,183.180 154.840,182.708 154.400 C 182.236 153.960,181.357 153.382,180.754 153.115 C 180.151 152.849,179.727 152.518,179.811 152.382 C 179.896 152.245,179.748 152.126,179.482 152.118 C 178.516 152.086,177.787 151.787,177.200 151.182 C 176.870 150.841,175.387 149.966,173.904 149.237 C 172.358 148.477,171.318 147.733,171.466 147.494 C 171.608 147.264,171.536 147.192,171.307 147.334 C 171.078 147.475,170.668 147.323,170.396 146.996 C 170.124 146.668,169.654 146.400,169.351 146.400 C 169.048 146.400,168.800 146.220,168.800 146.000 C 168.800 145.780,168.440 145.600,168.000 145.600 C 167.560 145.600,167.200 145.409,167.200 145.176 C 167.200 144.943,167.019 144.865,166.797 145.002 C 166.576 145.139,166.282 144.959,166.146 144.602 C 166.009 144.246,165.650 144.049,165.348 144.164 C 165.047 144.280,164.800 144.234,164.800 144.062 C 164.800 143.890,164.166 143.501,163.391 143.197 C 162.617 142.893,161.689 142.319,161.329 141.922 C 160.970 141.525,160.434 141.200,160.138 141.200 C 159.842 141.200,159.600 141.009,159.600 140.776 C 159.600 140.543,159.419 140.465,159.197 140.602 C 158.976 140.739,158.686 140.569,158.554 140.225 C 158.422 139.881,157.971 139.600,157.552 139.600 C 156.592 139.600,155.170 138.813,154.482 137.900 C 154.192 137.515,153.594 137.200,153.154 137.200 C 152.713 137.200,152.464 137.020,152.600 136.800 C 152.736 136.580,152.477 136.400,152.024 136.400 C 151.571 136.400,151.200 136.241,151.200 136.046 C 151.200 135.746,148.608 134.263,148.000 134.215 C 147.890 134.206,147.232 133.794,146.538 133.299 C 145.844 132.805,144.979 132.400,144.615 132.400 C 144.251 132.400,144.052 132.239,144.174 132.043 C 144.295 131.846,143.908 131.563,143.314 131.414 C 142.720 131.265,141.800 130.709,141.269 130.178 C 140.738 129.647,140.145 129.310,139.952 129.430 C 139.758 129.549,139.600 129.446,139.600 129.200 C 139.600 128.954,139.427 128.860,139.215 128.991 C 139.003 129.122,138.463 128.863,138.015 128.415 C 137.567 127.967,137.200 127.702,137.200 127.827 C 137.200 127.952,136.677 127.682,136.038 127.227 C 135.399 126.772,134.539 126.400,134.127 126.400 C 133.714 126.400,133.117 126.040,132.800 125.600 C 132.483 125.160,131.969 124.800,131.659 124.800 C 131.348 124.800,130.782 124.440,130.400 124.000 C 130.018 123.560,129.245 123.162,128.682 123.115 C 128.119 123.068,127.745 122.888,127.852 122.715 C 127.960 122.542,127.767 122.400,127.424 122.400 C 127.081 122.400,126.800 122.262,126.800 122.094 C 126.800 121.926,126.125 121.462,125.300 121.063 C 122.792 119.851,121.293 118.966,119.743 117.784 C 118.929 117.163,118.410 116.892,118.589 117.182 C 118.922 117.721,116.860 116.358,115.440 115.100 C 115.005 114.715,114.188 114.397,113.625 114.394 C 112.789 114.389,112.711 114.309,113.200 113.959 C 113.694 113.607,113.656 113.562,112.988 113.705 C 112.542 113.801,111.965 113.681,111.707 113.439 C 110.391 112.206,109.902 111.952,109.292 112.186 C 108.925 112.327,108.739 112.328,108.879 112.187 C 109.316 111.750,107.867 110.400,106.960 110.400 C 106.486 110.400,105.874 110.130,105.600 109.800 C 105.326 109.470,104.837 109.200,104.513 109.200 C 103.897 109.200,101.497 107.659,101.267 107.114 C 101.193 106.942,100.878 106.800,100.567 106.800 C 100.255 106.800,100.000 106.620,100.000 106.400 C 100.000 106.180,99.865 106.021,99.700 106.047 C 98.861 106.180,98.383 105.951,98.638 105.538 C 98.807 105.264,98.749 105.185,98.494 105.342 C 98.258 105.488,97.793 105.336,97.461 105.004 C 97.129 104.672,96.574 104.400,96.229 104.400 C 95.883 104.400,95.600 104.220,95.600 104.000 C 95.600 103.780,95.240 103.600,94.800 103.600 C 94.360 103.600,94.000 103.420,94.000 103.200 C 94.000 102.980,93.640 102.800,93.200 102.800 C 92.760 102.800,92.400 102.620,92.400 102.400 C 92.400 102.180,92.130 102.000,91.800 102.000 C 91.470 102.000,91.200 101.820,91.200 101.600 C 91.200 101.380,90.840 101.200,90.400 101.200 C 89.960 101.200,89.600 101.020,89.600 100.800 C 89.600 100.580,89.060 100.400,88.400 100.400 C 87.740 100.400,87.200 100.220,87.200 100.000 C 87.200 99.780,87.065 99.621,86.900 99.647 C 85.658 99.843,84.644 99.557,85.200 99.168 C 85.676 98.834,85.623 98.797,84.942 98.987 C 84.463 99.121,83.845 98.996,83.542 98.703 C 83.244 98.415,82.280 98.121,81.400 98.050 C 80.520 97.980,79.710 97.786,79.600 97.621 C 79.269 97.121,77.200 96.873,77.200 97.332 C 77.200 97.563,76.972 97.442,76.694 97.061 C 76.322 96.552,75.800 96.417,74.716 96.552 C 73.802 96.665,73.186 96.557,73.089 96.267 C 72.898 95.695,53.007 95.553,52.441 96.119 M335.447 210.876 C 335.541 211.027,335.298 211.162,334.909 211.175 C 331.730 211.281,330.118 211.461,329.642 211.764 C 329.336 211.959,328.567 212.104,327.935 212.086 C 327.303 212.068,326.889 212.221,327.016 212.427 C 327.210 212.740,325.727 213.010,324.700 212.847 C 324.535 212.821,324.397 213.025,324.394 213.300 C 324.390 213.633,324.258 213.600,324.000 213.200 C 323.742 212.800,323.610 212.767,323.606 213.100 C 323.603 213.375,323.165 213.600,322.633 213.600 C 322.102 213.600,321.607 213.763,321.533 213.962 C 321.460 214.161,320.950 214.386,320.400 214.462 C 319.850 214.538,319.302 214.730,319.183 214.890 C 319.063 215.049,318.613 215.240,318.183 215.314 C 317.080 215.504,313.945 217.012,314.175 217.242 C 314.280 217.347,313.980 217.461,313.510 217.497 C 313.039 217.532,312.508 217.821,312.331 218.138 C 311.908 218.893,308.959 220.425,308.606 220.073 C 308.456 219.923,308.393 220.007,308.467 220.260 C 308.540 220.513,308.461 220.734,308.291 220.751 C 308.121 220.768,307.524 221.239,306.965 221.799 C 306.406 222.358,305.752 222.694,305.512 222.546 C 305.251 222.385,305.191 222.462,305.362 222.738 C 305.533 223.015,305.387 223.200,305.000 223.200 C 304.644 223.200,304.464 223.380,304.600 223.600 C 304.736 223.820,304.567 224.000,304.224 224.000 C 303.880 224.000,303.600 224.338,303.600 224.752 C 303.600 225.166,302.835 226.201,301.900 227.052 C 297.822 230.765,290.000 240.790,290.000 242.305 C 290.000 242.480,289.370 243.218,288.600 243.944 C 287.830 244.671,287.200 245.520,287.200 245.832 C 287.200 246.145,287.065 246.400,286.900 246.400 C 286.735 246.400,286.572 246.890,286.537 247.488 C 286.502 248.086,286.277 248.641,286.037 248.721 C 285.797 248.801,285.600 249.182,285.600 249.567 C 285.600 249.952,285.465 250.402,285.300 250.567 C 284.961 250.906,284.920 251.110,284.850 252.824 C 284.822 253.497,284.657 253.959,284.483 253.851 C 284.309 253.744,284.124 254.203,284.073 254.872 C 284.022 255.541,283.836 256.384,283.659 256.745 C 283.483 257.105,283.290 258.208,283.231 259.196 C 283.173 260.185,282.961 261.300,282.760 261.674 C 282.299 262.536,282.392 279.252,282.857 278.965 C 283.045 278.848,283.221 279.438,283.246 280.276 C 283.272 281.114,283.326 281.980,283.367 282.200 C 283.584 283.352,284.108 285.095,284.454 285.817 C 284.670 286.267,284.886 286.897,284.934 287.217 C 284.983 287.538,285.180 288.053,285.373 288.362 C 285.623 288.763,285.580 288.835,285.220 288.613 C 284.943 288.441,285.026 288.773,285.405 289.351 C 285.783 289.928,285.945 290.400,285.766 290.400 C 285.587 290.400,285.656 290.616,285.920 290.880 C 286.184 291.144,286.403 291.819,286.406 292.380 C 286.411 293.185,286.494 293.274,286.800 292.800 C 287.122 292.302,287.190 292.336,287.201 293.000 C 287.208 293.440,287.751 294.774,288.407 295.964 C 289.063 297.154,289.600 298.459,289.600 298.864 C 289.600 299.269,289.780 299.600,290.000 299.600 C 290.220 299.600,290.400 299.843,290.400 300.141 C 290.400 300.438,290.940 301.246,291.600 301.937 C 292.260 302.628,292.800 303.374,292.800 303.596 C 292.800 303.818,292.937 304.000,293.104 304.000 C 293.271 304.000,293.644 304.379,293.933 304.842 C 294.222 305.305,294.268 305.566,294.034 305.421 C 293.774 305.261,293.702 305.400,293.847 305.779 C 293.978 306.121,294.336 306.400,294.643 306.400 C 294.949 306.400,295.155 306.625,295.100 306.900 C 295.045 307.175,295.225 307.355,295.500 307.300 C 295.775 307.245,296.000 307.399,296.000 307.642 C 296.000 308.211,297.848 310.418,298.107 310.159 C 298.216 310.051,298.428 310.457,298.579 311.061 C 298.795 311.919,298.935 312.032,299.221 311.579 C 299.512 311.120,299.589 311.173,299.594 311.832 C 299.598 312.333,300.038 312.890,300.700 313.230 C 301.305 313.540,302.091 314.111,302.447 314.497 C 302.803 314.884,303.308 315.200,303.571 315.200 C 303.833 315.200,303.952 315.354,303.836 315.542 C 303.720 315.729,304.080 316.090,304.635 316.343 C 305.191 316.596,305.534 316.983,305.399 317.202 C 305.264 317.421,305.522 317.600,305.973 317.600 C 306.425 317.600,307.275 318.140,307.863 318.800 C 308.451 319.460,309.020 319.913,309.128 319.806 C 309.374 319.559,312.024 321.161,312.730 321.983 C 313.021 322.323,313.143 322.371,313.000 322.090 C 312.846 321.787,313.305 321.897,314.132 322.362 C 314.897 322.792,315.646 323.021,315.795 322.872 C 315.944 322.722,316.007 322.870,315.933 323.200 C 315.860 323.530,316.070 323.800,316.400 323.800 C 316.730 323.800,317.144 324.025,317.320 324.300 C 317.496 324.575,317.970 324.800,318.374 324.800 C 319.331 324.800,323.200 326.051,323.201 326.361 C 323.201 326.492,323.867 326.648,324.681 326.706 C 325.495 326.764,326.259 326.948,326.380 327.115 C 326.501 327.281,327.230 327.476,328.000 327.549 C 328.770 327.621,329.703 327.842,330.074 328.040 C 330.444 328.238,331.760 328.400,332.997 328.400 C 334.235 328.400,335.152 328.554,335.036 328.742 C 334.920 328.930,337.638 329.119,341.076 329.163 C 344.872 329.211,347.423 329.087,347.572 328.845 C 347.707 328.627,349.036 328.409,350.524 328.361 C 352.013 328.312,353.325 328.122,353.439 327.936 C 353.554 327.751,354.256 327.600,355.000 327.600 C 355.744 327.600,356.464 327.420,356.600 327.200 C 356.736 326.980,357.276 326.800,357.800 326.800 C 358.324 326.800,358.864 326.620,359.000 326.400 C 359.136 326.180,359.732 325.994,360.324 325.987 C 360.916 325.980,361.742 325.716,362.159 325.400 C 362.576 325.084,363.071 324.920,363.259 325.036 C 363.447 325.152,363.600 325.067,363.600 324.847 C 363.600 324.626,363.960 324.515,364.400 324.600 C 364.901 324.697,365.200 324.539,365.200 324.177 C 365.200 323.860,365.391 323.600,365.624 323.600 C 365.857 323.600,365.937 323.778,365.803 323.995 C 365.663 324.222,365.823 324.289,366.179 324.153 C 366.521 324.022,366.800 323.743,366.800 323.534 C 366.800 323.324,366.969 323.257,367.176 323.385 C 367.383 323.513,367.950 323.209,368.435 322.709 C 368.920 322.209,369.182 322.038,369.017 322.330 C 368.637 322.999,370.133 322.181,371.266 321.100 C 371.670 320.715,372.270 320.400,372.600 320.400 C 372.930 320.400,373.200 320.190,373.200 319.933 C 373.200 319.677,373.305 319.572,373.433 319.700 C 373.562 319.828,373.999 319.633,374.405 319.267 C 375.909 317.908,376.380 317.600,376.956 317.600 C 377.281 317.600,377.660 317.240,377.800 316.800 C 377.940 316.360,378.246 316.000,378.480 316.000 C 378.714 316.000,379.197 315.684,379.553 315.297 C 379.909 314.911,380.686 314.345,381.281 314.040 C 381.875 313.735,382.349 313.376,382.334 313.243 C 382.256 312.579,382.432 312.005,382.700 312.047 C 383.606 312.190,384.001 311.904,384.006 311.100 C 384.011 310.372,384.086 310.315,384.400 310.800 C 384.714 311.285,384.789 311.228,384.794 310.500 C 384.797 310.005,384.980 309.600,385.200 309.600 C 385.420 309.600,385.960 309.240,386.400 308.800 C 386.840 308.360,387.104 308.000,386.986 308.000 C 386.869 308.000,387.319 307.466,387.986 306.813 C 388.654 306.161,389.200 305.357,389.200 305.028 C 389.200 304.698,389.574 304.228,390.032 303.983 C 390.489 303.738,391.047 303.012,391.271 302.369 C 391.495 301.726,391.851 301.200,392.063 301.200 C 392.274 301.200,392.329 301.009,392.184 300.775 C 392.040 300.541,392.164 300.046,392.461 299.675 C 393.345 298.568,394.000 297.252,394.000 296.582 C 394.000 296.236,394.180 296.064,394.400 296.200 C 394.620 296.336,394.800 296.081,394.800 295.633 C 394.800 295.186,395.159 294.230,395.599 293.510 C 396.038 292.789,396.398 291.874,396.399 291.476 C 396.399 291.031,396.578 290.863,396.862 291.038 C 397.137 291.209,397.215 291.149,397.055 290.889 C 396.908 290.650,397.047 289.858,397.364 289.127 C 398.267 287.051,398.495 286.303,398.673 284.817 C 398.765 284.057,399.056 283.174,399.320 282.856 C 400.144 281.863,399.970 256.676,399.135 256.160 C 398.951 256.046,398.800 255.434,398.800 254.800 C 398.800 254.166,398.620 253.536,398.400 253.400 C 398.180 253.264,398.000 252.713,398.000 252.176 C 398.000 251.639,397.790 251.200,397.533 251.200 C 397.277 251.200,397.180 251.087,397.317 250.949 C 397.455 250.811,397.305 250.069,396.984 249.300 C 396.663 248.531,396.400 247.564,396.400 247.151 C 396.400 246.738,396.220 246.400,396.000 246.400 C 395.780 246.400,395.600 246.029,395.600 245.576 C 395.600 245.123,395.420 244.864,395.200 245.000 C 394.980 245.136,394.800 244.877,394.800 244.424 C 394.800 243.971,394.620 243.600,394.400 243.600 C 394.180 243.600,394.000 243.255,394.000 242.833 C 394.000 242.412,393.833 242.007,393.630 241.933 C 393.426 241.860,393.201 241.530,393.130 241.200 C 393.058 240.870,392.657 240.285,392.239 239.900 C 391.820 239.515,391.692 239.200,391.954 239.200 C 392.223 239.200,392.081 238.824,391.629 238.339 C 391.188 237.866,390.922 237.326,391.037 237.139 C 391.153 236.953,391.057 236.800,390.824 236.800 C 390.591 236.800,390.400 236.596,390.400 236.347 C 390.400 236.097,389.905 235.446,389.300 234.900 C 388.695 234.353,388.423 234.027,388.695 234.174 C 389.020 234.349,389.112 234.236,388.962 233.846 C 388.837 233.518,388.479 233.348,388.167 233.468 C 387.855 233.588,387.600 233.470,387.600 233.206 C 387.600 232.529,386.159 230.775,385.853 231.080 C 385.714 231.219,385.600 230.943,385.600 230.467 C 385.600 229.990,385.367 229.600,385.081 229.600 C 384.796 229.600,384.121 229.068,383.581 228.417 C 383.042 227.766,382.452 227.226,382.271 227.217 C 381.783 227.192,380.800 226.122,380.800 225.616 C 380.800 225.373,380.485 225.055,380.100 224.908 C 379.715 224.761,379.051 224.316,378.625 223.920 C 378.198 223.524,377.568 223.197,377.225 223.194 C 376.675 223.188,376.672 223.141,377.200 222.800 C 377.632 222.520,377.654 222.411,377.279 222.406 C 376.518 222.397,373.958 220.576,374.269 220.265 C 374.414 220.119,374.043 220.000,373.443 220.000 C 372.818 220.000,372.458 219.829,372.600 219.600 C 372.736 219.380,372.567 219.200,372.224 219.200 C 371.881 219.200,371.600 219.020,371.600 218.800 C 371.600 218.580,371.465 218.421,371.300 218.447 C 370.585 218.560,369.888 218.379,370.125 218.141 C 370.415 217.852,366.962 216.000,366.132 216.000 C 365.839 216.000,365.600 215.858,365.600 215.685 C 365.600 215.512,365.211 215.341,364.736 215.305 C 364.261 215.269,363.766 215.080,363.636 214.885 C 363.506 214.690,362.950 214.398,362.400 214.238 C 359.861 213.497,358.538 213.140,357.800 212.998 C 357.360 212.913,356.550 212.733,356.000 212.598 C 355.450 212.463,354.820 212.314,354.600 212.265 C 354.380 212.217,353.946 212.019,353.636 211.826 C 353.326 211.632,351.886 211.428,350.436 211.373 C 347.057 211.243,347.120 211.253,347.338 210.900 C 347.440 210.735,344.768 210.600,341.400 210.600 C 338.032 210.600,335.353 210.724,335.447 210.876 M345.600 235.994 C 345.134 236.290,345.224 236.361,346.000 236.314 C 348.206 236.180,350.038 236.414,349.800 236.800 C 349.650 237.042,350.204 237.200,351.200 237.200 C 352.106 237.200,352.760 237.341,352.653 237.514 C 352.546 237.687,352.761 237.840,353.129 237.853 C 354.251 237.895,354.971 238.171,355.600 238.800 C 355.930 239.130,356.470 239.459,356.800 239.530 C 357.130 239.602,357.457 239.816,357.526 240.008 C 357.595 240.199,357.909 240.256,358.222 240.136 C 358.536 240.016,358.904 240.206,359.039 240.558 C 359.175 240.911,359.562 241.200,359.899 241.200 C 360.237 241.200,361.029 241.695,361.659 242.300 C 363.582 244.148,364.326 244.741,364.500 244.566 C 364.738 244.328,366.800 246.707,366.800 247.220 C 366.800 247.455,366.980 247.536,367.200 247.400 C 367.560 247.178,367.773 247.703,367.647 248.500 C 367.621 248.665,367.735 248.755,367.900 248.700 C 368.065 248.645,368.278 248.780,368.373 249.000 C 368.468 249.220,368.955 249.722,369.455 250.115 C 370.029 250.567,370.272 251.069,370.114 251.480 C 369.947 251.915,370.019 252.035,370.332 251.842 C 370.589 251.683,370.800 251.743,370.800 251.976 C 370.800 252.703,370.933 252.976,371.678 253.775 C 372.075 254.202,372.400 254.787,372.400 255.075 C 372.400 255.364,372.580 255.600,372.800 255.600 C 373.020 255.600,373.200 256.151,373.200 256.824 C 373.200 257.497,373.360 257.948,373.555 257.828 C 373.888 257.622,374.006 257.994,374.655 261.300 C 374.796 262.015,375.058 262.696,375.238 262.813 C 375.418 262.930,375.596 264.595,375.634 266.513 C 375.676 268.685,375.864 270.000,376.131 270.000 C 376.408 270.000,376.390 270.170,376.080 270.480 C 375.795 270.765,375.600 272.137,375.600 273.856 C 375.600 275.449,375.420 276.864,375.200 277.000 C 374.980 277.136,374.800 277.779,374.800 278.429 C 374.800 279.457,374.226 280.974,373.600 281.600 C 373.490 281.710,373.340 282.229,373.266 282.753 C 373.192 283.278,372.787 284.077,372.366 284.529 C 371.945 284.981,371.600 285.668,371.600 286.055 C 371.600 286.939,369.365 290.290,368.355 290.921 C 367.940 291.180,367.600 291.630,367.600 291.920 C 367.600 292.221,367.399 292.323,367.132 292.158 C 366.837 291.975,366.737 292.077,366.863 292.434 C 367.076 293.037,365.826 294.493,365.433 294.100 C 365.305 293.972,365.200 294.145,365.200 294.484 C 365.200 294.824,364.895 295.349,364.523 295.651 C 363.943 296.121,363.896 296.117,364.195 295.621 C 364.387 295.303,363.970 295.452,363.268 295.952 C 362.565 296.452,362.111 297.055,362.257 297.292 C 362.404 297.530,362.349 297.615,362.135 297.483 C 361.921 297.351,361.500 297.584,361.200 298.000 C 360.900 298.416,360.527 298.679,360.372 298.583 C 360.217 298.487,359.868 298.677,359.596 299.004 C 359.324 299.332,358.783 299.600,358.394 299.600 C 358.004 299.600,357.583 299.867,357.458 300.193 C 357.328 300.531,356.965 300.685,356.615 300.550 C 356.277 300.421,356.000 300.514,356.000 300.757 C 356.000 301.001,355.629 301.200,355.176 301.200 C 354.723 301.200,354.464 301.380,354.600 301.600 C 354.736 301.820,354.477 302.022,354.024 302.050 C 352.701 302.130,352.484 302.183,352.167 302.500 C 352.002 302.665,351.346 302.800,350.710 302.800 C 350.040 302.800,349.657 302.969,349.800 303.200 C 349.950 303.443,349.294 303.618,348.124 303.646 C 345.895 303.700,345.632 303.739,344.733 304.153 C 343.562 304.692,334.566 303.901,332.300 303.060 C 331.915 302.917,331.285 302.683,330.900 302.540 C 330.515 302.396,329.961 302.230,329.669 302.170 C 329.377 302.111,328.837 301.928,328.469 301.765 C 328.101 301.602,327.710 301.438,327.600 301.399 C 325.908 300.805,323.637 299.464,323.820 299.167 C 323.952 298.954,323.911 298.806,323.730 298.837 C 322.938 298.975,321.890 298.777,322.131 298.536 C 322.276 298.390,321.991 298.061,321.498 297.803 C 321.004 297.545,320.645 297.124,320.700 296.867 C 320.755 296.610,320.530 296.400,320.200 296.400 C 319.870 296.400,319.600 296.190,319.600 295.933 C 319.600 295.677,319.489 295.578,319.353 295.714 C 319.035 296.032,315.637 292.699,315.871 292.300 C 315.968 292.135,315.767 292.000,315.424 292.000 C 315.081 292.000,314.800 291.828,314.800 291.618 C 314.800 291.408,314.350 290.786,313.800 290.236 C 313.250 289.686,312.800 289.024,312.800 288.765 C 312.800 288.506,312.412 287.958,311.939 287.547 C 311.430 287.105,311.291 286.800,311.600 286.800 C 311.939 286.800,311.855 286.554,311.361 286.100 C 310.943 285.715,310.541 285.058,310.469 284.640 C 310.397 284.222,310.089 283.632,309.786 283.329 C 309.482 283.025,309.347 282.483,309.485 282.123 C 309.653 281.685,309.581 281.565,309.268 281.758 C 308.944 281.958,308.800 281.603,308.800 280.600 C 308.800 279.804,308.657 279.241,308.483 279.349 C 308.309 279.456,308.123 278.984,308.071 278.299 C 308.019 277.614,307.844 276.861,307.681 276.627 C 307.519 276.392,307.409 275.390,307.436 274.400 C 307.463 273.410,307.309 272.375,307.094 272.100 C 306.831 271.764,306.850 271.600,307.151 271.600 C 307.398 271.600,307.597 271.195,307.594 270.700 C 307.589 269.982,307.512 269.920,307.212 270.395 C 306.914 270.866,306.849 270.810,306.901 270.123 C 306.937 269.646,307.077 269.324,307.213 269.408 C 307.349 269.492,307.427 268.207,307.386 266.553 C 307.341 264.735,307.494 263.358,307.771 263.072 C 308.023 262.813,308.223 262.150,308.215 261.600 C 308.207 261.050,308.329 260.503,308.487 260.384 C 308.645 260.266,308.818 259.591,308.872 258.884 C 308.926 258.178,309.078 257.600,309.210 257.600 C 309.527 257.600,310.632 254.742,310.490 254.291 C 310.430 254.098,310.565 254.055,310.790 254.194 C 311.016 254.333,311.200 254.156,311.200 253.800 C 311.200 253.444,311.384 253.267,311.610 253.406 C 311.835 253.545,311.994 253.511,311.963 253.330 C 311.757 252.147,312.037 251.039,312.400 251.600 C 312.714 252.085,312.789 252.028,312.794 251.300 C 312.797 250.805,312.959 250.400,313.153 250.400 C 313.348 250.400,313.601 250.040,313.716 249.600 C 313.831 249.160,314.212 248.800,314.563 248.800 C 314.913 248.800,315.200 248.519,315.200 248.176 C 315.200 247.833,315.380 247.664,315.600 247.800 C 315.820 247.936,316.000 247.793,316.000 247.483 C 316.000 246.818,318.218 244.400,318.827 244.400 C 319.058 244.400,319.137 244.222,319.003 244.005 C 318.858 243.770,319.037 243.716,319.445 243.873 C 319.911 244.051,320.038 243.985,319.842 243.668 C 319.677 243.401,319.779 243.200,320.080 243.200 C 320.370 243.200,320.832 242.840,321.107 242.400 C 321.382 241.960,321.875 241.600,322.203 241.600 C 322.532 241.600,322.800 241.409,322.800 241.176 C 322.800 240.943,322.960 240.851,323.155 240.972 C 323.350 241.093,323.730 240.925,324.000 240.600 C 324.270 240.275,324.631 240.096,324.803 240.202 C 324.975 240.308,325.218 240.129,325.343 239.804 C 325.472 239.469,325.835 239.315,326.185 239.450 C 326.523 239.579,326.800 239.486,326.800 239.243 C 326.800 238.999,327.205 238.797,327.700 238.794 C 328.344 238.789,328.449 238.692,328.068 238.450 C 327.693 238.213,327.912 238.038,328.809 237.858 C 329.509 237.718,330.271 237.721,330.503 237.864 C 330.749 238.016,330.805 237.932,330.638 237.662 C 330.366 237.221,330.549 237.155,332.300 237.063 C 332.685 237.043,333.117 236.859,333.260 236.655 C 333.403 236.450,334.258 236.265,335.160 236.243 C 336.062 236.221,336.800 236.068,336.800 235.902 C 336.800 235.736,338.915 235.603,341.500 235.606 C 344.635 235.610,346.000 235.739,345.600 235.994 " stroke="none" fill="#dcdce3" fill-rule="evenodd"></path><path id="path1" d="M335.378 71.172 C 335.170 71.375,334.010 71.586,332.800 71.642 C 330.695 71.740,330.271 71.854,328.358 72.830 C 327.727 73.152,327.589 73.142,327.806 72.790 C 328.025 72.436,327.894 72.429,327.275 72.760 C 326.822 73.002,325.901 73.200,325.226 73.200 C 324.552 73.200,324.000 73.380,324.000 73.600 C 324.000 73.820,323.460 74.000,322.800 74.000 C 322.140 74.000,321.600 74.180,321.600 74.400 C 321.600 74.620,321.317 74.800,320.971 74.800 C 320.626 74.800,320.081 75.062,319.760 75.383 C 319.439 75.704,318.912 75.864,318.588 75.740 C 318.265 75.616,318.000 75.714,318.000 75.957 C 318.000 76.201,317.735 76.400,317.412 76.400 C 317.089 76.400,316.189 76.757,315.412 77.193 C 314.635 77.629,314.000 77.897,314.000 77.788 C 314.000 77.679,313.284 78.042,312.408 78.595 C 311.532 79.148,310.643 79.600,310.431 79.600 C 310.219 79.600,309.810 79.915,309.523 80.300 C 309.235 80.685,308.766 81.048,308.480 81.107 C 308.194 81.165,307.426 81.759,306.774 82.427 C 306.122 83.094,305.425 83.539,305.225 83.416 C 304.881 83.203,302.494 85.456,297.617 90.600 C 295.510 92.822,293.953 94.725,293.769 95.300 C 293.647 95.685,293.368 96.000,293.149 96.000 C 292.931 96.000,292.865 96.181,293.002 96.403 C 293.139 96.624,292.969 96.914,292.625 97.046 C 292.281 97.178,292.000 97.536,292.000 97.843 C 292.000 98.149,291.820 98.400,291.600 98.400 C 291.380 98.400,291.200 98.681,291.200 99.024 C 291.200 99.367,291.020 99.536,290.800 99.400 C 290.580 99.264,290.400 99.523,290.400 99.976 C 290.400 100.429,290.265 100.801,290.100 100.803 C 289.680 100.807,288.800 102.799,288.800 103.746 C 288.800 104.179,288.683 104.416,288.539 104.273 C 288.209 103.943,287.134 105.970,287.406 106.409 C 287.517 106.589,287.375 106.975,287.092 107.268 C 286.808 107.560,286.324 108.610,286.016 109.600 C 285.708 110.590,285.310 111.597,285.131 111.837 C 284.953 112.077,284.903 112.370,285.021 112.487 C 285.138 112.605,284.978 113.308,284.665 114.050 C 283.677 116.392,283.238 118.140,283.143 120.100 C 283.092 121.145,282.915 122.000,282.750 122.000 C 282.240 122.000,282.477 137.149,283.011 138.703 C 283.276 139.474,283.449 140.622,283.396 141.253 C 283.342 141.884,283.426 142.400,283.582 142.400 C 283.739 142.400,283.894 142.625,283.926 142.900 C 283.959 143.175,284.051 143.940,284.130 144.600 C 284.209 145.260,284.572 146.469,284.937 147.287 C 285.302 148.105,285.600 149.151,285.600 149.611 C 285.600 150.148,285.768 150.344,286.068 150.158 C 286.381 149.965,286.453 150.085,286.285 150.522 C 286.148 150.881,286.190 151.270,286.380 151.388 C 286.570 151.505,286.623 151.989,286.499 152.463 C 286.366 152.972,286.434 153.226,286.664 153.084 C 286.879 152.951,287.294 153.508,287.587 154.321 C 287.880 155.135,288.442 156.028,288.836 156.306 C 289.230 156.585,290.407 158.248,291.451 160.003 C 293.789 163.934,297.841 168.989,301.299 172.289 C 302.734 173.658,304.022 175.233,304.161 175.789 C 304.301 176.345,304.655 176.800,304.948 176.800 C 305.241 176.800,306.046 177.340,306.737 178.000 C 307.428 178.660,308.264 179.200,308.596 179.200 C 308.928 179.200,309.200 179.391,309.200 179.624 C 309.200 179.857,309.381 179.935,309.603 179.798 C 309.824 179.661,310.114 179.831,310.246 180.175 C 310.378 180.519,310.736 180.800,311.043 180.800 C 311.349 180.800,311.601 180.935,311.603 181.100 C 311.607 181.465,313.549 182.400,314.303 182.400 C 314.602 182.400,314.759 182.543,314.651 182.717 C 314.544 182.891,314.832 183.062,315.292 183.097 C 315.752 183.132,316.234 183.317,316.364 183.509 C 316.618 183.885,317.636 184.329,318.058 184.249 C 318.200 184.222,318.650 184.491,319.058 184.848 C 319.713 185.419,320.794 185.794,322.800 186.144 C 323.130 186.202,323.760 186.444,324.200 186.683 C 324.640 186.921,325.495 187.061,326.100 186.993 C 326.844 186.910,327.200 187.055,327.200 187.442 C 327.200 187.798,327.613 188.012,328.300 188.011 C 330.103 188.007,331.200 188.157,331.200 188.405 C 331.200 188.534,331.875 188.625,332.700 188.608 C 333.525 188.591,334.551 188.743,334.980 188.945 C 335.782 189.324,343.940 189.626,344.530 189.299 C 344.712 189.198,346.062 189.037,347.530 188.942 C 348.999 188.846,350.650 188.666,351.200 188.542 C 351.750 188.417,352.785 188.225,353.500 188.114 C 354.215 188.003,354.800 187.758,354.800 187.569 C 354.800 187.380,355.072 187.330,355.405 187.457 C 355.738 187.585,356.270 187.474,356.588 187.210 C 356.905 186.947,357.337 186.837,357.546 186.967 C 358.045 187.275,359.252 186.808,359.002 186.403 C 358.896 186.231,359.032 186.103,359.304 186.119 C 360.290 186.177,363.223 185.487,363.432 185.147 C 363.551 184.956,363.997 184.800,364.424 184.800 C 364.851 184.800,365.200 184.620,365.200 184.400 C 365.200 184.180,365.560 184.000,366.000 184.000 C 366.440 184.000,366.800 183.820,366.800 183.600 C 366.800 183.380,367.138 183.200,367.551 183.200 C 367.964 183.200,368.524 182.932,368.796 182.604 C 369.068 182.277,369.417 182.087,369.572 182.183 C 369.727 182.279,370.107 182.007,370.415 181.579 C 370.724 181.150,371.219 180.800,371.516 180.800 C 372.000 180.800,375.502 178.619,376.000 178.007 C 376.110 177.872,376.830 177.335,377.600 176.814 C 378.370 176.293,379.810 175.030,380.800 174.007 C 381.790 172.985,382.915 172.031,383.300 171.887 C 383.685 171.743,384.000 171.362,384.000 171.040 C 384.000 170.717,384.363 170.339,384.806 170.198 C 385.249 170.057,385.514 169.784,385.395 169.591 C 385.275 169.398,385.727 168.835,386.398 168.339 C 387.068 167.843,387.963 166.888,388.386 166.218 C 388.809 165.548,389.705 164.229,390.377 163.286 C 391.050 162.343,391.600 161.188,391.600 160.719 C 391.600 160.250,391.711 159.978,391.848 160.114 C 392.137 160.404,393.200 159.433,393.200 158.879 C 393.200 158.128,394.847 154.800,395.219 154.800 C 395.428 154.800,395.600 154.440,395.600 154.000 C 395.600 153.560,395.780 153.200,396.000 153.200 C 396.220 153.200,396.400 152.808,396.400 152.328 C 396.400 151.314,397.252 148.800,397.595 148.800 C 397.724 148.800,397.874 148.215,397.928 147.500 C 397.981 146.785,398.200 146.140,398.413 146.067 C 398.626 145.993,398.800 145.318,398.800 144.567 C 398.800 143.815,398.935 143.200,399.100 143.200 C 399.616 143.200,399.802 139.323,399.742 129.800 C 399.664 117.492,399.673 117.692,399.208 117.405 C 398.983 117.266,398.800 116.443,398.800 115.576 C 398.800 114.709,398.620 114.000,398.400 114.000 C 398.180 114.000,398.000 113.460,398.000 112.800 C 398.000 112.140,397.820 111.600,397.600 111.600 C 397.380 111.600,397.200 111.150,397.200 110.600 C 397.200 110.050,397.020 109.600,396.800 109.600 C 396.580 109.600,396.400 109.270,396.400 108.867 C 396.400 108.463,396.265 107.998,396.100 107.833 C 395.935 107.668,395.792 107.413,395.782 107.267 C 395.733 106.535,394.598 104.000,394.320 104.000 C 394.144 104.000,394.000 103.758,394.000 103.461 C 394.000 102.598,392.763 100.361,392.156 100.128 C 391.850 100.010,391.600 99.484,391.600 98.957 C 391.600 98.431,391.433 98.000,391.229 98.000 C 391.025 98.000,390.800 97.756,390.729 97.459 C 390.572 96.802,388.718 94.414,386.757 92.343 C 385.963 91.505,385.408 90.725,385.524 90.610 C 385.639 90.494,385.513 90.400,385.243 90.400 C 384.973 90.400,384.864 90.220,385.000 90.000 C 385.136 89.780,385.101 89.600,384.923 89.600 C 384.745 89.600,383.587 88.655,382.349 87.500 C 378.521 83.927,377.626 83.200,377.052 83.200 C 376.446 83.200,375.285 82.016,375.851 81.975 C 376.043 81.961,375.840 81.779,375.400 81.570 C 374.960 81.361,374.121 80.878,373.535 80.495 C 370.941 78.801,367.963 77.200,367.406 77.200 C 367.073 77.200,366.800 77.020,366.800 76.800 C 366.800 76.580,366.566 76.400,366.280 76.400 C 365.544 76.400,363.607 75.459,363.603 75.100 C 363.601 74.935,363.096 74.800,362.480 74.800 C 361.864 74.800,361.189 74.631,360.980 74.425 C 360.771 74.218,360.150 73.976,359.600 73.886 C 358.467 73.701,357.323 73.314,356.305 72.771 C 355.923 72.567,354.924 72.400,354.085 72.400 C 353.246 72.400,352.318 72.175,352.021 71.900 C 351.586 71.496,351.544 71.507,351.803 71.962 C 352.040 72.378,351.978 72.432,351.562 72.171 C 351.253 71.978,350.389 71.783,349.642 71.739 C 348.895 71.695,348.175 71.511,348.042 71.329 C 347.704 70.870,346.261 70.917,345.906 71.400 C 345.724 71.648,345.610 71.610,345.606 71.300 C 345.602 70.957,344.857 70.800,343.233 70.800 C 341.714 70.800,340.794 70.979,340.665 71.300 C 340.504 71.700,340.457 71.700,340.432 71.300 C 340.411 70.971,339.716 70.800,338.400 70.800 C 337.070 70.800,336.398 70.967,336.394 71.300 C 336.389 71.698,336.323 71.699,336.072 71.302 C 335.878 70.998,335.609 70.947,335.378 71.172 M346.168 96.051 C 346.059 96.227,346.768 96.355,347.743 96.336 C 348.717 96.316,349.759 96.455,350.057 96.644 C 350.667 97.030,350.857 97.079,352.024 97.150 C 352.477 97.178,352.736 97.380,352.600 97.600 C 352.460 97.826,352.788 98.000,353.352 98.000 C 353.901 98.000,355.326 98.535,356.519 99.190 C 357.711 99.844,358.802 100.264,358.943 100.123 C 359.085 99.982,359.200 100.167,359.200 100.533 C 359.200 100.900,359.428 101.200,359.707 101.200 C 360.636 101.200,365.761 105.602,368.138 108.441 C 368.764 109.188,369.141 109.547,368.976 109.238 C 368.776 108.864,368.833 108.773,369.145 108.966 C 369.402 109.125,369.511 109.421,369.386 109.622 C 369.261 109.824,369.528 110.386,369.980 110.870 C 370.431 111.355,370.800 111.987,370.800 112.275 C 370.800 112.564,370.935 112.801,371.100 112.803 C 371.459 112.807,372.400 114.744,372.400 115.480 C 372.400 115.766,372.536 116.000,372.702 116.000 C 373.177 116.000,374.165 118.503,374.083 119.500 C 374.042 119.995,374.187 120.400,374.404 120.400 C 374.622 120.400,374.803 120.985,374.806 121.700 C 374.811 122.686,374.906 122.855,375.200 122.400 C 375.465 121.990,375.590 123.043,375.594 125.724 C 375.598 128.236,375.744 129.558,376.000 129.400 C 376.220 129.264,376.400 129.433,376.400 129.776 C 376.400 130.119,376.242 130.400,376.050 130.400 C 375.857 130.400,375.668 131.885,375.629 133.700 C 375.540 137.878,375.526 138.002,375.177 137.786 C 375.017 137.687,374.786 138.190,374.662 138.903 C 374.141 141.914,373.889 142.800,373.555 142.800 C 373.360 142.800,373.200 143.034,373.200 143.320 C 373.200 144.056,372.259 145.993,371.900 145.997 C 371.735 145.999,371.600 146.270,371.600 146.600 C 371.600 146.930,371.420 147.200,371.200 147.200 C 370.980 147.200,370.800 147.560,370.800 148.000 C 370.800 148.440,370.620 148.800,370.400 148.800 C 370.180 148.800,370.000 149.030,370.000 149.312 C 370.000 149.593,369.640 150.083,369.200 150.400 C 368.760 150.717,368.400 151.167,368.400 151.400 C 368.400 151.633,368.040 152.083,367.600 152.400 C 367.160 152.717,366.800 153.207,366.800 153.488 C 366.800 153.770,366.620 154.000,366.400 154.000 C 366.180 154.000,366.000 154.270,366.000 154.600 C 366.000 154.930,365.865 155.179,365.700 155.153 C 364.903 155.027,364.378 155.240,364.600 155.600 C 364.736 155.820,364.650 156.000,364.408 156.000 C 364.166 156.000,363.242 156.720,362.353 157.600 C 361.464 158.480,360.391 159.200,359.968 159.200 C 359.546 159.200,359.200 159.380,359.200 159.600 C 359.200 159.820,358.840 160.000,358.400 160.000 C 357.960 160.000,357.600 160.180,357.600 160.400 C 357.600 160.620,357.210 160.800,356.733 160.800 C 356.257 160.800,355.987 160.921,356.135 161.068 C 356.457 161.390,350.183 163.657,348.900 163.682 C 348.405 163.692,348.000 163.822,348.000 163.970 C 348.000 164.633,336.537 164.608,335.400 163.942 C 335.180 163.813,334.505 163.734,333.900 163.767 C 333.295 163.800,332.800 163.696,332.800 163.536 C 332.800 163.377,332.440 163.315,332.000 163.400 C 331.560 163.485,331.200 163.397,331.200 163.205 C 331.200 163.014,330.210 162.569,329.000 162.217 C 327.790 161.865,326.800 161.422,326.800 161.232 C 326.800 160.938,326.340 160.744,324.300 160.183 C 324.135 160.137,323.775 160.075,323.500 160.044 C 323.152 160.005,323.182 159.870,323.600 159.600 C 324.109 159.271,324.090 159.211,323.477 159.206 C 322.801 159.200,319.562 156.965,319.267 156.300 C 319.193 156.135,318.848 156.000,318.500 156.000 C 318.152 156.000,317.969 155.897,318.095 155.772 C 318.220 155.646,317.575 154.767,316.661 153.818 C 313.145 150.164,312.931 149.861,310.649 145.303 C 310.402 144.810,310.065 144.405,309.900 144.403 C 309.735 144.401,309.600 144.076,309.600 143.680 C 309.600 143.284,309.407 142.767,309.170 142.530 C 308.934 142.294,308.678 141.673,308.602 141.150 C 308.373 139.580,308.064 138.426,307.731 137.898 C 306.685 136.239,306.998 123.430,308.102 122.729 C 308.495 122.479,308.492 122.411,308.086 122.406 C 307.694 122.401,307.675 122.208,308.004 121.592 C 308.242 121.147,308.311 120.579,308.157 120.330 C 307.985 120.052,308.055 119.987,308.338 120.162 C 308.649 120.354,308.800 120.047,308.800 119.224 C 308.800 118.551,308.974 118.000,309.187 118.000 C 309.401 118.000,309.480 117.753,309.364 117.452 C 309.249 117.150,309.389 116.651,309.677 116.342 C 309.965 116.033,310.259 115.517,310.332 115.194 C 310.405 114.872,310.599 114.516,310.764 114.404 C 310.929 114.292,311.319 113.615,311.630 112.900 C 311.941 112.185,312.351 111.600,312.540 111.600 C 312.730 111.600,312.782 111.330,312.655 111.000 C 312.521 110.650,312.649 110.400,312.963 110.400 C 313.258 110.400,313.788 109.815,314.141 109.100 C 314.493 108.385,314.792 107.980,314.803 108.200 C 314.815 108.420,315.268 107.880,315.810 107.000 C 316.352 106.120,316.797 105.569,316.798 105.775 C 316.799 105.981,317.334 105.638,317.986 105.014 C 318.638 104.389,319.060 103.697,318.924 103.477 C 318.774 103.234,318.882 103.203,319.199 103.399 C 319.528 103.603,319.921 103.449,320.261 102.985 C 320.557 102.579,320.803 102.416,320.806 102.624 C 320.809 102.831,320.944 102.810,321.106 102.579 C 321.581 101.899,324.254 99.987,324.452 100.186 C 324.553 100.286,325.136 99.936,325.750 99.409 C 326.364 98.882,327.103 98.541,327.392 98.652 C 327.682 98.764,328.038 98.662,328.183 98.427 C 328.328 98.192,328.803 98.000,329.238 98.000 C 329.672 98.000,330.464 97.714,330.996 97.366 C 331.529 97.017,332.153 96.847,332.382 96.989 C 332.612 97.131,332.800 97.057,332.800 96.824 C 332.800 96.591,333.385 96.382,334.100 96.360 C 334.815 96.338,335.850 96.171,336.400 95.988 C 337.670 95.566,346.433 95.623,346.168 96.051 M200.400 200.600 C 200.400 223.667,200.536 235.600,200.800 235.600 C 201.020 235.600,201.200 235.319,201.200 234.976 C 201.200 234.633,201.373 234.460,201.584 234.590 C 201.942 234.811,203.551 234.116,204.000 233.546 C 204.110 233.407,204.830 232.937,205.600 232.503 C 209.805 230.131,210.592 229.612,210.514 229.264 C 210.466 229.054,210.781 228.975,211.214 229.088 C 211.649 229.201,212.000 229.094,212.000 228.847 C 212.000 228.601,212.360 228.400,212.800 228.400 C 213.240 228.400,213.600 228.250,213.600 228.068 C 213.600 227.885,214.095 227.480,214.700 227.168 C 215.305 226.856,215.890 226.511,216.000 226.401 C 216.415 225.984,218.007 225.200,218.437 225.200 C 218.683 225.200,219.541 224.681,220.342 224.046 C 221.144 223.411,221.937 222.874,222.104 222.854 C 222.531 222.801,224.958 221.539,225.200 221.244 C 225.587 220.772,227.196 220.000,227.795 220.000 C 228.128 220.000,228.400 219.841,228.400 219.647 C 228.400 219.452,228.715 219.193,229.100 219.071 C 229.785 218.854,232.004 217.596,232.400 217.200 C 232.720 216.880,234.115 216.036,235.200 215.505 C 235.750 215.236,236.290 214.902,236.400 214.763 C 236.845 214.201,239.171 214.149,239.382 214.697 C 239.499 215.001,239.768 215.144,239.980 215.013 C 240.191 214.882,240.656 215.219,241.013 215.763 C 241.389 216.338,241.899 216.660,242.230 216.533 C 242.735 216.339,242.987 216.815,242.847 217.700 C 242.769 218.197,243.521 218.037,243.693 217.520 C 243.802 217.194,244.248 217.322,245.088 217.920 C 245.768 218.404,246.515 218.800,246.749 218.800 C 246.983 218.800,247.074 219.063,246.951 219.384 C 246.789 219.807,246.958 219.924,247.563 219.807 C 248.023 219.718,248.400 219.816,248.400 220.023 C 248.400 220.230,248.668 220.400,248.995 220.400 C 249.323 220.400,249.959 220.715,250.408 221.100 C 250.858 221.485,251.355 221.804,251.513 221.808 C 252.195 221.827,255.148 223.760,254.960 224.065 C 254.846 224.249,255.168 224.406,255.676 224.413 C 256.704 224.427,258.123 225.342,257.927 225.863 C 257.857 226.048,258.070 226.218,258.400 226.242 C 259.551 226.325,260.789 226.894,260.575 227.241 C 260.456 227.433,260.638 227.484,260.979 227.353 C 261.321 227.222,261.600 227.309,261.600 227.547 C 261.600 227.785,262.405 228.347,263.388 228.795 C 264.372 229.243,265.381 229.992,265.631 230.459 C 266.000 231.148,266.159 231.204,266.473 230.754 C 266.773 230.326,266.907 230.314,267.064 230.700 C 267.175 230.975,267.612 231.200,268.033 231.200 C 268.471 231.200,268.800 231.476,268.800 231.843 C 268.800 232.250,269.020 232.401,269.400 232.255 C 269.821 232.094,270.002 232.289,270.006 232.913 C 270.011 233.632,270.086 233.687,270.400 233.200 C 270.738 232.678,270.954 232.882,270.867 233.641 C 270.852 233.773,271.281 233.797,271.820 233.694 C 272.631 233.539,272.805 233.670,272.832 234.453 C 272.849 234.974,272.954 235.175,273.065 234.900 C 273.176 234.625,273.541 234.400,273.876 234.400 C 274.244 234.400,274.397 234.630,274.263 234.980 C 274.116 235.364,274.233 235.485,274.610 235.341 C 274.923 235.221,275.469 235.411,275.822 235.765 C 276.175 236.118,276.630 236.305,276.832 236.180 C 277.035 236.055,277.200 236.059,277.200 236.189 C 277.200 236.319,276.795 236.601,276.300 236.815 C 275.551 237.139,275.618 237.165,276.700 236.970 C 277.870 236.760,278.609 237.323,277.613 237.667 C 277.400 237.740,277.683 238.014,278.242 238.276 C 279.114 238.685,279.190 238.670,278.780 238.176 C 278.398 237.716,278.429 237.600,278.931 237.600 C 279.277 237.600,279.736 237.914,279.950 238.297 C 280.165 238.680,280.459 238.875,280.604 238.730 C 280.749 238.584,281.209 238.758,281.625 239.114 C 282.198 239.605,282.263 239.849,281.892 240.114 C 281.588 240.330,281.821 240.373,282.500 240.225 C 283.105 240.093,283.600 240.135,283.600 240.318 C 283.600 240.501,284.230 240.898,285.000 241.200 C 285.770 241.502,286.400 241.896,286.400 242.075 C 286.400 242.254,286.535 242.379,286.700 242.353 C 287.609 242.209,288.061 242.463,287.855 243.001 C 287.658 243.513,287.771 243.507,288.612 242.955 C 289.155 242.599,289.600 242.059,289.600 241.754 C 289.600 241.449,289.780 241.200,290.000 241.200 C 290.220 241.200,290.400 241.010,290.400 240.778 C 290.400 239.618,295.209 233.261,299.400 228.881 C 302.989 225.130,303.596 224.130,302.260 224.173 C 301.685 224.191,301.399 223.958,301.397 223.470 C 301.393 222.621,300.181 221.784,299.814 222.378 C 299.363 223.108,298.480 222.381,298.717 221.474 C 298.933 220.644,298.909 220.635,298.249 221.294 C 297.590 221.953,297.511 221.949,296.707 221.199 C 296.240 220.765,295.518 220.301,295.101 220.168 C 294.619 220.015,294.429 219.702,294.580 219.307 C 294.784 218.778,294.724 218.765,294.170 219.225 C 293.620 219.681,293.465 219.660,293.141 219.081 C 292.932 218.706,292.521 218.400,292.229 218.400 C 291.937 218.400,291.474 218.130,291.200 217.800 C 290.926 217.470,290.364 217.200,289.951 217.200 C 289.538 217.200,289.200 217.020,289.200 216.800 C 289.200 216.580,288.885 216.394,288.500 216.387 C 287.738 216.373,286.400 215.495,286.400 215.009 C 286.400 214.843,286.760 214.801,287.201 214.916 C 287.641 215.031,287.900 214.962,287.777 214.763 C 287.440 214.217,286.002 214.327,285.987 214.900 C 285.980 215.176,285.702 215.042,285.365 214.600 C 285.030 214.160,284.495 213.853,284.178 213.918 C 283.860 213.982,283.600 213.847,283.600 213.618 C 283.600 213.388,283.311 213.200,282.957 213.200 C 282.583 213.200,282.401 212.975,282.521 212.662 C 282.668 212.277,282.454 212.177,281.763 212.309 C 281.187 212.419,280.800 212.304,280.800 212.023 C 280.800 211.764,280.632 211.656,280.428 211.783 C 280.223 211.909,279.930 211.810,279.776 211.562 C 279.623 211.314,279.720 210.973,279.991 210.805 C 280.343 210.588,280.358 210.421,280.043 210.226 C 279.799 210.076,279.600 210.143,279.600 210.376 C 279.600 210.609,279.285 210.797,278.900 210.794 C 278.302 210.789,278.287 210.731,278.800 210.400 C 279.255 210.106,279.086 210.011,278.100 210.006 C 277.385 210.003,276.800 209.820,276.800 209.600 C 276.800 209.380,276.575 209.245,276.300 209.300 C 276.025 209.355,275.825 209.087,275.855 208.704 C 275.885 208.322,275.746 208.110,275.545 208.234 C 275.117 208.498,272.800 207.544,272.800 207.102 C 272.800 206.936,272.665 206.838,272.500 206.885 C 271.963 207.037,270.371 205.970,270.595 205.608 C 270.715 205.414,270.602 205.125,270.345 204.966 C 270.035 204.775,269.984 204.851,270.194 205.190 C 270.567 205.794,270.501 205.772,267.292 204.200 C 265.281 203.215,264.878 202.856,265.047 202.200 C 265.204 201.587,265.161 201.533,264.860 201.968 C 264.416 202.612,262.176 201.486,262.585 200.824 C 262.815 200.452,261.898 200.000,260.914 200.000 C 260.573 200.000,257.933 198.626,255.047 196.947 C 250.043 194.035,248.504 193.148,246.355 191.938 C 245.830 191.642,245.310 191.310,245.200 191.200 C 245.090 191.090,244.280 190.626,243.400 190.170 C 241.327 189.094,239.851 188.251,239.600 187.999 C 239.490 187.889,238.905 187.544,238.300 187.232 C 237.695 186.920,237.200 186.444,237.200 186.175 C 237.200 185.906,236.921 185.578,236.579 185.447 C 236.184 185.296,236.059 185.372,236.235 185.656 C 236.557 186.177,236.513 186.161,233.495 184.653 C 232.233 184.022,231.200 183.238,231.200 182.910 C 231.200 182.518,230.972 182.402,230.532 182.571 C 230.165 182.712,229.760 182.678,229.632 182.497 C 229.504 182.315,228.772 181.869,228.004 181.506 L 226.609 180.845 227.604 180.421 C 228.427 180.071,228.288 180.041,226.809 180.249 C 225.182 180.478,225.068 180.441,225.562 179.846 C 226.034 179.277,226.007 179.203,225.353 179.284 C 224.253 179.420,221.155 177.894,221.374 177.324 C 221.485 177.033,221.328 176.929,220.980 177.063 C 220.631 177.197,220.400 177.045,220.400 176.680 C 220.400 176.256,220.140 176.143,219.533 176.302 C 218.865 176.476,218.720 176.386,218.903 175.910 C 219.080 175.448,218.942 175.342,218.360 175.495 C 217.867 175.624,217.297 175.373,216.811 174.813 C 216.388 174.325,215.852 174.044,215.618 174.189 C 215.385 174.333,215.086 174.169,214.954 173.825 C 214.822 173.481,214.404 173.200,214.024 173.200 C 213.644 173.200,213.198 173.065,213.033 172.900 C 212.868 172.735,212.613 172.599,212.467 172.597 C 211.933 172.591,210.353 171.280,210.672 171.108 C 210.852 171.011,210.768 170.989,210.484 171.059 C 210.005 171.178,208.457 170.498,208.000 169.968 C 207.890 169.840,207.215 169.481,206.500 169.170 C 205.785 168.859,205.200 168.384,205.200 168.115 C 205.200 167.823,204.932 167.728,204.536 167.880 C 204.009 168.082,203.918 167.956,204.098 167.267 C 204.254 166.671,204.181 166.489,203.863 166.688 C 203.174 167.119,202.400 167.175,202.400 166.794 C 202.400 166.610,202.625 166.382,202.900 166.288 C 203.175 166.194,203.006 166.181,202.525 166.260 C 202.043 166.339,201.537 166.222,201.401 166.001 C 200.500 164.544,200.400 167.996,200.400 200.600 M105.673 200.849 C 104.563 201.325,104.050 201.757,104.236 202.058 C 104.436 202.381,104.258 202.456,103.663 202.300 C 103.188 202.176,102.800 202.238,102.800 202.437 C 102.800 202.637,102.539 202.800,102.220 202.800 C 101.901 202.800,101.456 203.115,101.232 203.500 C 101.008 203.885,100.819 204.061,100.812 203.891 C 100.805 203.721,100.352 203.875,99.803 204.235 C 99.255 204.594,98.923 205.076,99.065 205.306 C 99.217 205.552,99.130 205.604,98.852 205.432 C 98.346 205.120,96.000 205.996,96.000 206.498 C 96.000 206.664,95.719 206.800,95.376 206.800 C 95.033 206.800,94.864 206.980,95.000 207.200 C 95.138 207.424,94.829 207.600,94.299 207.600 C 93.778 207.600,92.964 207.960,92.492 208.400 C 92.020 208.840,91.356 209.200,91.017 209.200 C 90.678 209.200,90.400 209.350,90.400 209.532 C 90.400 209.715,89.905 210.120,89.300 210.432 C 88.695 210.745,87.480 211.477,86.600 212.059 C 85.720 212.642,84.235 213.449,83.300 213.854 C 82.365 214.258,81.600 214.726,81.600 214.894 C 81.600 215.062,81.345 215.200,81.033 215.200 C 80.722 215.200,80.407 215.335,80.333 215.500 C 80.260 215.665,79.345 216.233,78.300 216.763 C 77.255 217.292,76.400 217.888,76.400 218.086 C 76.400 218.285,76.235 218.345,76.032 218.220 C 75.830 218.095,75.393 218.264,75.061 218.596 C 74.729 218.928,74.286 219.200,74.078 219.200 C 73.869 219.200,73.470 219.474,73.192 219.810 C 72.914 220.145,72.604 220.338,72.505 220.238 C 72.405 220.138,71.735 220.387,71.016 220.791 C 70.298 221.194,69.280 221.767,68.755 222.062 C 68.230 222.358,67.654 222.829,67.475 223.108 C 67.297 223.388,66.982 223.512,66.775 223.385 C 66.569 223.257,66.400 223.343,66.400 223.576 C 66.400 223.809,66.029 224.000,65.576 224.000 C 65.123 224.000,64.845 224.150,64.958 224.332 C 65.071 224.515,64.542 224.909,63.782 225.207 C 63.022 225.505,62.400 225.896,62.400 226.075 C 62.400 226.254,62.029 226.400,61.576 226.400 C 61.123 226.400,60.864 226.580,61.000 226.800 C 61.136 227.020,60.949 227.200,60.585 227.200 C 60.221 227.200,59.446 227.521,58.862 227.914 C 58.278 228.307,57.260 228.892,56.600 229.214 C 55.940 229.535,55.310 229.910,55.200 230.046 C 54.887 230.432,51.600 232.041,51.600 231.808 C 51.600 231.694,51.240 231.960,50.800 232.400 C 50.360 232.840,49.700 233.200,49.333 233.200 C 48.967 233.200,48.784 233.317,48.927 233.461 C 49.227 233.760,47.384 234.800,46.554 234.800 C 46.249 234.800,46.000 234.936,46.000 235.102 C 46.000 235.269,45.459 235.644,44.798 235.937 C 44.136 236.230,43.674 236.596,43.770 236.751 C 43.866 236.907,43.568 237.062,43.108 237.097 C 42.648 237.132,42.166 237.304,42.036 237.480 C 41.906 237.656,41.440 237.997,41.000 238.238 C 38.806 239.437,38.180 239.828,37.955 240.134 C 37.821 240.318,37.596 240.453,37.455 240.434 C 36.657 240.327,36.381 240.445,36.600 240.800 C 36.822 241.160,36.297 241.373,35.500 241.247 C 35.335 241.221,35.200 241.380,35.200 241.600 C 35.200 241.820,35.013 242.000,34.784 242.000 C 34.555 242.000,33.880 242.331,33.284 242.736 C 30.640 244.533,27.905 245.989,27.568 245.780 C 27.365 245.655,27.199 245.698,27.197 245.876 C 27.196 246.054,26.644 246.513,25.972 246.896 C 25.299 247.279,24.844 247.748,24.962 247.938 C 25.080 248.129,24.724 248.198,24.171 248.092 C 23.462 247.957,23.201 248.062,23.283 248.450 C 23.349 248.758,23.142 248.943,22.815 248.872 C 22.494 248.801,21.999 249.061,21.715 249.448 C 21.432 249.836,21.200 250.001,21.200 249.814 C 21.200 249.628,20.840 249.802,20.400 250.200 C 19.960 250.598,19.600 250.797,19.600 250.643 C 19.600 250.488,18.835 250.874,17.900 251.500 C 16.965 252.126,15.345 253.079,14.300 253.618 C 13.255 254.157,12.400 254.734,12.400 254.899 C 12.400 255.065,12.130 255.200,11.800 255.200 C 11.470 255.200,11.200 255.380,11.200 255.600 C 11.200 255.820,11.007 256.000,10.771 256.000 C 10.536 256.000,10.071 256.272,9.739 256.604 C 9.407 256.936,8.970 257.105,8.768 256.980 C 8.565 256.855,8.400 256.943,8.400 257.176 C 8.400 257.409,8.040 257.600,7.600 257.600 C 7.160 257.600,6.800 257.780,6.800 258.000 C 6.800 258.220,6.440 258.400,6.000 258.400 C 5.560 258.400,5.200 258.590,5.200 258.822 C 5.200 259.055,4.435 259.593,3.500 260.018 C 0.464 261.398,-0.149 262.082,0.163 263.743 C 0.313 264.544,0.608 265.200,0.818 265.200 C 1.028 265.200,1.200 265.470,1.200 265.800 C 1.200 266.130,1.380 266.400,1.600 266.400 C 1.820 266.400,2.000 266.681,2.000 267.024 C 2.000 267.367,2.180 267.536,2.400 267.400 C 2.620 267.264,2.800 267.523,2.800 267.976 C 2.800 268.429,2.980 268.800,3.200 268.800 C 3.420 268.800,3.600 269.061,3.600 269.379 C 3.600 269.698,4.047 270.441,4.593 271.030 C 5.138 271.619,5.488 272.258,5.369 272.450 C 5.250 272.643,5.347 272.800,5.585 272.800 C 5.823 272.800,6.235 273.295,6.502 273.900 C 6.769 274.505,7.476 275.469,8.074 276.043 C 8.672 276.616,9.215 277.332,9.281 277.633 C 9.420 278.275,10.412 279.400,10.838 279.400 C 11.000 279.400,11.283 279.564,11.467 279.764 C 11.660 279.976,11.590 280.008,11.300 279.841 C 10.321 279.277,10.820 280.346,12.000 281.339 C 12.660 281.894,13.200 282.528,13.200 282.747 C 13.200 282.967,13.560 283.260,14.000 283.400 C 14.440 283.540,14.800 283.784,14.800 283.943 C 14.800 284.344,17.779 287.600,18.146 287.600 C 18.309 287.600,19.019 288.139,19.722 288.798 C 20.425 289.457,21.219 289.997,21.486 289.998 C 21.753 289.999,22.165 290.360,22.400 290.800 C 22.635 291.240,23.092 291.600,23.414 291.600 C 23.736 291.600,24.000 291.780,24.000 292.000 C 24.000 292.220,24.236 292.400,24.525 292.400 C 24.813 292.400,25.398 292.725,25.825 293.122 C 26.251 293.520,27.172 294.098,27.871 294.407 C 28.570 294.717,29.055 295.112,28.948 295.285 C 28.840 295.458,29.033 295.600,29.376 295.600 C 29.719 295.600,30.000 295.810,30.000 296.067 C 30.000 296.323,30.120 296.413,30.268 296.266 C 30.415 296.119,30.859 296.291,31.254 296.649 C 31.660 297.016,32.329 297.207,32.787 297.087 C 33.235 296.970,33.507 297.027,33.391 297.214 C 33.276 297.401,33.861 297.870,34.691 298.256 C 35.521 298.642,36.332 299.148,36.494 299.379 C 36.656 299.611,36.791 299.655,36.794 299.477 C 36.797 299.300,37.295 299.423,37.900 299.751 C 38.838 300.259,40.370 300.726,41.498 300.847 C 41.664 300.864,42.127 301.054,42.526 301.267 C 43.266 301.664,44.601 302.037,45.500 302.099 C 45.775 302.118,46.000 302.260,46.000 302.416 C 46.000 302.571,46.855 302.805,47.900 302.936 C 48.945 303.068,50.790 303.384,52.000 303.641 C 54.924 304.260,71.115 304.418,71.738 303.833 C 71.992 303.595,72.966 303.426,73.902 303.458 C 74.839 303.490,75.704 303.355,75.826 303.158 C 75.948 302.961,76.749 302.800,77.608 302.800 C 78.466 302.800,79.391 302.562,79.663 302.271 C 79.935 301.979,80.551 301.816,81.032 301.908 C 81.513 302.000,82.028 301.878,82.177 301.638 C 82.325 301.397,82.876 301.200,83.400 301.200 C 83.924 301.200,84.461 301.025,84.593 300.811 C 84.726 300.597,85.591 300.228,86.517 299.992 C 88.339 299.527,93.316 297.193,93.533 296.702 C 93.607 296.536,93.990 296.400,94.384 296.400 C 94.779 296.400,95.303 296.157,95.549 295.861 C 95.795 295.564,96.808 294.988,97.798 294.579 C 98.789 294.170,99.600 293.693,99.600 293.518 C 99.600 293.343,99.855 293.200,100.167 293.200 C 100.478 293.200,100.793 293.065,100.867 292.900 C 100.940 292.735,102.035 292.067,103.300 291.416 C 104.565 290.764,105.600 290.089,105.600 289.916 C 105.600 289.742,105.735 289.619,105.900 289.643 C 106.585 289.742,107.974 289.082,107.772 288.755 C 107.651 288.560,107.791 288.400,108.082 288.400 C 108.625 288.400,111.641 286.899,112.000 286.450 C 112.110 286.312,112.920 285.842,113.800 285.404 C 114.680 284.966,115.540 284.389,115.711 284.121 C 115.881 283.853,116.248 283.720,116.525 283.826 C 116.802 283.933,117.391 283.700,117.834 283.310 C 118.683 282.563,119.872 281.820,121.700 280.897 C 122.305 280.591,122.800 280.175,122.800 279.971 C 122.800 279.767,122.935 279.619,123.100 279.643 C 123.704 279.730,125.200 279.097,125.200 278.753 C 125.200 278.559,125.560 278.400,126.000 278.400 C 126.440 278.400,126.800 278.250,126.800 278.068 C 126.800 277.885,127.295 277.480,127.900 277.168 C 128.505 276.855,129.240 276.373,129.532 276.096 C 129.825 275.819,130.230 275.695,130.432 275.820 C 130.635 275.945,130.800 275.901,130.800 275.721 C 130.800 275.542,131.385 275.141,132.100 274.830 C 132.815 274.519,133.490 274.159,133.600 274.031 C 134.062 273.492,138.123 271.184,138.995 270.965 C 139.516 270.835,140.039 270.474,140.159 270.164 C 140.278 269.854,140.629 269.600,140.938 269.600 C 141.248 269.600,141.724 269.332,141.996 269.004 C 142.268 268.677,142.626 268.493,142.792 268.595 C 142.958 268.697,143.411 268.430,143.800 268.000 C 144.189 267.570,144.677 267.324,144.885 267.453 C 145.094 267.581,145.530 267.307,145.855 266.843 C 146.180 266.380,146.857 266.000,147.361 266.000 C 147.864 266.000,148.602 265.640,149.000 265.200 C 149.398 264.760,149.951 264.400,150.229 264.400 C 150.506 264.400,150.793 264.265,150.867 264.100 C 151.034 263.724,153.164 262.425,154.100 262.129 C 154.485 262.007,154.800 261.748,154.800 261.553 C 154.800 261.359,155.160 261.200,155.600 261.200 C 156.040 261.200,156.400 261.020,156.400 260.800 C 156.400 260.580,156.771 260.400,157.224 260.400 C 157.677 260.400,157.936 260.220,157.800 260.000 C 157.664 259.780,157.833 259.600,158.176 259.600 C 158.519 259.600,158.800 259.420,158.800 259.200 C 158.800 258.980,159.160 258.800,159.600 258.800 C 160.040 258.800,160.400 258.633,160.400 258.428 C 160.400 258.223,160.805 257.994,161.300 257.918 C 161.795 257.843,162.151 257.547,162.090 257.261 C 162.030 256.975,162.149 256.845,162.354 256.972 C 162.560 257.099,164.050 256.428,165.664 255.480 C 167.279 254.533,169.185 253.520,169.900 253.230 C 170.615 252.940,171.200 252.545,171.200 252.351 C 171.200 252.158,171.470 252.000,171.800 252.000 C 172.130 252.000,172.400 251.832,172.400 251.626 C 172.400 251.420,173.030 251.024,173.800 250.746 C 174.570 250.467,175.200 250.095,175.200 249.920 C 175.200 249.744,175.560 249.600,176.000 249.600 C 176.440 249.600,176.800 249.420,176.800 249.200 C 176.800 248.980,177.081 248.800,177.424 248.800 C 177.767 248.800,177.936 248.620,177.800 248.400 C 177.664 248.180,177.896 248.000,178.314 248.000 C 178.733 248.000,179.377 247.668,179.744 247.262 C 180.111 246.856,181.129 246.287,182.006 245.998 C 182.883 245.709,183.600 245.321,183.600 245.136 C 183.600 244.951,183.870 244.800,184.200 244.800 C 184.530 244.800,184.800 244.620,184.800 244.400 C 184.800 244.180,184.350 244.000,183.800 244.000 C 183.250 244.000,182.800 243.850,182.800 243.668 C 182.800 243.485,182.305 243.080,181.700 242.768 C 181.095 242.456,180.510 242.111,180.400 242.001 C 180.161 241.761,176.969 240.005,175.703 239.417 C 175.210 239.187,174.805 238.865,174.803 238.700 C 174.801 238.535,174.636 238.400,174.435 238.400 C 174.234 238.400,171.399 236.846,168.135 234.946 C 164.871 233.046,161.390 231.044,160.400 230.496 C 159.410 229.949,157.970 229.119,157.200 228.651 C 154.194 226.827,153.375 226.370,152.700 226.142 C 152.315 226.013,152.000 225.781,152.000 225.628 C 152.000 225.475,151.370 225.102,150.600 224.800 C 149.830 224.498,149.200 224.104,149.200 223.925 C 149.200 223.746,149.017 223.600,148.793 223.600 C 148.569 223.600,147.200 222.880,145.752 222.000 C 144.303 221.120,143.062 220.400,142.994 220.400 C 142.925 220.400,140.199 218.846,136.935 216.946 C 131.315 213.675,129.788 212.795,127.555 211.538 C 127.030 211.242,126.510 210.910,126.400 210.800 C 126.200 210.600,123.390 209.069,121.703 208.240 C 121.210 207.998,120.805 207.665,120.803 207.500 C 120.801 207.335,120.630 207.200,120.421 207.200 C 120.213 207.200,118.908 206.529,117.521 205.709 C 116.135 204.889,114.460 203.900,113.800 203.512 C 113.140 203.124,111.430 202.199,110.000 201.457 L 107.400 200.107 105.673 200.849 " stroke="none" fill="#d4ccd4" fill-rule="evenodd"></path><path id="path2" d="M287.600 156.769 C 287.600 157.233,287.129 157.741,286.400 158.064 C 285.740 158.356,285.200 158.731,285.200 158.898 C 285.200 159.406,283.681 159.233,283.459 158.700 C 283.344 158.425,283.284 158.560,283.325 159.000 C 283.366 159.440,283.220 159.827,283.000 159.860 C 282.780 159.893,282.645 159.758,282.700 159.560 C 282.755 159.362,282.601 159.200,282.357 159.200 C 282.114 159.200,282.008 159.444,282.122 159.741 C 282.371 160.390,281.588 161.084,279.200 162.328 C 278.111 162.896,277.363 163.090,277.276 162.828 C 277.198 162.593,276.956 162.400,276.740 162.400 C 276.519 162.400,276.466 162.778,276.619 163.259 C 276.847 163.980,276.760 164.083,276.075 163.904 C 275.561 163.769,275.325 163.859,275.436 164.148 C 275.584 164.536,274.910 164.947,271.836 166.344 C 271.636 166.435,271.595 166.189,271.745 165.798 C 271.975 165.200,271.922 165.167,271.414 165.589 C 271.081 165.865,270.893 166.226,270.995 166.392 C 271.400 167.048,268.358 168.868,267.619 168.412 C 267.253 168.186,267.238 168.035,267.565 167.878 C 267.850 167.742,267.829 167.700,267.510 167.767 C 267.227 167.827,267.059 168.278,267.133 168.781 C 267.216 169.353,267.106 169.589,266.833 169.420 C 266.595 169.273,266.400 169.343,266.400 169.576 C 266.400 169.809,266.152 170.000,265.849 170.000 C 265.546 170.000,265.076 170.268,264.804 170.596 C 264.532 170.923,264.162 171.100,263.982 170.989 C 263.802 170.878,263.538 170.977,263.394 171.210 C 263.250 171.442,262.789 171.523,262.369 171.390 C 261.823 171.217,261.666 171.306,261.818 171.703 C 261.958 172.067,261.373 172.590,260.116 173.224 C 259.062 173.755,258.083 174.353,257.940 174.553 C 257.798 174.753,257.373 174.798,256.996 174.654 C 256.494 174.461,256.373 174.552,256.543 174.995 C 256.701 175.409,256.526 175.600,255.987 175.600 C 255.554 175.600,255.200 175.780,255.200 176.000 C 255.200 176.220,254.930 176.400,254.600 176.400 C 254.270 176.400,254.000 176.580,254.000 176.800 C 254.000 177.378,252.509 177.293,252.237 176.700 C 252.111 176.425,252.102 176.587,252.218 177.060 C 252.382 177.731,252.162 178.038,251.214 178.458 C 250.546 178.753,250.000 179.131,250.000 179.298 C 250.000 179.464,249.655 179.600,249.233 179.600 C 248.812 179.600,248.407 179.735,248.333 179.900 C 248.260 180.065,247.390 180.637,246.400 181.170 C 245.410 181.704,244.485 182.312,244.345 182.521 C 244.018 183.008,243.109 182.470,243.417 181.972 C 243.544 181.768,243.459 181.600,243.228 181.600 C 242.998 181.600,242.852 181.985,242.905 182.456 C 243.022 183.514,242.138 183.916,241.880 182.922 C 241.758 182.451,241.677 182.582,241.646 183.300 C 241.617 183.990,241.377 184.400,241.000 184.400 C 240.670 184.400,240.400 184.559,240.400 184.753 C 240.400 185.097,238.904 185.730,238.300 185.643 C 237.823 185.574,237.952 186.263,238.500 186.708 C 238.983 187.101,240.431 187.929,243.800 189.740 C 244.680 190.213,245.490 190.690,245.600 190.800 C 245.710 190.910,246.205 191.225,246.700 191.500 C 247.195 191.775,248.005 192.225,248.500 192.500 C 248.995 192.775,249.490 193.090,249.600 193.201 C 249.710 193.311,250.340 193.671,251.000 194.000 C 251.660 194.329,252.290 194.689,252.400 194.799 C 252.510 194.910,253.410 195.437,254.400 195.970 C 255.390 196.504,256.290 197.044,256.400 197.170 C 257.796 198.774,261.657 199.610,262.831 198.563 C 263.179 198.253,263.764 198.000,264.131 198.000 C 264.499 198.000,264.800 197.799,264.800 197.553 C 264.800 197.297,265.211 197.185,265.763 197.291 C 266.428 197.418,266.667 197.318,266.532 196.968 C 266.298 196.358,267.840 195.453,268.611 195.749 C 268.967 195.885,269.081 195.756,268.937 195.380 C 268.785 194.983,268.989 194.800,269.581 194.800 C 270.134 194.800,270.344 194.967,270.162 195.262 C 269.984 195.550,270.052 195.615,270.345 195.434 C 270.602 195.275,270.709 194.977,270.583 194.772 C 270.160 194.089,270.824 193.522,271.445 194.037 C 271.910 194.423,271.971 194.389,271.766 193.857 C 271.466 193.074,272.607 192.924,272.963 193.700 C 273.089 193.975,273.103 193.829,272.993 193.376 C 272.836 192.725,273.089 192.436,274.197 192.001 C 274.969 191.698,275.600 191.304,275.600 191.125 C 275.600 190.665,276.706 190.719,276.867 191.187 C 276.952 191.434,277.218 191.436,277.600 191.193 C 278.112 190.868,278.097 190.811,277.500 190.806 C 276.399 190.796,276.679 190.248,278.100 189.630 C 278.815 189.319,279.530 188.870,279.688 188.632 C 279.891 188.327,280.210 188.345,280.769 188.692 C 281.268 189.001,281.653 189.038,281.805 188.792 C 281.938 188.576,281.857 188.400,281.624 188.400 C 281.391 188.400,281.200 188.199,281.200 187.953 C 281.200 187.708,281.547 187.597,281.970 187.708 C 282.441 187.831,282.676 187.733,282.574 187.455 C 282.483 187.205,283.352 186.560,284.504 186.023 C 285.657 185.485,286.690 184.925,286.800 184.779 C 287.183 184.268,289.803 183.038,290.300 183.136 C 290.575 183.191,290.800 182.957,290.800 182.618 C 290.800 181.871,291.262 181.823,291.944 182.500 C 292.348 182.901,292.394 182.861,292.180 182.298 C 291.975 181.758,292.241 181.458,293.329 181.004 C 294.108 180.678,294.860 180.226,295.000 180.000 C 295.141 179.773,295.426 179.692,295.634 179.821 C 295.843 179.950,295.909 180.223,295.783 180.428 C 295.656 180.632,295.763 180.800,296.019 180.800 C 296.281 180.800,296.379 180.521,296.241 180.164 C 295.883 179.228,296.364 178.673,297.045 179.237 C 297.510 179.623,297.571 179.589,297.366 179.057 C 297.197 178.616,297.326 178.400,297.757 178.400 C 298.111 178.400,298.400 178.220,298.400 178.000 C 298.400 177.780,298.760 177.600,299.200 177.600 C 299.640 177.600,300.000 177.464,300.000 177.298 C 300.000 177.131,300.554 176.750,301.231 176.451 C 303.318 175.527,303.131 174.992,299.351 171.067 C 297.398 169.039,295.504 167.000,295.143 166.535 C 293.642 164.607,290.400 159.605,290.400 159.218 C 290.400 158.988,290.220 158.800,290.000 158.800 C 289.780 158.800,289.600 158.562,289.600 158.272 C 289.600 157.982,289.150 157.353,288.600 156.875 C 287.653 156.051,287.600 156.046,287.600 156.769 M278.500 161.212 C 278.005 161.411,277.600 161.764,277.600 161.996 C 277.600 162.230,278.046 162.126,278.600 161.763 C 279.150 161.403,279.600 161.039,279.600 160.954 C 279.600 160.767,279.617 160.763,278.500 161.212 " stroke="none" fill="#acacb4" fill-rule="evenodd"></path><path id="path3" d="M288.000 156.304 C 288.000 156.471,288.360 156.832,288.800 157.107 C 289.240 157.382,289.600 157.875,289.600 158.203 C 289.600 158.532,289.780 158.800,290.000 158.800 C 290.220 158.800,290.400 158.988,290.400 159.218 C 290.400 159.605,293.642 164.607,295.143 166.535 C 295.504 167.000,297.398 169.039,299.351 171.067 C 303.131 174.992,303.318 175.527,301.231 176.451 C 300.554 176.750,300.000 177.131,300.000 177.298 C 300.000 177.464,299.640 177.600,299.200 177.600 C 298.760 177.600,298.400 177.780,298.400 178.000 C 298.400 178.220,298.130 178.400,297.800 178.400 C 297.470 178.400,297.200 178.580,297.200 178.800 C 297.200 179.020,297.560 179.200,298.000 179.200 C 298.440 179.200,298.800 179.020,298.800 178.800 C 298.800 178.580,299.145 178.400,299.567 178.400 C 299.988 178.400,300.393 178.265,300.467 178.100 C 300.669 177.645,303.110 176.000,303.584 176.000 C 304.606 176.000,303.799 174.674,301.352 172.333 C 298.090 169.213,294.638 165.037,292.478 161.599 C 289.202 156.387,288.000 154.965,288.000 156.304 M286.729 156.925 C 286.438 157.213,285.615 157.707,284.900 158.022 C 284.185 158.337,283.600 158.711,283.600 158.852 C 283.600 159.082,280.896 160.546,280.400 160.585 C 280.290 160.594,279.640 161.001,278.955 161.489 C 278.270 161.977,277.595 162.262,277.455 162.122 C 277.315 161.981,277.200 162.167,277.200 162.533 C 277.200 162.900,277.273 163.200,277.362 163.200 C 277.768 163.200,281.078 161.329,281.760 160.714 C 282.179 160.336,282.675 160.123,282.863 160.239 C 283.052 160.356,283.314 160.169,283.446 159.825 C 283.578 159.481,284.026 159.200,284.443 159.200 C 284.859 159.200,285.200 159.064,285.200 158.898 C 285.200 158.731,285.740 158.356,286.400 158.064 C 287.060 157.772,287.600 157.278,287.600 156.966 C 287.600 156.263,287.405 156.254,286.729 156.925 M275.856 163.078 C 275.405 163.528,275.581 164.000,276.200 164.000 C 276.530 164.000,276.800 163.831,276.800 163.624 C 276.800 163.119,276.175 162.758,275.856 163.078 M274.100 164.106 C 273.605 164.335,273.200 164.685,273.200 164.885 C 273.200 165.084,273.040 165.149,272.845 165.028 C 272.452 164.785,271.368 165.901,271.686 166.220 C 271.842 166.375,274.587 165.162,275.573 164.503 C 276.156 164.113,274.847 163.760,274.100 164.106 M270.000 166.400 C 270.000 166.620,269.745 166.800,269.433 166.800 C 269.122 166.800,268.807 166.941,268.733 167.113 C 268.560 167.521,265.675 169.200,265.149 169.200 C 264.925 169.200,264.477 169.466,264.152 169.791 C 263.827 170.116,263.256 170.553,262.884 170.761 C 262.511 170.970,262.336 171.269,262.494 171.427 C 262.652 171.585,263.027 171.510,263.327 171.260 C 263.628 171.011,263.966 170.900,264.080 171.013 C 264.193 171.127,264.514 170.945,264.792 170.610 C 265.070 170.274,265.546 170.000,265.849 170.000 C 266.152 170.000,266.400 169.809,266.400 169.576 C 266.400 169.343,266.580 169.264,266.800 169.400 C 267.020 169.536,267.200 169.359,267.200 169.006 C 267.200 168.653,267.425 168.401,267.700 168.446 C 268.835 168.629,271.371 167.000,270.967 166.347 C 270.673 165.872,270.000 165.909,270.000 166.400 M260.800 172.000 C 260.800 172.220,260.440 172.400,260.000 172.400 C 259.560 172.400,259.200 172.536,259.200 172.702 C 259.200 172.869,258.660 173.244,258.000 173.536 C 257.340 173.828,256.800 174.232,256.800 174.434 C 256.800 174.872,257.876 174.929,258.067 174.500 C 258.140 174.335,259.055 173.767,260.100 173.237 C 261.997 172.276,262.534 171.600,261.400 171.600 C 261.070 171.600,260.800 171.780,260.800 172.000 M255.200 175.200 C 255.200 175.420,254.840 175.600,254.400 175.600 C 253.960 175.600,253.600 175.780,253.600 176.000 C 253.600 176.220,253.330 176.400,253.000 176.400 C 252.670 176.400,252.400 176.559,252.400 176.753 C 252.400 177.101,250.898 177.731,250.289 177.640 C 250.118 177.614,249.874 177.863,249.747 178.194 C 249.620 178.525,249.370 178.705,249.190 178.594 C 249.011 178.483,248.580 178.677,248.232 179.025 C 247.885 179.373,247.600 179.521,247.600 179.354 C 247.600 179.187,247.062 179.566,246.404 180.196 C 245.746 180.826,245.097 181.231,244.962 181.095 C 244.826 180.959,244.340 181.197,243.882 181.624 C 243.424 182.051,242.813 182.400,242.525 182.400 C 242.236 182.400,242.000 182.670,242.000 183.000 C 242.000 183.765,242.755 183.783,243.046 183.025 C 243.167 182.709,243.521 182.548,243.833 182.668 C 244.145 182.788,244.400 182.722,244.400 182.522 C 244.400 182.321,245.297 181.717,246.394 181.179 C 247.490 180.640,248.390 180.065,248.394 179.900 C 248.397 179.735,248.760 179.600,249.200 179.600 C 249.640 179.600,250.000 179.420,250.000 179.200 C 250.000 178.980,250.236 178.800,250.525 178.800 C 250.813 178.800,251.436 178.440,251.908 178.000 C 252.380 177.560,253.044 177.200,253.383 177.200 C 253.722 177.200,254.000 177.020,254.000 176.800 C 254.000 176.580,254.270 176.400,254.600 176.400 C 254.930 176.400,255.200 176.220,255.200 176.000 C 255.200 175.780,255.571 175.600,256.024 175.600 C 256.477 175.600,256.736 175.420,256.600 175.200 C 256.464 174.980,256.093 174.800,255.776 174.800 C 255.459 174.800,255.200 174.980,255.200 175.200 M296.155 179.372 C 296.024 179.715,295.767 179.904,295.586 179.791 C 295.404 179.679,295.141 179.773,295.000 180.000 C 294.860 180.226,294.128 180.670,293.373 180.986 C 291.971 181.571,291.519 182.400,292.600 182.400 C 292.930 182.400,293.200 182.220,293.200 182.000 C 293.200 181.780,293.478 181.600,293.817 181.600 C 294.156 181.600,294.820 181.240,295.292 180.800 C 295.764 180.360,296.387 180.000,296.675 180.000 C 297.295 180.000,297.373 179.354,296.797 178.998 C 296.576 178.861,296.287 179.030,296.155 179.372 M290.800 182.618 C 290.800 182.957,290.575 183.191,290.300 183.136 C 289.817 183.041,287.208 184.252,286.800 184.761 C 286.690 184.898,285.700 185.451,284.600 185.988 C 282.066 187.227,282.172 187.132,282.717 187.677 C 283.069 188.029,283.377 187.964,283.991 187.409 C 284.436 187.006,284.800 186.801,284.800 186.954 C 284.800 187.106,285.194 186.864,285.675 186.416 C 286.157 185.967,286.787 185.600,287.075 185.600 C 287.364 185.600,287.600 185.420,287.600 185.200 C 287.600 184.980,287.960 184.800,288.400 184.800 C 288.840 184.800,289.200 184.620,289.200 184.400 C 289.200 184.180,289.495 184.000,289.856 184.000 C 290.217 184.000,290.751 183.685,291.043 183.300 C 291.684 182.456,291.739 182.000,291.200 182.000 C 290.980 182.000,290.800 182.278,290.800 182.618 M240.309 183.672 C 240.223 183.932,239.533 184.352,238.776 184.606 C 236.980 185.208,236.750 186.432,238.282 187.222 C 238.897 187.539,239.490 187.889,239.600 187.999 C 239.851 188.251,241.327 189.094,243.400 190.170 C 244.280 190.626,245.090 191.090,245.200 191.200 C 245.310 191.310,245.830 191.642,246.355 191.938 C 248.504 193.148,250.043 194.035,255.047 196.947 C 260.600 200.178,261.132 200.343,262.946 199.398 C 263.576 199.069,264.258 198.800,264.462 198.800 C 264.666 198.800,265.220 198.440,265.692 198.000 C 266.164 197.560,266.787 197.200,267.075 197.200 C 267.364 197.200,267.600 197.020,267.600 196.800 C 267.600 196.580,267.996 196.400,268.480 196.400 C 269.153 196.400,269.250 196.290,268.891 195.931 C 268.355 195.395,266.400 196.070,266.400 196.791 C 266.400 197.016,266.040 197.200,265.600 197.200 C 265.160 197.200,264.800 197.380,264.800 197.600 C 264.800 197.820,264.499 198.000,264.131 198.000 C 263.764 198.000,263.179 198.253,262.831 198.563 C 261.657 199.610,257.796 198.774,256.400 197.170 C 256.290 197.044,255.390 196.504,254.400 195.970 C 253.410 195.437,252.510 194.910,252.400 194.799 C 252.290 194.689,251.660 194.329,251.000 194.000 C 250.340 193.671,249.710 193.311,249.600 193.201 C 249.490 193.090,248.995 192.775,248.500 192.500 C 248.005 192.225,247.195 191.775,246.700 191.500 C 246.205 191.225,245.710 190.910,245.600 190.800 C 245.490 190.690,244.680 190.213,243.800 189.740 C 240.431 187.929,238.983 187.101,238.500 186.708 C 237.952 186.263,237.823 185.574,238.300 185.643 C 238.904 185.730,240.400 185.097,240.400 184.753 C 240.400 184.559,240.670 184.400,241.000 184.400 C 241.330 184.400,241.600 184.130,241.600 183.800 C 241.600 183.092,240.538 182.987,240.309 183.672 M281.200 187.957 C 281.200 188.154,281.470 188.418,281.800 188.545 C 282.165 188.685,282.400 188.545,282.400 188.187 C 282.400 187.864,282.130 187.600,281.800 187.600 C 281.470 187.600,281.200 187.761,281.200 187.957 M279.600 188.725 C 279.600 188.904,278.970 189.298,278.200 189.600 C 277.430 189.902,276.800 190.296,276.800 190.475 C 276.800 190.654,276.530 190.800,276.200 190.800 C 275.870 190.800,275.600 190.946,275.600 191.125 C 275.600 191.304,274.970 191.698,274.200 192.000 C 273.430 192.302,272.800 192.696,272.800 192.875 C 272.800 193.054,272.530 193.200,272.200 193.200 C 271.870 193.200,271.600 193.380,271.600 193.600 C 271.600 193.820,271.870 194.000,272.200 194.000 C 272.530 194.000,272.800 193.820,272.800 193.600 C 272.800 193.380,273.087 193.200,273.438 193.200 C 274.092 193.200,276.494 191.680,276.733 191.114 C 276.807 190.942,277.212 190.800,277.633 190.800 C 278.055 190.800,278.400 190.620,278.400 190.400 C 278.400 190.180,278.760 190.000,279.200 190.000 C 279.640 190.000,280.000 189.820,280.000 189.600 C 280.000 189.380,280.281 189.200,280.624 189.200 C 280.967 189.200,281.136 189.020,281.000 188.800 C 280.704 188.321,279.600 188.262,279.600 188.725 M270.554 194.175 C 270.422 194.519,269.974 194.800,269.557 194.800 C 269.141 194.800,268.800 194.980,268.800 195.200 C 268.800 195.729,269.216 195.704,270.517 195.100 C 271.661 194.569,271.852 194.203,271.197 193.798 C 270.976 193.661,270.686 193.831,270.554 194.175 M220.600 223.850 C 219.881 224.462,219.734 224.705,220.233 224.457 C 220.966 224.093,222.341 222.776,221.949 222.814 C 221.867 222.822,221.260 223.288,220.600 223.850 M58.200 228.000 C 57.540 228.437,57.180 228.792,57.400 228.788 C 57.801 228.782,59.976 227.223,59.600 227.212 C 59.490 227.208,58.860 227.563,58.200 228.000 M28.900 244.888 C 28.405 245.127,28.000 245.479,28.000 245.670 C 28.000 245.862,28.450 245.724,29.000 245.363 C 30.467 244.402,30.416 244.157,28.900 244.888 " stroke="none" fill="#bdbabe" fill-rule="evenodd"></path><path id="path4" d="M58.900 95.876 C 59.285 95.976,59.915 95.976,60.300 95.876 C 60.685 95.775,60.370 95.693,59.600 95.693 C 58.830 95.693,58.515 95.775,58.900 95.876 M199.109 163.881 L 200.017 164.616 200.004 199.987 C 199.994 227.655,199.884 235.435,199.496 235.709 C 199.132 235.967,199.160 236.017,199.600 235.897 C 200.127 235.753,200.213 231.439,200.302 200.667 C 200.358 181.380,200.549 165.600,200.727 165.600 C 200.904 165.600,201.405 165.931,201.839 166.336 C 202.274 166.741,202.938 167.027,203.315 166.971 C 203.705 166.914,204.000 167.132,204.000 167.478 C 204.000 167.854,204.229 167.998,204.600 167.855 C 204.941 167.724,205.200 167.846,205.200 168.138 C 205.200 168.420,205.830 168.898,206.600 169.200 C 207.370 169.502,208.000 169.896,208.000 170.075 C 208.000 170.254,208.184 170.400,208.408 170.400 C 208.632 170.400,209.577 170.889,210.508 171.487 C 211.439 172.084,212.320 172.579,212.467 172.587 C 212.613 172.594,212.868 172.735,213.033 172.900 C 213.801 173.668,214.522 173.198,213.800 172.400 C 213.402 171.960,212.744 171.600,212.338 171.600 C 211.932 171.600,211.600 171.426,211.600 171.213 C 211.600 170.999,211.330 170.929,211.000 171.055 C 210.620 171.201,210.400 171.050,210.400 170.643 C 210.400 170.245,210.057 169.998,209.500 169.994 C 208.772 169.989,208.715 169.914,209.200 169.600 C 209.689 169.284,209.640 169.211,208.933 169.206 C 208.457 169.203,208.006 169.065,207.933 168.900 C 207.731 168.449,203.688 166.400,203.000 166.400 C 202.670 166.400,202.445 166.179,202.500 165.909 C 202.555 165.640,202.192 165.357,201.694 165.281 C 201.167 165.200,200.900 164.962,201.056 164.710 C 201.209 164.461,201.138 164.391,200.889 164.545 C 200.651 164.692,200.343 164.631,200.205 164.409 C 200.068 164.186,199.560 163.811,199.078 163.575 C 198.216 163.154,198.217 163.160,199.109 163.881 M385.800 168.800 C 385.402 169.240,385.166 169.600,385.277 169.600 C 385.387 169.600,385.893 169.240,386.400 168.800 C 386.907 168.360,387.143 168.000,386.923 168.000 C 386.704 168.000,386.198 168.360,385.800 168.800 M214.877 173.630 C 214.956 173.867,215.191 174.060,215.400 174.060 C 215.609 174.060,215.845 173.867,215.923 173.630 C 216.002 173.394,215.767 173.200,215.400 173.200 C 215.033 173.200,214.798 173.394,214.877 173.630 M216.400 174.229 C 216.400 174.698,217.565 175.600,218.171 175.600 C 218.517 175.600,218.800 175.780,218.800 176.000 C 218.800 176.220,219.070 176.400,219.400 176.400 C 220.316 176.400,220.114 175.730,219.100 175.403 C 218.605 175.244,218.065 175.133,217.900 175.157 C 217.735 175.181,217.600 174.930,217.600 174.600 C 217.600 174.270,217.330 174.000,217.000 174.000 C 216.670 174.000,216.400 174.103,216.400 174.229 M220.400 176.629 C 220.400 177.048,221.382 177.791,223.138 178.700 C 225.216 179.776,225.200 179.775,225.200 178.933 C 225.200 178.567,225.085 178.381,224.945 178.522 C 224.805 178.662,224.192 178.422,223.583 177.988 C 222.975 177.555,222.189 177.200,221.838 177.200 C 221.487 177.200,221.200 177.020,221.200 176.800 C 221.200 176.580,221.020 176.400,220.800 176.400 C 220.580 176.400,220.400 176.503,220.400 176.629 M225.400 180.000 C 225.264 180.220,225.523 180.400,225.976 180.400 C 226.429 180.400,226.800 180.220,226.800 180.000 C 226.800 179.780,226.541 179.600,226.224 179.600 C 225.907 179.600,225.536 179.780,225.400 180.000 M227.063 180.699 C 226.950 180.881,227.430 181.279,228.129 181.583 C 228.828 181.887,229.515 182.308,229.655 182.519 C 229.945 182.954,230.800 182.549,230.800 181.976 C 230.800 181.769,230.455 181.600,230.033 181.600 C 229.612 181.600,229.207 181.444,229.133 181.253 C 228.939 180.747,227.303 180.310,227.063 180.699 M231.200 182.953 C 231.200 183.257,232.233 184.022,233.495 184.653 C 236.590 186.200,236.681 186.229,236.051 185.465 C 235.749 185.099,235.224 184.800,234.884 184.800 C 234.545 184.800,234.384 184.683,234.527 184.540 C 234.887 184.180,233.560 183.228,232.676 183.213 C 232.278 183.206,232.064 183.020,232.200 182.800 C 232.336 182.580,232.167 182.400,231.824 182.400 C 231.481 182.400,231.200 182.649,231.200 182.953 M110.200 201.534 C 112.993 203.043,113.914 203.570,117.918 205.944 C 119.082 206.635,120.207 207.200,120.418 207.200 C 120.628 207.200,120.801 207.335,120.803 207.500 C 120.805 207.665,121.210 207.998,121.703 208.240 C 123.390 209.069,126.200 210.600,126.400 210.800 C 126.510 210.910,127.030 211.242,127.555 211.538 C 129.788 212.795,131.315 213.675,136.935 216.946 C 140.199 218.846,142.925 220.400,142.994 220.400 C 143.062 220.400,144.303 221.120,145.752 222.000 C 147.200 222.880,148.569 223.600,148.793 223.600 C 149.017 223.600,149.200 223.746,149.200 223.925 C 149.200 224.104,149.830 224.498,150.600 224.800 C 151.370 225.102,152.000 225.475,152.000 225.628 C 152.000 225.781,152.315 226.013,152.700 226.142 C 153.375 226.370,154.194 226.827,157.200 228.651 C 157.970 229.119,159.410 229.949,160.400 230.496 C 161.390 231.044,164.871 233.046,168.135 234.946 C 171.399 236.846,174.234 238.400,174.435 238.400 C 174.636 238.400,174.801 238.535,174.803 238.700 C 174.805 238.865,175.210 239.187,175.703 239.417 C 176.969 240.005,180.161 241.761,180.400 242.001 C 180.510 242.111,181.095 242.456,181.700 242.768 C 182.305 243.080,182.800 243.485,182.800 243.668 C 182.800 243.850,183.200 244.000,183.689 244.000 L 184.578 244.000 183.726 243.403 C 183.257 243.075,179.842 241.070,176.137 238.949 C 165.211 232.693,165.226 232.702,160.600 230.000 C 158.620 228.843,156.190 227.445,155.200 226.894 C 154.210 226.342,150.880 224.413,147.800 222.606 C 142.909 219.738,130.490 212.587,114.600 203.490 C 111.960 201.978,109.629 200.575,109.420 200.371 C 109.211 200.167,108.671 200.005,108.220 200.011 C 107.730 200.017,108.526 200.630,110.200 201.534 M262.613 200.779 C 262.314 201.263,264.321 202.620,264.712 202.199 C 264.871 202.030,264.772 201.809,264.493 201.710 C 264.214 201.610,263.730 201.273,263.418 200.961 C 263.084 200.627,262.753 200.552,262.613 200.779 M264.984 202.427 C 264.839 202.661,264.783 202.886,264.860 202.927 C 264.937 202.967,265.720 203.354,266.600 203.786 C 267.480 204.218,269.128 205.150,270.262 205.857 C 271.397 206.564,272.432 207.035,272.562 206.904 C 272.693 206.774,272.800 206.843,272.800 207.059 C 272.800 207.274,273.423 207.695,274.183 207.993 C 274.944 208.292,275.663 208.787,275.781 209.093 C 275.898 209.400,276.176 209.539,276.397 209.402 C 276.619 209.265,276.800 209.343,276.800 209.576 C 276.800 209.809,277.171 210.000,277.624 210.000 C 278.080 210.000,278.335 209.819,278.196 209.593 C 278.058 209.370,277.788 209.284,277.597 209.402 C 277.406 209.520,277.103 209.388,276.925 209.108 C 276.746 208.828,276.060 208.329,275.400 207.999 C 274.740 207.670,273.851 207.085,273.425 206.700 C 272.998 206.315,272.323 206.000,271.925 206.000 C 271.526 206.000,271.200 205.809,271.200 205.576 C 271.200 205.343,271.019 205.265,270.797 205.402 C 270.576 205.539,270.286 205.369,270.154 205.025 C 270.022 204.681,269.664 204.400,269.357 204.400 C 269.051 204.400,268.800 204.230,268.800 204.023 C 268.800 203.816,268.440 203.715,268.000 203.800 C 267.499 203.897,267.200 203.739,267.200 203.377 C 267.200 203.060,266.930 202.800,266.600 202.800 C 266.270 202.800,266.000 202.620,266.000 202.400 C 266.000 201.870,265.317 201.888,264.984 202.427 M278.800 210.690 C 279.130 210.815,279.546 211.165,279.725 211.467 C 279.903 211.769,280.218 211.912,280.425 211.785 C 280.631 211.657,280.800 211.743,280.800 211.976 C 280.800 212.209,281.160 212.400,281.600 212.400 C 282.040 212.400,282.400 212.580,282.400 212.800 C 282.400 213.020,282.670 213.200,283.000 213.200 C 283.330 213.200,283.600 213.399,283.600 213.643 C 283.600 213.886,283.867 213.983,284.194 213.858 C 284.550 213.721,284.968 213.966,285.237 214.469 C 285.576 215.102,285.765 215.181,286.007 214.789 C 286.386 214.175,285.540 213.200,284.629 213.200 C 284.283 213.200,284.000 213.009,284.000 212.776 C 284.000 212.543,283.835 212.455,283.632 212.580 C 283.430 212.705,282.948 212.491,282.561 212.104 C 282.174 211.717,281.754 211.385,281.629 211.366 C 281.503 211.348,280.893 211.123,280.274 210.866 C 279.655 210.610,278.935 210.414,278.674 210.432 C 278.413 210.449,278.470 210.565,278.800 210.690 M340.305 210.683 C 340.802 210.779,341.522 210.775,341.905 210.675 C 342.287 210.575,341.880 210.496,341.000 210.501 C 340.120 210.505,339.807 210.587,340.305 210.683 M84.224 213.013 C 83.796 213.336,83.627 213.600,83.847 213.600 C 84.067 213.600,84.596 213.336,85.024 213.013 C 85.451 212.690,85.620 212.425,85.400 212.425 C 85.180 212.425,84.651 212.690,84.224 213.013 M238.000 214.436 L 237.000 214.729 237.900 215.011 C 238.395 215.166,238.800 215.452,238.800 215.647 C 238.800 215.841,239.115 216.001,239.500 216.003 C 239.885 216.004,240.740 216.363,241.400 216.800 C 242.848 217.759,243.254 217.806,242.936 216.977 C 242.804 216.634,242.464 216.444,242.179 216.553 C 241.894 216.662,241.369 216.307,241.013 215.763 C 240.656 215.219,240.204 214.874,240.007 214.996 C 239.810 215.117,239.503 214.975,239.325 214.680 C 239.107 214.319,238.672 214.239,238.000 214.436 M286.400 215.029 C 286.400 215.499,287.753 216.374,288.500 216.387 C 288.885 216.394,289.200 216.580,289.200 216.800 C 289.200 217.020,289.538 217.200,289.951 217.200 C 290.364 217.200,290.926 217.470,291.200 217.800 C 291.474 218.130,291.937 218.400,292.229 218.400 C 292.521 218.400,292.930 218.703,293.136 219.072 C 293.478 219.682,293.571 219.686,294.138 219.119 C 294.706 218.551,294.659 218.472,293.630 218.266 C 293.007 218.141,292.226 217.768,291.894 217.437 C 290.760 216.303,286.400 214.392,286.400 215.029 M243.600 217.773 C 243.600 218.088,243.961 218.461,244.402 218.601 C 244.843 218.741,245.735 219.302,246.385 219.848 C 247.034 220.395,247.708 220.852,247.882 220.864 C 248.359 220.897,251.351 222.550,253.608 224.028 C 254.162 224.391,255.062 224.829,255.608 225.001 C 256.153 225.173,256.891 225.649,257.247 226.057 C 257.603 226.466,258.177 226.800,258.523 226.800 C 258.870 226.800,259.272 226.992,259.417 227.227 C 259.562 227.462,259.933 227.558,260.240 227.440 C 260.548 227.322,260.802 227.444,260.805 227.713 C 260.807 227.981,261.572 228.559,262.505 228.997 C 263.437 229.436,264.410 230.065,264.667 230.397 C 265.177 231.053,265.846 230.721,265.416 230.026 C 265.270 229.790,264.352 229.234,263.376 228.789 C 262.399 228.344,261.600 227.822,261.600 227.629 C 261.600 227.249,259.377 226.276,258.400 226.228 C 258.070 226.212,257.818 226.019,257.840 225.799 C 257.900 225.190,256.710 224.427,255.676 224.413 C 255.168 224.406,254.846 224.249,254.960 224.065 C 255.148 223.760,252.195 221.827,251.513 221.808 C 251.355 221.804,250.858 221.485,250.408 221.100 C 249.959 220.715,249.323 220.400,248.995 220.400 C 248.668 220.400,248.400 220.230,248.400 220.023 C 248.400 219.816,248.023 219.718,247.563 219.807 C 246.958 219.924,246.789 219.807,246.951 219.384 C 247.074 219.063,246.956 218.796,246.687 218.791 C 246.419 218.786,245.750 218.430,245.200 218.000 C 244.002 217.063,243.600 217.006,243.600 217.773 M294.400 219.534 C 294.400 219.690,295.030 220.157,295.800 220.572 C 296.570 220.987,297.200 221.472,297.200 221.650 C 297.200 221.829,297.470 221.871,297.800 221.745 C 298.130 221.618,298.400 221.354,298.400 221.157 C 298.400 220.961,298.130 220.800,297.800 220.800 C 297.470 220.800,297.200 220.620,297.200 220.400 C 297.200 220.180,297.065 220.021,296.900 220.047 C 296.168 220.163,295.569 219.973,295.749 219.683 C 295.856 219.509,295.597 219.340,295.172 219.308 C 294.748 219.276,294.400 219.378,294.400 219.534 M298.600 222.000 C 298.378 222.360,298.903 222.573,299.700 222.447 C 299.865 222.421,300.000 222.580,300.000 222.800 C 300.000 223.020,300.208 223.200,300.462 223.200 C 300.724 223.200,300.611 222.854,300.200 222.400 C 299.395 221.510,298.969 221.404,298.600 222.000 M301.287 223.662 C 301.386 223.958,301.787 224.262,302.179 224.338 C 302.635 224.427,302.828 224.282,302.713 223.938 C 302.614 223.642,302.213 223.338,301.821 223.262 C 301.365 223.173,301.172 223.318,301.287 223.662 M302.961 224.668 C 302.762 225.146,301.160 227.041,299.400 228.881 C 295.209 233.261,290.400 239.618,290.400 240.778 C 290.400 241.010,290.220 241.200,290.000 241.200 C 289.780 241.200,289.600 241.448,289.600 241.751 C 289.600 242.054,289.195 242.575,288.700 242.907 C 288.205 243.240,287.934 243.651,288.098 243.820 C 288.409 244.143,290.000 242.914,290.000 242.352 C 290.000 240.976,295.848 233.202,300.251 228.726 C 302.608 226.330,303.615 225.027,303.495 224.526 C 303.340 223.875,303.284 223.890,302.961 224.668 M266.400 231.000 C 266.400 231.330,266.636 231.600,266.925 231.600 C 267.213 231.600,267.836 231.960,268.308 232.400 C 269.323 233.345,270.000 233.430,270.000 232.613 C 270.000 232.255,269.765 232.115,269.400 232.255 C 269.020 232.401,268.800 232.250,268.800 231.843 C 268.800 231.467,268.468 231.200,268.000 231.200 C 267.560 231.200,267.200 231.020,267.200 230.800 C 267.200 230.580,267.020 230.400,266.800 230.400 C 266.580 230.400,266.400 230.670,266.400 231.000 M270.249 233.418 C 270.059 233.911,270.155 234.026,270.611 233.851 C 270.957 233.718,271.325 233.861,271.446 234.176 C 271.807 235.117,272.800 235.272,272.800 234.387 C 272.800 233.896,272.530 233.600,272.080 233.600 C 271.684 233.600,271.168 233.408,270.933 233.173 C 270.631 232.871,270.431 232.942,270.249 233.418 M273.200 234.957 C 273.200 235.582,274.278 236.123,274.836 235.778 C 275.036 235.654,275.200 235.730,275.200 235.947 C 275.200 236.164,275.768 236.625,276.461 236.971 C 277.948 237.713,278.000 237.720,278.000 237.200 C 278.000 236.980,277.719 236.800,277.376 236.800 C 277.007 236.800,276.869 236.612,277.038 236.338 C 277.207 236.064,277.149 235.985,276.894 236.142 C 276.658 236.288,276.175 236.118,275.822 235.765 C 275.469 235.411,274.923 235.221,274.610 235.341 C 274.233 235.485,274.116 235.364,274.263 234.980 C 274.401 234.622,274.240 234.400,273.843 234.400 C 273.489 234.400,273.200 234.651,273.200 234.957 M278.793 238.192 C 279.328 238.837,281.476 240.000,282.131 240.000 C 282.356 240.000,282.193 239.666,281.770 239.258 C 281.346 238.849,280.798 238.590,280.552 238.681 C 280.305 238.772,279.996 238.566,279.864 238.223 C 279.733 237.880,279.327 237.600,278.964 237.600 C 278.425 237.600,278.393 237.710,278.793 238.192 M194.000 238.800 C 193.493 239.240,193.240 239.596,193.439 239.591 C 193.978 239.578,195.872 238.019,195.361 238.009 C 195.120 238.004,194.507 238.360,194.000 238.800 M282.622 240.364 C 282.427 240.680,285.385 242.400,286.126 242.400 C 286.902 242.400,286.228 241.682,285.000 241.200 C 284.230 240.898,283.600 240.504,283.600 240.325 C 283.600 239.885,282.902 239.912,282.622 240.364 M286.639 242.294 C 286.158 242.776,286.420 243.200,287.200 243.200 C 287.640 243.200,288.000 243.039,288.000 242.843 C 288.000 242.393,286.960 241.974,286.639 242.294 " stroke="none" fill="#d4d4d4" fill-rule="evenodd"></path></g></svg>