<svg id="svg" version="1.1" xmlns="http://www.w3.org/2000/svg" xmlns:xlink="http://www.w3.org/1999/xlink" width="400" height="400" viewBox="0, 0, 400,400"><g id="svgg"><path id="path0" d="M73.100 0.287 C 72.495 0.378,72.000 0.621,72.000 0.827 C 72.000 1.032,71.370 1.200,70.600 1.200 C 69.830 1.200,69.200 1.380,69.200 1.600 C 69.200 1.820,68.795 2.003,68.300 2.006 C 67.649 2.011,67.549 2.106,67.938 2.353 C 68.330 2.602,68.168 2.770,67.338 2.976 C 66.712 3.130,65.677 3.739,65.038 4.329 C 64.399 4.918,64.013 5.162,64.180 4.870 C 64.432 4.432,64.339 4.431,63.642 4.867 C 63.179 5.156,62.800 5.649,62.800 5.963 C 62.800 6.277,62.691 6.424,62.557 6.291 C 62.240 5.974,61.229 6.909,61.466 7.300 C 61.565 7.465,61.356 7.600,61.000 7.600 C 60.644 7.600,60.460 7.774,60.592 7.987 C 60.723 8.200,60.464 8.603,60.016 8.883 C 59.567 9.163,59.200 9.669,59.200 10.008 C 59.200 10.346,58.850 10.876,58.421 11.185 C 57.993 11.493,57.734 11.893,57.845 12.073 C 57.956 12.253,57.767 12.400,57.424 12.400 C 56.874 12.400,56.591 13.141,56.763 14.130 C 56.794 14.311,56.635 14.345,56.410 14.206 C 56.184 14.067,56.000 14.233,56.000 14.576 C 56.000 14.919,55.820 15.200,55.600 15.200 C 55.380 15.200,55.242 15.335,55.294 15.500 C 55.453 16.010,54.283 20.425,53.931 20.643 C 53.437 20.948,53.508 380.000,54.002 380.000 C 54.221 380.000,54.400 380.362,54.400 380.805 C 54.400 381.248,54.565 381.923,54.767 382.305 C 55.313 383.341,56.093 385.530,56.015 385.813 C 55.978 385.949,56.319 386.383,56.774 386.777 C 57.228 387.171,57.600 387.798,57.600 388.171 C 57.600 388.543,57.780 388.736,58.000 388.600 C 58.220 388.464,58.400 388.498,58.400 388.676 C 58.401 388.996,59.474 390.367,61.396 392.500 C 61.941 393.105,62.293 393.600,62.178 393.600 C 62.063 393.600,62.201 393.851,62.484 394.158 C 62.768 394.465,63.135 394.634,63.300 394.534 C 63.465 394.435,63.600 394.554,63.600 394.800 C 63.600 395.046,63.781 395.135,64.003 394.998 C 64.225 394.861,64.688 395.030,65.032 395.374 C 65.376 395.719,65.520 396.000,65.352 396.000 C 64.693 396.000,66.645 397.175,67.324 397.187 C 67.722 397.194,67.936 397.380,67.800 397.600 C 67.664 397.820,67.926 398.000,68.382 398.000 C 68.838 398.000,69.523 398.159,69.905 398.353 C 70.287 398.548,71.122 398.953,71.761 399.253 C 73.766 400.198,329.600 400.059,329.600 399.113 C 329.600 398.941,330.028 398.800,330.551 398.800 C 331.074 398.800,331.724 398.532,331.996 398.204 C 332.268 397.877,332.650 397.707,332.845 397.828 C 333.040 397.949,333.200 397.857,333.200 397.624 C 333.200 397.391,333.571 397.200,334.024 397.200 C 334.477 397.200,334.736 397.020,334.600 396.800 C 334.464 396.580,334.635 396.400,334.980 396.400 C 335.325 396.400,336.172 395.860,336.863 395.200 C 337.554 394.540,338.278 394.000,338.473 394.000 C 339.025 394.000,341.103 391.735,341.395 390.815 C 341.540 390.360,341.825 390.092,342.029 390.218 C 342.233 390.344,342.400 390.167,342.400 389.824 C 342.400 389.481,342.580 389.200,342.800 389.200 C 343.020 389.200,343.200 388.880,343.200 388.488 C 343.200 388.097,343.560 387.517,344.000 387.200 C 344.440 386.883,344.800 386.293,344.800 385.888 C 344.800 385.484,344.980 385.264,345.200 385.400 C 345.540 385.610,345.804 384.491,345.647 383.500 C 345.621 383.335,345.780 383.200,346.000 383.200 C 346.220 383.200,346.400 382.761,346.400 382.224 C 346.400 381.687,346.580 381.136,346.800 381.000 C 347.020 380.864,347.200 380.054,347.200 379.200 C 347.200 378.346,347.379 377.537,347.597 377.402 C 347.858 377.240,347.995 326.537,347.998 228.983 L 348.003 80.809 313.302 80.667 C 280.367 80.532,275.600 80.391,275.600 79.556 C 275.600 79.360,275.240 79.200,274.800 79.200 C 274.360 79.200,274.000 79.020,274.000 78.800 C 274.000 78.580,273.744 78.400,273.432 78.400 C 272.689 78.400,269.364 75.065,268.502 73.456 C 266.783 70.247,266.812 70.915,266.806 34.700 L 266.800 0.000 170.500 0.060 C 117.535 0.093,73.705 0.195,73.100 0.287 " stroke="none" fill="#dcd4dc" fill-rule="evenodd"></path><path id="path1" d="M267.726 34.311 C 267.800 53.170,268.006 69.211,268.184 69.958 C 268.729 72.245,271.372 76.376,272.300 76.391 C 272.575 76.396,272.800 76.550,272.800 76.732 C 272.800 76.915,273.295 77.320,273.900 77.632 C 274.505 77.944,275.101 78.335,275.225 78.501 C 276.003 79.548,345.181 80.232,346.800 79.209 C 347.307 78.888,347.253 78.719,346.453 78.115 C 345.932 77.722,344.623 76.500,343.544 75.400 C 342.464 74.300,338.570 70.394,334.890 66.721 C 331.211 63.047,327.501 59.336,326.646 58.474 C 324.630 56.441,312.359 44.170,310.326 42.154 C 309.464 41.299,305.798 37.630,302.180 34.000 C 298.562 30.370,294.695 26.500,293.587 25.400 C 292.478 24.300,288.800 20.610,285.412 17.200 C 282.025 13.790,278.296 10.068,277.127 8.930 C 275.957 7.791,273.649 5.442,271.997 3.710 C 267.062 -1.467,267.571 -5.114,267.726 34.311 " stroke="none" fill="#94949c" fill-rule="evenodd"></path><path id="path2" d="M267.324 34.800 C 267.262 68.100,267.295 69.878,268.000 71.400 C 268.407 72.280,268.754 72.877,268.770 72.726 C 268.787 72.575,268.575 71.945,268.300 71.326 C 267.918 70.465,267.752 61.920,267.595 35.000 L 267.389 -0.200 267.324 34.800 M269.114 73.804 C 269.341 74.247,269.948 74.966,270.463 75.402 C 271.367 76.166,271.365 76.152,270.406 74.997 C 268.813 73.079,268.679 72.955,269.114 73.804 M272.061 77.162 C 273.428 78.238,276.393 79.740,276.647 79.486 C 276.764 79.369,276.442 79.142,275.930 78.982 C 275.419 78.821,274.248 78.175,273.328 77.545 C 271.448 76.257,270.575 75.994,272.061 77.162 M279.000 80.021 C 281.335 80.507,347.200 80.495,347.200 80.008 C 347.200 79.756,334.823 79.629,312.300 79.652 C 292.596 79.672,278.097 79.833,279.000 80.021 " stroke="none" fill="#b4b4b4" fill-rule="evenodd"></path><path id="path3" d="M267.634 68.800 C 267.646 69.130,267.811 69.760,268.000 70.200 L 268.344 71.000 268.366 70.200 C 268.378 69.760,268.213 69.130,268.000 68.800 C 267.655 68.267,267.615 68.267,267.634 68.800 M268.663 72.319 C 268.864 73.088,271.600 76.716,271.600 76.214 C 271.600 76.050,271.060 75.233,270.400 74.400 C 269.740 73.567,269.200 72.696,269.200 72.466 C 269.200 72.236,269.037 71.946,268.837 71.823 C 268.638 71.700,268.559 71.923,268.663 72.319 M276.446 79.237 C 276.751 79.430,277.810 79.576,278.800 79.562 C 280.933 79.532,280.555 79.340,277.846 79.076 C 276.642 78.959,276.105 79.021,276.446 79.237 " stroke="none" fill="#949c9c" fill-rule="evenodd"></path><path id="path4" d="M266.902 34.600 C 266.808 70.955,266.781 70.300,268.491 73.400 C 269.307 74.879,271.200 77.068,271.200 76.532 C 271.200 76.316,270.765 75.730,270.232 75.230 C 269.700 74.730,268.845 73.394,268.332 72.261 L 267.400 70.200 267.196 35.000 L 266.991 -0.200 266.902 34.600 M271.600 77.085 C 271.600 77.434,273.199 78.538,273.400 78.328 C 273.467 78.257,273.089 77.877,272.561 77.481 C 272.032 77.086,271.600 76.908,271.600 77.085 M275.600 79.655 C 275.600 79.845,276.050 80.000,276.600 80.000 C 277.150 80.000,277.600 79.931,277.600 79.847 C 277.600 79.762,277.150 79.607,276.600 79.502 C 276.050 79.397,275.600 79.466,275.600 79.655 M347.206 79.713 C 347.200 80.392,345.563 80.420,312.638 80.313 C 293.629 80.251,278.284 80.332,278.538 80.494 C 279.148 80.882,348.002 80.888,347.994 80.500 C 347.979 79.752,347.212 78.986,347.206 79.713 " stroke="none" fill="#cccccc" fill-rule="evenodd"></path></g></svg>