<svg id="svg" version="1.1" xmlns="http://www.w3.org/2000/svg" xmlns:xlink="http://www.w3.org/1999/xlink" width="400" height="400" viewBox="0, 0, 400,400"><g id="svgg"><path id="path0" d="M198.717 124.328 C 198.341 124.478,201.278 124.600,205.243 124.600 C 209.208 124.600,212.035 124.483,211.526 124.340 C 210.290 123.993,199.584 123.983,198.717 124.328 M193.200 125.218 C 192.762 125.515,192.924 125.552,193.800 125.356 C 195.271 125.027,195.590 124.798,194.567 124.806 C 194.145 124.809,193.530 124.995,193.200 125.218 M165.986 139.500 L 163.800 141.800 166.191 139.600 C 167.506 138.390,168.661 137.355,168.757 137.300 C 168.854 137.245,168.762 137.200,168.553 137.200 C 168.344 137.200,167.189 138.235,165.986 139.500 M222.200 148.278 C 221.100 149.294,220.560 149.932,221.000 149.695 C 221.762 149.286,224.753 146.383,224.378 146.416 C 224.280 146.425,223.300 147.263,222.200 148.278 M203.511 151.493 C 204.451 151.578,205.891 151.577,206.711 151.491 C 207.530 151.405,206.760 151.336,205.000 151.337 C 203.240 151.339,202.570 151.409,203.511 151.493 M197.400 152.010 C 196.866 152.247,197.198 152.286,198.400 152.127 C 199.390 151.996,200.275 151.824,200.367 151.744 C 200.714 151.443,198.164 151.672,197.400 152.010 M211.511 151.893 C 212.451 151.978,213.891 151.977,214.711 151.891 C 215.530 151.805,214.760 151.736,213.000 151.737 C 211.240 151.739,210.570 151.809,211.511 151.893 M158.101 153.400 C 158.105 154.280,158.187 154.593,158.283 154.095 C 158.379 153.598,158.375 152.878,158.275 152.495 C 158.175 152.113,158.096 152.520,158.101 153.400 M184.177 159.710 L 181.800 162.200 184.191 160.000 C 185.506 158.790,186.661 157.755,186.757 157.700 C 186.854 157.645,186.848 157.515,186.744 157.410 C 186.640 157.306,185.485 158.341,184.177 159.710 M162.276 163.244 C 162.758 163.770,163.748 164.543,164.476 164.962 C 166.141 165.921,165.917 165.677,163.400 163.788 C 162.222 162.905,161.760 162.681,162.276 163.244 M174.600 166.400 C 173.493 166.682,173.477 166.709,174.400 166.747 C 174.950 166.769,175.670 166.613,176.000 166.400 C 176.681 165.960,176.329 165.960,174.600 166.400 M120.800 170.856 C 115.109 171.564,109.323 172.737,104.454 174.169 C 103.274 174.516,101.699 174.800,100.954 174.800 C 100.209 174.800,99.600 174.999,99.600 175.243 C 99.600 175.486,99.335 175.584,99.012 175.460 C 98.688 175.336,98.161 175.496,97.840 175.817 C 97.519 176.138,96.784 176.400,96.205 176.400 C 95.503 176.400,95.249 176.556,95.442 176.868 C 95.635 177.181,95.515 177.253,95.077 177.085 C 94.717 176.947,94.161 177.096,93.840 177.417 C 93.161 178.096,92.632 178.195,93.018 177.570 C 93.165 177.333,92.918 177.369,92.468 177.651 C 92.019 177.931,91.735 178.295,91.837 178.459 C 91.938 178.624,91.675 178.692,91.253 178.610 C 90.830 178.529,90.113 178.808,89.659 179.231 C 89.205 179.654,88.370 180.000,87.804 180.000 C 87.110 180.000,86.656 180.293,86.412 180.900 C 86.213 181.395,86.039 181.544,86.025 181.230 C 86.007 180.817,85.746 180.899,85.074 181.530 C 84.565 182.009,83.826 182.400,83.431 182.400 C 82.984 182.400,82.795 182.609,82.927 182.955 C 83.080 183.354,82.906 183.448,82.308 183.292 C 81.741 183.144,81.566 183.222,81.761 183.537 C 81.937 183.821,81.768 184.005,81.324 184.013 C 80.481 184.029,78.800 185.328,78.800 185.964 C 78.800 186.204,78.557 186.400,78.259 186.400 C 77.962 186.400,77.184 186.895,76.532 187.500 C 75.879 188.105,75.098 188.656,74.798 188.725 C 74.497 188.794,73.948 189.199,73.578 189.625 C 73.209 190.051,72.672 190.400,72.386 190.400 C 72.101 190.400,71.976 190.509,72.109 190.643 C 72.426 190.960,71.491 191.971,71.100 191.734 C 70.935 191.635,70.800 191.756,70.800 192.005 C 70.800 192.702,69.607 193.796,69.575 193.129 C 69.561 192.838,69.387 193.005,69.188 193.500 C 68.989 193.995,68.539 194.400,68.189 194.400 C 67.839 194.400,67.664 194.580,67.800 194.800 C 67.936 195.020,67.737 195.200,67.357 195.200 C 66.977 195.200,66.778 195.311,66.914 195.448 C 67.203 195.736,66.448 196.568,65.593 196.904 C 65.162 197.073,65.219 197.150,65.800 197.184 C 66.398 197.219,66.264 197.377,65.272 197.808 C 64.541 198.126,64.057 198.568,64.195 198.793 C 64.334 199.017,64.187 199.200,63.870 199.200 C 63.312 199.200,62.492 200.211,61.210 202.479 C 60.400 203.911,58.494 206.000,57.997 206.000 C 57.779 206.000,57.600 206.360,57.600 206.800 C 57.600 207.240,57.420 207.600,57.200 207.600 C 56.980 207.600,56.800 207.861,56.800 208.180 C 56.800 208.499,56.573 208.904,56.296 209.080 C 55.611 209.515,53.600 212.659,53.600 213.295 C 53.600 213.577,53.240 214.032,52.800 214.307 C 52.360 214.582,52.000 215.176,52.000 215.627 C 52.000 216.151,51.831 216.343,51.532 216.158 C 51.222 215.966,51.146 216.083,51.308 216.505 C 51.443 216.855,51.293 217.357,50.976 217.620 C 50.659 217.883,50.400 218.357,50.400 218.673 C 50.400 218.989,50.220 219.136,50.000 219.000 C 49.780 218.864,49.578 219.123,49.550 219.576 C 49.456 221.132,48.841 222.473,48.359 222.174 C 48.162 222.053,48.046 222.369,48.101 222.877 C 48.164 223.467,48.009 223.760,47.670 223.690 C 47.379 223.630,47.251 223.759,47.387 223.978 C 47.522 224.197,47.351 224.922,47.006 225.588 C 46.661 226.255,46.486 226.800,46.617 226.800 C 46.748 226.800,46.438 227.384,45.930 228.099 C 45.421 228.813,45.061 229.641,45.129 229.939 C 45.210 230.293,45.071 230.370,44.727 230.163 C 44.340 229.931,44.351 230.032,44.768 230.546 C 45.258 231.150,45.258 231.228,44.768 231.123 C 44.455 231.055,44.245 231.225,44.300 231.500 C 44.355 231.775,44.259 232.000,44.087 232.000 C 43.915 232.000,43.734 232.485,43.685 233.078 C 43.636 233.670,43.389 234.283,43.136 234.439 C 42.883 234.596,42.692 235.284,42.711 235.969 C 42.731 236.654,42.579 237.111,42.373 236.984 C 42.168 236.857,42.000 237.314,42.000 238.000 C 42.000 238.686,41.858 239.160,41.685 239.052 C 41.512 238.945,41.330 239.340,41.281 239.929 C 41.233 240.518,41.015 241.060,40.797 241.133 C 40.578 241.207,40.400 241.576,40.400 241.953 C 40.400 242.331,40.175 242.882,39.900 243.179 C 39.500 243.610,39.500 243.661,39.900 243.435 C 40.175 243.280,40.400 243.343,40.400 243.576 C 40.400 243.809,40.220 244.000,40.000 244.000 C 39.780 244.000,39.600 244.551,39.600 245.224 C 39.600 245.937,39.433 246.344,39.200 246.200 C 38.980 246.064,38.800 246.287,38.800 246.696 C 38.800 247.105,38.575 247.682,38.300 247.979 C 37.900 248.410,37.900 248.461,38.300 248.235 C 38.997 247.841,38.924 248.639,38.154 249.814 C 37.799 250.356,37.641 250.800,37.803 250.800 C 37.965 250.800,37.873 251.071,37.598 251.403 C 37.322 251.734,37.079 252.713,37.056 253.577 C 37.033 254.448,36.881 254.937,36.714 254.674 C 36.548 254.413,36.409 255.145,36.406 256.300 C 36.403 257.455,36.264 258.400,36.098 258.400 C 35.932 258.400,35.601 259.023,35.363 259.784 C 35.125 260.544,35.080 261.074,35.265 260.960 C 35.449 260.846,35.600 260.943,35.600 261.176 C 35.600 261.409,35.431 261.600,35.225 261.600 C 34.833 261.600,34.782 261.959,34.800 264.600 C 34.806 265.640,34.689 266.015,34.463 265.671 C 34.047 265.035,33.489 268.445,33.854 269.396 C 33.983 269.734,33.912 270.233,33.694 270.505 C 33.067 271.291,33.053 277.660,33.678 278.056 C 34.090 278.318,34.093 278.389,33.691 278.394 C 33.302 278.399,33.322 278.615,33.774 279.304 C 34.173 279.913,34.243 280.402,33.989 280.804 C 33.677 281.297,33.611 281.302,33.606 280.833 C 33.603 280.522,33.498 280.369,33.372 280.494 C 33.170 280.696,33.873 282.273,34.400 282.800 C 34.820 283.220,34.844 284.474,34.427 284.217 C 34.192 284.071,34.000 284.143,34.000 284.376 C 34.000 284.609,34.180 284.800,34.400 284.800 C 34.620 284.800,34.803 285.295,34.806 285.900 C 34.811 286.757,34.898 286.868,35.200 286.400 C 35.538 285.878,35.746 287.121,35.574 288.630 C 35.559 288.757,35.919 289.183,36.374 289.577 C 36.828 289.971,37.200 290.667,37.200 291.123 C 37.200 291.580,37.380 292.064,37.600 292.200 C 37.820 292.336,38.000 292.795,38.000 293.220 C 38.000 293.645,38.360 294.218,38.800 294.493 C 39.240 294.768,39.600 295.320,39.600 295.720 C 39.600 296.120,39.780 296.336,40.000 296.200 C 40.220 296.064,40.400 296.233,40.400 296.576 C 40.400 296.919,40.580 297.200,40.800 297.200 C 41.020 297.200,41.200 297.478,41.200 297.818 C 41.200 298.546,43.005 300.462,43.358 300.109 C 43.491 299.976,43.600 300.347,43.600 300.933 C 43.600 301.885,43.963 302.195,44.900 302.047 C 45.065 302.021,45.200 302.195,45.200 302.433 C 45.200 303.000,49.227 307.030,49.663 306.900 C 49.849 306.845,50.000 306.974,50.000 307.187 C 50.000 307.401,50.277 307.468,50.616 307.338 C 51.004 307.190,51.189 307.300,51.116 307.636 C 51.052 307.930,51.405 308.355,51.900 308.580 C 52.395 308.805,52.800 309.127,52.800 309.295 C 52.800 309.463,53.160 309.600,53.600 309.600 C 54.040 309.600,54.400 309.780,54.400 310.000 C 54.400 310.220,54.760 310.400,55.200 310.400 C 55.640 310.400,56.000 310.580,56.000 310.800 C 56.000 311.020,56.281 311.200,56.624 311.200 C 56.967 311.200,57.133 311.384,56.994 311.610 C 56.855 311.835,56.889 311.994,57.070 311.963 C 57.890 311.820,58.829 312.029,58.652 312.315 C 58.545 312.488,58.940 312.670,59.529 312.719 C 60.118 312.767,60.660 312.985,60.733 313.203 C 60.807 313.422,61.101 313.600,61.388 313.600 C 61.674 313.600,62.424 313.868,63.054 314.195 C 63.684 314.522,64.538 314.683,64.950 314.552 C 65.440 314.397,65.605 314.468,65.426 314.757 C 65.154 315.199,65.871 315.369,67.344 315.214 C 67.753 315.170,67.991 315.291,67.873 315.482 C 67.649 315.845,68.379 315.966,70.922 315.990 C 71.827 315.998,72.345 316.165,72.199 316.402 C 72.048 316.645,72.709 316.800,73.896 316.800 C 74.965 316.800,76.082 317.025,76.379 317.300 C 76.810 317.700,76.861 317.700,76.635 317.300 C 76.444 316.962,76.658 316.800,77.296 316.800 C 77.815 316.800,78.482 317.025,78.779 317.300 C 79.210 317.700,79.261 317.700,79.035 317.300 C 78.810 316.902,83.152 316.819,100.276 316.895 L 121.800 316.989 100.800 317.200 L 79.800 317.411 101.124 317.505 C 115.261 317.568,122.364 317.465,122.200 317.200 C 121.850 316.633,122.536 316.703,123.179 317.300 C 123.504 317.602,123.616 317.619,123.461 317.342 C 122.957 316.442,124.909 316.391,158.807 316.430 C 182.784 316.456,193.370 316.337,193.936 316.034 C 194.382 315.795,195.151 315.600,195.645 315.600 C 196.139 315.600,197.096 315.432,197.772 315.227 C 198.447 315.022,199.810 314.641,200.800 314.382 C 203.371 313.706,205.478 312.863,209.000 311.100 C 217.556 306.818,224.734 299.710,228.720 291.570 C 229.644 289.683,230.400 287.874,230.400 287.550 C 230.400 287.225,230.551 286.789,230.736 286.580 C 230.920 286.371,231.295 285.120,231.569 283.800 C 231.842 282.480,232.231 280.645,232.433 279.723 C 232.913 277.528,232.904 271.272,232.416 269.106 C 232.205 268.168,231.831 266.320,231.584 265.000 C 231.076 262.286,230.514 259.660,230.000 257.600 C 229.808 256.830,229.442 255.300,229.187 254.200 C 228.932 253.100,228.582 251.750,228.408 251.200 C 228.235 250.650,227.866 249.390,227.589 248.400 C 223.090 232.320,213.949 213.583,205.740 203.616 C 201.127 198.014,195.414 192.288,190.452 188.292 C 183.163 182.423,169.196 175.575,160.400 173.558 C 159.630 173.381,158.190 173.046,157.200 172.813 C 154.648 172.214,151.057 171.573,147.800 171.137 C 143.861 170.610,124.408 170.407,120.800 170.856 M122.400 210.921 C 123.390 211.402,124.401 211.976,124.647 212.198 C 124.893 212.419,125.523 212.979,126.047 213.443 C 127.334 214.582,128.400 215.923,128.400 216.405 C 128.400 216.622,128.580 216.800,128.800 216.800 C 129.020 216.800,129.200 217.130,129.200 217.533 C 129.200 217.937,129.332 218.399,129.494 218.560 C 130.212 219.278,130.710 223.436,130.314 225.400 C 129.097 231.433,125.809 234.865,119.200 237.000 C 113.821 238.739,107.648 242.717,107.606 244.471 C 107.603 244.621,107.369 244.981,107.087 245.271 C 106.310 246.071,104.461 250.048,103.746 252.459 C 99.917 265.365,83.489 267.955,78.026 256.513 C 77.524 255.461,76.952 254.287,76.756 253.905 C 75.914 252.264,76.449 246.282,77.649 243.905 C 77.842 243.523,78.000 242.859,78.000 242.429 C 78.000 241.999,78.180 241.536,78.400 241.400 C 78.620 241.264,78.802 240.848,78.803 240.476 C 78.808 239.606,82.367 232.584,84.174 229.880 C 89.529 221.866,97.786 215.465,107.200 212.030 C 107.970 211.749,108.960 211.378,109.400 211.205 C 113.895 209.441,119.119 209.326,122.400 210.921 " stroke="none" fill="#cccccc" fill-rule="evenodd"></path><path id="path1" d="M198.600 125.037 C 194.886 125.317,186.318 127.289,185.420 128.070 C 185.211 128.251,184.811 128.400,184.530 128.400 C 179.514 128.400,163.120 141.413,159.996 147.875 C 158.744 150.465,158.295 155.454,159.166 157.105 C 159.368 157.487,159.828 158.478,160.188 159.306 C 161.864 163.158,167.067 166.400,171.572 166.400 C 175.448 166.400,178.752 164.780,182.114 161.232 C 190.424 152.462,199.295 149.361,210.753 151.220 C 217.214 152.269,225.600 147.265,225.600 142.362 C 225.600 141.969,225.780 141.536,226.000 141.400 C 226.545 141.063,226.507 136.304,225.949 134.919 C 223.758 129.478,221.535 127.325,216.400 125.672 C 214.978 125.215,202.255 124.761,198.600 125.037 M109.200 211.935 C 93.395 217.694,83.785 227.559,78.158 243.800 C 73.624 256.884,84.347 267.335,96.313 261.496 C 99.528 259.928,101.417 257.327,103.209 252.000 C 106.036 243.593,109.986 239.655,118.685 236.571 C 126.625 233.755,129.600 230.070,129.600 223.049 C 129.600 212.930,120.329 207.879,109.200 211.935 " stroke="none" fill="#acacac" fill-rule="evenodd"></path><path id="path2" d="M214.580 82.774 C 214.371 82.979,213.480 83.204,212.600 83.274 C 211.720 83.343,210.868 83.580,210.706 83.800 C 210.524 84.048,210.410 84.010,210.406 83.700 C 210.403 83.425,210.145 83.200,209.833 83.200 C 209.522 83.200,209.175 83.425,209.064 83.700 C 208.911 84.076,208.756 84.052,208.437 83.600 C 208.101 83.126,208.011 83.115,208.006 83.549 C 208.001 83.992,207.884 84.001,207.400 83.600 C 206.985 83.256,206.800 83.241,206.800 83.551 C 206.800 83.829,205.954 84.000,204.576 84.000 C 202.981 84.000,202.434 84.132,202.642 84.468 C 202.835 84.781,202.715 84.853,202.278 84.685 C 201.919 84.548,201.524 84.599,201.400 84.800 C 201.276 85.001,200.910 85.064,200.587 84.940 C 200.264 84.816,200.000 84.898,200.000 85.122 C 200.000 85.346,199.685 85.480,199.300 85.420 C 198.915 85.360,198.200 85.459,197.712 85.641 C 197.067 85.881,196.727 85.798,196.471 85.342 C 196.152 84.771,196.097 84.772,195.875 85.349 C 195.732 85.721,195.375 85.889,195.019 85.752 C 194.671 85.618,194.307 85.776,194.177 86.117 C 194.003 86.568,193.542 86.662,192.312 86.497 C 191.137 86.340,190.758 86.408,190.962 86.739 C 191.159 87.058,190.753 87.200,189.647 87.200 C 188.767 87.200,187.946 87.364,187.822 87.565 C 187.697 87.766,186.832 88.056,185.898 88.210 C 184.964 88.364,184.020 88.627,183.800 88.793 C 183.580 88.960,182.725 89.217,181.900 89.366 C 181.075 89.515,180.400 89.838,180.400 90.085 C 180.400 90.331,180.283 90.416,180.140 90.273 C 179.996 90.130,179.642 90.325,179.352 90.706 C 179.063 91.088,178.820 91.213,178.813 90.985 C 178.806 90.757,178.425 90.542,177.966 90.507 C 177.341 90.460,177.196 90.612,177.387 91.110 C 177.527 91.476,177.536 91.670,177.407 91.540 C 177.057 91.190,174.186 92.290,174.286 92.736 C 174.334 92.946,174.025 93.027,173.601 92.916 C 173.176 92.805,172.555 92.987,172.221 93.321 C 171.863 93.680,171.258 93.836,170.744 93.701 C 170.148 93.545,169.965 93.619,170.161 93.937 C 170.351 94.244,170.068 94.411,169.324 94.432 C 168.706 94.449,168.438 94.558,168.728 94.674 C 169.078 94.814,168.893 95.074,168.183 95.443 C 166.774 96.174,166.589 96.146,167.244 95.300 C 167.759 94.635,167.745 94.635,166.961 95.301 C 166.507 95.686,166.005 95.872,165.846 95.713 C 165.688 95.554,165.688 95.763,165.847 96.178 C 166.048 96.702,165.994 96.843,165.668 96.642 C 165.411 96.483,165.200 96.554,165.200 96.800 C 165.200 97.046,165.010 97.130,164.779 96.987 C 164.547 96.844,164.052 97.075,163.679 97.501 C 163.305 97.926,162.750 98.190,162.444 98.085 C 162.135 97.980,162.001 98.078,162.142 98.306 C 162.281 98.531,161.692 98.997,160.832 99.340 C 159.973 99.684,159.003 100.347,158.676 100.812 C 158.325 101.314,157.980 101.490,157.828 101.245 C 157.666 100.983,157.280 101.082,156.773 101.516 C 156.334 101.892,155.845 102.206,155.687 102.214 C 154.868 102.255,153.564 103.329,153.749 103.810 C 153.887 104.172,153.756 104.281,153.365 104.131 C 152.708 103.879,151.200 105.046,151.200 105.807 C 151.200 106.085,150.775 106.243,150.198 106.180 C 149.647 106.120,149.298 106.234,149.422 106.435 C 149.837 107.108,149.174 107.677,148.564 107.170 C 148.109 106.792,148.000 106.866,148.000 107.551 C 148.000 108.018,147.775 108.407,147.500 108.415 C 147.225 108.424,146.638 109.009,146.195 109.715 C 145.647 110.588,145.019 111.042,144.234 111.132 C 142.892 111.286,141.699 112.232,142.504 112.503 C 142.777 112.596,142.415 112.975,141.700 113.346 C 140.985 113.717,140.400 114.207,140.400 114.434 C 140.400 114.661,140.220 114.736,140.000 114.600 C 139.640 114.378,139.427 114.903,139.553 115.700 C 139.579 115.865,139.375 115.955,139.100 115.900 C 138.825 115.845,138.649 116.038,138.710 116.330 C 138.770 116.621,138.635 116.745,138.410 116.606 C 138.184 116.467,138.000 116.531,138.000 116.749 C 138.000 116.968,137.644 117.259,137.208 117.397 C 136.773 117.536,136.458 117.855,136.508 118.106 C 136.559 118.358,136.420 118.572,136.200 118.582 C 135.629 118.608,134.021 120.287,134.300 120.567 C 134.428 120.695,134.253 120.800,133.910 120.800 C 133.567 120.800,133.172 121.257,133.032 121.816 C 132.875 122.440,132.600 122.724,132.320 122.551 C 132.023 122.367,131.949 122.491,132.109 122.907 C 132.291 123.382,132.152 123.506,131.566 123.393 C 131.133 123.310,130.884 123.412,131.013 123.621 C 131.142 123.829,130.922 124.014,130.524 124.032 C 130.104 124.050,130.010 124.148,130.300 124.265 C 130.575 124.376,130.800 124.642,130.800 124.857 C 130.800 125.072,130.622 125.137,130.405 125.003 C 130.178 124.863,130.111 125.023,130.247 125.379 C 130.416 125.819,130.240 126.000,129.643 126.000 C 129.179 126.000,128.800 126.189,128.800 126.419 C 128.800 126.650,128.386 127.235,127.880 127.719 C 127.374 128.204,127.012 128.870,127.077 129.200 C 127.143 129.540,126.534 130.204,125.673 130.732 C 124.836 131.245,123.924 132.029,123.646 132.474 C 123.368 132.919,123.327 133.169,123.554 133.029 C 123.935 132.793,123.494 133.823,122.648 135.143 C 122.355 135.600,122.241 135.600,121.924 135.143 C 121.658 134.760,121.619 134.855,121.790 135.466 C 121.927 135.957,121.825 136.461,121.554 136.628 C 121.233 136.827,121.173 136.740,121.373 136.362 C 121.536 136.053,121.297 136.250,120.842 136.800 C 120.387 137.350,120.089 138.008,120.180 138.262 C 120.394 138.860,119.039 140.096,118.603 139.701 C 118.421 139.535,118.402 139.626,118.561 139.903 C 118.730 140.197,118.591 140.505,118.225 140.646 C 117.881 140.778,117.600 141.316,117.600 141.843 C 117.600 142.427,117.366 142.800,117.000 142.800 C 116.661 142.800,116.400 143.158,116.400 143.624 C 116.400 144.144,116.230 144.342,115.938 144.162 C 115.642 143.979,115.585 144.053,115.781 144.369 C 115.961 144.661,115.742 145.181,115.243 145.646 C 114.779 146.078,114.400 146.705,114.400 147.039 C 114.400 147.374,114.220 147.536,114.000 147.400 C 113.780 147.264,113.600 147.501,113.600 147.927 C 113.600 148.353,113.322 148.933,112.982 149.215 C 112.642 149.497,112.459 149.976,112.575 150.279 C 112.699 150.603,112.417 150.979,111.893 151.190 C 111.402 151.388,111.148 151.561,111.329 151.575 C 111.509 151.589,111.373 151.885,111.025 152.232 C 110.677 152.580,110.495 153.030,110.620 153.232 C 110.745 153.435,110.657 153.600,110.424 153.600 C 110.191 153.600,110.000 154.050,110.000 154.600 C 110.000 155.150,109.832 155.600,109.626 155.600 C 109.421 155.600,109.323 156.095,109.408 156.700 C 109.493 157.305,109.466 157.575,109.348 157.300 C 109.001 156.493,108.510 156.726,108.503 157.700 C 108.491 159.346,108.406 159.544,107.594 159.802 C 107.151 159.943,106.882 160.208,106.995 160.393 C 107.302 160.888,106.774 162.031,106.358 161.774 C 106.161 161.652,106.000 161.934,106.000 162.400 C 106.000 162.945,105.833 163.144,105.532 162.958 C 105.215 162.762,105.148 162.889,105.325 163.350 C 105.486 163.768,105.362 164.116,105.004 164.254 C 104.500 164.447,104.505 164.562,105.040 165.097 C 105.659 165.716,105.075 166.617,104.347 166.167 C 104.186 166.068,103.950 166.157,103.821 166.366 C 103.692 166.574,103.770 166.858,103.993 166.996 C 104.217 167.134,104.400 167.447,104.400 167.690 C 104.400 167.934,104.283 168.016,104.139 167.873 C 103.617 167.350,102.757 169.666,103.252 170.263 C 103.616 170.701,103.586 170.769,103.109 170.587 C 102.563 170.377,102.359 170.695,102.007 172.309 C 101.972 172.469,101.658 172.915,101.310 173.300 C 100.716 173.956,100.780 174.000,102.338 174.000 C 103.252 174.000,104.000 173.840,104.000 173.645 C 104.000 173.450,104.495 173.191,105.100 173.070 C 105.705 172.949,107.010 172.647,108.000 172.400 C 119.161 169.611,137.659 168.900,150.000 170.783 C 151.430 171.002,153.410 171.293,154.400 171.431 C 155.390 171.569,156.371 171.844,156.580 172.041 C 156.789 172.238,157.543 172.400,158.256 172.400 C 158.969 172.400,159.664 172.580,159.800 172.800 C 159.936 173.020,160.656 173.200,161.400 173.200 C 162.144 173.200,162.864 173.380,163.000 173.600 C 163.136 173.820,163.676 174.000,164.200 174.000 C 164.724 174.000,165.264 174.180,165.400 174.400 C 165.536 174.620,165.999 174.800,166.429 174.800 C 166.859 174.800,167.523 174.959,167.905 175.153 C 168.287 175.348,169.050 175.684,169.600 175.900 C 170.150 176.116,171.050 176.482,171.600 176.713 C 172.150 176.944,173.185 177.372,173.900 177.664 C 174.615 177.956,175.200 178.331,175.200 178.498 C 175.200 178.664,175.500 178.800,175.866 178.800 C 176.925 178.800,187.610 184.913,188.400 185.971 C 188.510 186.118,189.230 186.671,190.000 187.200 C 190.770 187.729,191.691 188.486,192.047 188.881 C 192.403 189.276,192.856 189.600,193.053 189.600 C 194.084 189.600,206.464 202.712,206.986 204.356 C 207.133 204.820,207.379 205.200,207.533 205.200 C 207.686 205.200,208.256 205.920,208.800 206.800 C 209.344 207.680,209.926 208.400,210.094 208.400 C 210.262 208.400,210.400 208.636,210.400 208.925 C 210.400 209.213,210.716 209.798,211.103 210.225 C 211.837 211.034,213.071 212.832,213.830 214.200 C 214.075 214.640,214.693 215.720,215.204 216.600 C 217.320 220.242,220.089 225.961,221.854 230.338 C 222.889 232.902,223.885 235.171,224.068 235.380 C 224.250 235.589,224.400 236.163,224.400 236.656 C 224.400 237.149,224.580 237.664,224.800 237.800 C 225.020 237.936,225.200 238.476,225.200 239.000 C 225.200 239.524,225.380 240.064,225.600 240.200 C 225.820 240.336,226.000 240.876,226.000 241.400 C 226.000 241.924,226.155 242.449,226.345 242.566 C 226.535 242.683,226.912 243.639,227.182 244.690 C 227.453 245.740,227.817 246.960,227.991 247.400 C 228.166 247.840,228.522 249.010,228.782 250.000 C 229.041 250.990,229.422 252.353,229.627 253.028 C 229.832 253.704,230.000 254.638,230.000 255.105 C 230.000 255.571,230.180 256.064,230.400 256.200 C 230.620 256.336,230.800 257.121,230.800 257.944 C 230.800 258.767,230.962 259.611,231.159 259.820 C 231.356 260.029,231.611 260.920,231.725 261.800 C 231.839 262.680,232.170 264.300,232.461 265.400 C 233.394 268.935,233.091 282.377,232.018 285.000 C 231.838 285.440,231.459 286.610,231.176 287.600 C 230.893 288.590,230.512 289.571,230.330 289.780 C 230.149 289.989,230.000 290.469,230.000 290.847 C 230.000 291.224,229.865 291.593,229.700 291.667 C 229.324 291.834,228.025 293.964,227.729 294.900 C 227.607 295.285,227.348 295.600,227.153 295.600 C 226.959 295.600,226.800 295.894,226.800 296.253 C 226.800 296.612,226.483 297.197,226.096 297.553 C 225.708 297.909,224.862 298.920,224.214 299.800 C 222.771 301.763,217.290 307.200,216.755 307.200 C 216.542 307.200,215.980 307.560,215.508 308.000 C 215.036 308.440,214.413 308.800,214.125 308.800 C 213.836 308.800,213.600 308.952,213.600 309.137 C 213.600 309.323,212.745 309.908,211.700 310.437 C 210.655 310.967,209.740 311.535,209.667 311.700 C 209.593 311.865,209.188 312.000,208.767 312.000 C 208.345 312.000,208.000 312.180,208.000 312.400 C 208.000 312.620,207.728 312.800,207.395 312.800 C 207.062 312.800,206.477 312.959,206.095 313.153 C 204.851 313.786,203.431 314.338,201.800 314.823 C 200.920 315.084,199.887 315.456,199.505 315.649 C 199.123 315.842,198.178 316.000,197.405 316.000 C 196.632 316.000,196.000 316.180,196.000 316.400 C 196.000 316.620,195.010 316.800,193.800 316.800 C 192.590 316.800,191.600 316.981,191.600 317.202 C 191.600 317.548,319.616 317.574,321.000 317.229 C 321.220 317.174,321.978 317.211,322.685 317.310 C 323.391 317.410,324.031 317.308,324.105 317.084 C 324.180 316.861,325.402 316.681,326.820 316.686 C 328.292 316.692,329.526 316.503,329.694 316.248 C 329.901 315.932,329.990 315.947,329.994 316.300 C 329.997 316.575,330.191 316.800,330.424 316.800 C 330.657 316.800,330.736 316.620,330.600 316.400 C 330.360 316.012,331.240 315.846,333.113 315.926 C 333.615 315.947,333.919 315.793,333.789 315.583 C 333.659 315.372,333.833 315.200,334.176 315.200 C 334.519 315.200,334.800 315.020,334.800 314.800 C 334.800 314.580,334.935 314.421,335.100 314.447 C 335.985 314.587,337.594 314.359,337.553 314.100 C 337.429 313.319,337.652 313.145,338.195 313.596 C 338.677 313.996,338.838 313.967,339.038 313.445 C 339.174 313.090,339.457 312.800,339.666 312.800 C 339.876 312.800,339.916 313.025,339.755 313.300 C 339.594 313.575,339.847 313.463,340.316 313.051 C 340.786 312.640,341.445 312.408,341.781 312.537 C 342.204 312.700,342.473 312.449,342.655 311.723 C 342.878 310.835,342.987 310.768,343.364 311.284 C 343.721 311.772,343.904 311.793,344.281 311.389 C 344.540 311.112,344.643 310.776,344.509 310.643 C 344.376 310.509,344.565 310.400,344.929 310.400 C 345.715 310.400,347.237 309.184,346.978 308.764 C 346.878 308.602,347.251 308.520,347.807 308.581 C 348.557 308.663,348.990 308.401,349.483 307.568 C 349.848 306.949,350.297 306.536,350.480 306.649 C 350.663 306.763,350.692 307.051,350.545 307.289 C 350.382 307.552,350.463 307.608,350.749 307.432 C 351.009 307.271,351.171 306.838,351.111 306.470 C 351.041 306.048,351.235 305.838,351.635 305.903 C 351.989 305.960,352.473 305.557,352.731 304.991 C 352.985 304.434,353.510 303.866,353.897 303.729 C 354.705 303.444,356.400 301.660,356.400 301.095 C 356.400 300.886,356.661 300.814,356.980 300.937 C 357.375 301.088,357.486 300.967,357.328 300.556 C 357.177 300.163,357.392 299.875,357.944 299.731 C 358.410 299.609,358.692 299.350,358.572 299.155 C 358.451 298.960,358.678 298.797,359.076 298.794 C 359.690 298.789,359.709 298.729,359.200 298.400 C 358.800 298.142,358.767 298.010,359.100 298.006 C 359.375 298.003,359.600 297.758,359.600 297.461 C 359.600 297.165,360.005 296.709,360.500 296.449 C 361.156 296.104,361.189 296.038,360.622 296.205 C 359.887 296.422,359.881 296.394,360.522 295.686 C 360.895 295.274,361.200 294.716,361.200 294.445 C 361.200 294.174,361.360 294.051,361.555 294.172 C 361.872 294.368,362.235 293.640,362.613 292.048 C 362.686 291.744,362.963 291.294,363.231 291.048 C 363.600 290.708,363.640 290.736,363.397 291.162 C 363.177 291.547,363.228 291.630,363.558 291.426 C 363.918 291.203,363.925 290.992,363.585 290.582 C 363.015 289.895,363.430 289.160,364.217 289.462 C 364.653 289.629,364.737 289.502,364.537 288.979 C 364.365 288.531,364.419 288.364,364.682 288.527 C 364.945 288.690,365.063 288.340,364.999 287.587 C 364.943 286.927,365.054 286.290,365.246 286.171 C 365.438 286.053,365.795 285.584,366.038 285.129 C 366.394 284.464,366.375 284.367,365.940 284.629 C 365.501 284.893,365.493 284.838,365.897 284.340 C 366.170 284.003,366.275 283.608,366.130 283.463 C 365.985 283.318,366.042 283.200,366.256 283.200 C 366.470 283.200,366.635 282.705,366.622 282.100 C 366.610 281.495,366.795 281.035,367.033 281.078 C 367.297 281.125,367.454 280.431,367.433 279.306 C 367.415 278.289,367.593 277.264,367.830 277.027 C 368.066 276.791,368.186 275.968,368.097 275.199 C 367.928 273.743,367.930 273.035,368.109 268.933 C 368.169 267.576,368.100 266.538,367.956 266.627 C 367.812 266.716,367.684 266.058,367.672 265.165 C 367.659 264.272,367.413 263.250,367.125 262.894 C 366.803 262.497,366.781 262.355,367.069 262.528 C 367.773 262.950,367.482 260.423,366.775 259.976 C 366.298 259.674,366.315 259.611,366.876 259.606 C 367.471 259.601,367.489 259.478,367.029 258.590 C 366.740 258.035,366.547 256.872,366.600 256.008 C 366.652 255.143,366.583 254.449,366.447 254.465 C 365.715 254.553,365.552 254.339,365.970 253.836 C 366.262 253.484,366.292 253.181,366.050 253.031 C 365.836 252.899,365.740 252.156,365.836 251.380 C 365.933 250.604,365.785 249.571,365.508 249.084 C 365.231 248.598,364.979 247.660,364.948 247.000 C 364.809 244.056,364.406 241.086,364.088 240.662 C 363.612 240.028,363.559 238.328,364.024 238.615 C 364.231 238.743,364.400 238.657,364.400 238.424 C 364.400 238.191,364.175 238.000,363.900 238.000 C 363.625 238.000,363.363 237.595,363.317 237.100 C 362.954 233.169,362.779 232.193,362.416 232.072 C 361.854 231.885,361.883 230.400,362.449 230.400 C 362.766 230.400,362.757 230.230,362.417 229.821 C 362.153 229.502,361.903 228.557,361.863 227.721 C 361.823 226.884,361.615 225.930,361.401 225.600 C 361.187 225.270,361.001 224.640,360.988 224.200 C 360.975 223.760,360.784 223.433,360.564 223.473 C 360.329 223.515,360.189 222.575,360.225 221.193 C 360.262 219.745,360.109 218.774,359.827 218.666 C 359.576 218.569,359.392 217.978,359.419 217.351 C 359.447 216.725,359.260 216.003,359.004 215.747 C 358.749 215.491,358.590 214.634,358.653 213.841 C 358.716 213.036,358.582 212.400,358.350 212.400 C 358.121 212.400,358.008 212.177,358.099 211.904 C 358.190 211.631,358.025 211.168,357.732 210.875 C 357.439 210.582,357.203 210.131,357.206 209.871 C 357.210 209.595,357.373 209.648,357.600 210.000 C 357.931 210.513,357.989 210.498,357.994 209.900 C 357.997 209.515,357.741 209.200,357.424 209.200 C 357.107 209.200,356.717 208.989,356.558 208.732 C 356.357 208.408,356.497 208.352,357.012 208.549 C 357.735 208.827,357.735 208.812,357.016 208.017 C 356.455 207.398,356.412 207.199,356.838 207.194 C 357.315 207.189,357.316 207.135,356.846 206.837 C 356.499 206.617,356.381 206.131,356.529 205.540 C 356.660 205.019,356.577 204.325,356.346 203.997 C 356.007 203.517,355.971 203.557,356.163 204.200 C 356.401 204.998,356.400 204.998,355.787 204.205 C 355.417 203.725,355.337 203.354,355.586 203.271 C 356.201 203.066,356.091 201.200,355.464 201.200 C 355.122 201.200,354.954 200.774,354.999 200.018 C 355.042 199.302,354.840 198.748,354.489 198.613 C 354.139 198.479,353.992 198.075,354.117 197.595 C 354.232 197.157,354.162 196.900,353.963 197.023 C 353.763 197.146,353.578 196.967,353.550 196.624 C 353.471 195.644,353.411 195.437,353.032 194.838 C 352.788 194.452,352.821 194.366,353.138 194.562 C 353.412 194.731,353.600 194.593,353.600 194.224 C 353.600 193.881,353.375 193.645,353.100 193.700 C 352.811 193.758,352.654 193.487,352.727 193.057 C 352.798 192.644,352.479 192.050,352.008 191.721 C 351.371 191.274,351.269 190.998,351.598 190.603 C 351.866 190.279,351.884 190.025,351.645 189.939 C 351.431 189.863,351.198 189.260,351.128 188.600 C 351.058 187.940,350.820 187.268,350.600 187.106 C 350.364 186.933,350.441 186.810,350.789 186.806 C 351.175 186.802,351.063 186.579,350.462 186.158 C 349.958 185.806,349.636 185.283,349.746 184.997 C 349.855 184.712,349.693 184.145,349.385 183.739 C 349.077 183.332,348.820 182.631,348.813 182.180 C 348.806 181.729,348.575 181.118,348.300 180.821 C 347.900 180.390,347.900 180.339,348.300 180.565 C 349.098 181.016,348.881 180.453,347.813 179.301 C 347.123 178.557,346.895 177.960,347.056 177.318 C 347.221 176.662,347.113 176.400,346.679 176.400 C 346.265 176.400,346.106 176.076,346.182 175.387 C 346.243 174.830,346.200 174.466,346.087 174.580 C 345.974 174.693,345.532 174.384,345.105 173.893 C 344.387 173.067,344.380 172.989,345.022 172.859 C 345.466 172.770,345.555 172.619,345.268 172.442 C 345.022 172.290,344.757 171.753,344.680 171.250 C 344.527 170.246,343.658 169.517,343.057 169.888 C 342.848 170.018,342.807 169.913,342.966 169.655 C 343.125 169.398,343.393 169.272,343.561 169.376 C 343.729 169.480,343.867 169.313,343.867 169.005 C 343.867 168.697,343.762 168.456,343.633 168.470 C 342.791 168.560,342.465 168.303,342.591 167.646 C 342.671 167.231,342.277 166.216,341.716 165.390 C 341.154 164.564,340.934 164.036,341.226 164.216 C 341.518 164.397,341.362 163.989,340.879 163.310 C 340.395 162.632,340.000 161.800,340.000 161.462 C 340.000 161.124,339.817 160.734,339.593 160.596 C 339.370 160.458,339.279 160.196,339.391 160.014 C 339.504 159.833,339.315 159.576,338.972 159.445 C 338.630 159.313,338.461 159.024,338.598 158.803 C 338.735 158.581,338.673 158.400,338.461 158.400 C 338.249 158.400,338.164 157.995,338.272 157.500 C 338.413 156.858,338.361 156.753,338.090 157.134 C 337.654 157.748,337.013 156.626,337.422 155.964 C 337.546 155.764,337.462 155.600,337.236 155.600 C 337.010 155.600,336.940 155.300,337.081 154.934 C 337.247 154.501,337.180 154.365,336.888 154.546 C 336.638 154.700,336.237 154.442,335.980 153.963 C 335.661 153.367,335.655 153.187,335.960 153.375 C 336.731 153.852,336.436 153.323,335.181 151.980 C 334.511 151.262,334.055 150.433,334.169 150.138 C 334.282 149.842,334.201 149.600,333.987 149.600 C 333.774 149.600,333.597 149.285,333.594 148.900 C 333.589 148.295,333.529 148.282,333.159 148.800 C 332.817 149.279,332.771 149.214,332.934 148.477 C 333.095 147.745,333.027 147.645,332.607 147.994 C 332.185 148.344,332.094 148.191,332.160 147.242 C 332.205 146.587,332.098 146.140,331.921 146.249 C 331.745 146.358,331.578 146.257,331.550 146.024 C 331.523 145.791,331.473 145.375,331.441 145.100 C 331.409 144.825,331.026 144.662,330.591 144.738 C 330.156 144.814,329.929 144.745,330.086 144.585 C 330.394 144.272,328.675 141.093,327.511 139.825 C 327.120 139.398,326.800 138.633,326.800 138.125 C 326.800 137.616,326.665 137.236,326.500 137.279 C 325.880 137.443,324.398 136.728,324.618 136.371 C 324.744 136.167,324.646 136.000,324.400 136.000 C 324.154 136.000,324.064 135.820,324.200 135.600 C 324.336 135.380,324.236 135.200,323.977 135.200 C 323.696 135.200,323.581 134.813,323.691 134.237 C 323.806 133.634,323.709 133.337,323.431 133.443 C 323.187 133.537,322.720 133.213,322.393 132.723 C 322.067 132.233,321.305 131.316,320.700 130.685 C 319.487 129.420,319.221 128.789,320.265 129.651 C 320.835 130.122,320.902 130.114,320.734 129.600 C 320.626 129.270,320.133 128.941,319.638 128.868 C 319.070 128.785,318.816 128.535,318.949 128.189 C 319.072 127.868,318.814 127.531,318.327 127.377 C 317.670 127.168,317.611 127.038,318.047 126.762 C 318.459 126.502,318.370 126.411,317.700 126.406 C 317.154 126.402,316.800 126.155,316.800 125.776 C 316.800 125.384,316.615 125.264,316.300 125.453 C 315.907 125.690,315.908 125.621,316.305 125.130 C 316.720 124.617,316.685 124.408,316.105 123.953 C 315.453 123.442,315.443 123.461,315.971 124.200 C 316.286 124.640,315.465 123.920,314.147 122.600 C 312.829 121.280,311.836 120.034,311.941 119.832 C 312.046 119.630,311.837 119.577,311.478 119.715 C 310.648 120.033,310.114 119.226,310.849 118.761 C 311.385 118.421,310.870 118.199,309.900 118.353 C 309.735 118.379,309.600 118.130,309.600 117.800 C 309.600 117.470,309.311 117.200,308.957 117.200 C 308.552 117.200,308.399 116.980,308.543 116.605 C 308.668 116.277,308.643 116.029,308.486 116.052 C 307.661 116.175,307.181 115.912,306.749 115.100 C 306.297 114.252,306.313 114.234,307.035 114.793 C 307.783 115.373,307.783 115.367,307.062 114.520 C 306.622 114.002,306.072 113.751,305.697 113.895 C 305.329 114.036,305.172 113.969,305.318 113.733 C 305.633 113.223,304.513 111.589,303.877 111.632 C 303.532 111.654,303.538 111.719,303.900 111.865 C 304.507 112.110,304.570 113.200,303.976 113.200 C 303.743 113.200,303.655 113.034,303.780 112.832 C 303.905 112.630,303.556 112.109,303.004 111.674 C 302.452 111.240,302.000 110.686,302.000 110.442 C 302.000 110.199,301.724 110.000,301.387 110.000 C 301.050 110.000,300.611 109.595,300.412 109.100 C 300.203 108.578,300.038 108.452,300.019 108.800 C 300.001 109.159,299.776 108.998,299.461 108.400 C 299.172 107.850,298.743 107.439,298.509 107.486 C 298.274 107.534,297.420 106.947,296.609 106.183 C 295.798 105.418,295.015 104.865,294.868 104.954 C 294.720 105.043,294.368 104.865,294.084 104.558 C 293.801 104.251,293.673 104.000,293.800 104.000 C 293.927 104.000,293.804 103.757,293.527 103.459 C 293.249 103.162,292.706 102.937,292.321 102.959 C 291.935 102.982,291.583 102.820,291.538 102.600 C 291.377 101.807,290.470 101.233,289.633 101.394 C 289.160 101.485,288.883 101.389,289.013 101.179 C 289.142 100.971,288.977 100.800,288.647 100.800 C 288.317 100.800,287.919 100.592,287.762 100.338 C 287.585 100.052,287.652 99.985,287.938 100.162 C 288.192 100.319,288.400 100.244,288.400 99.997 C 288.400 99.728,288.077 99.649,287.599 99.800 C 287.111 99.955,286.551 99.808,286.167 99.424 C 285.819 99.077,285.342 98.912,285.106 99.058 C 284.851 99.215,284.793 99.136,284.962 98.862 C 285.119 98.608,285.046 98.400,284.800 98.400 C 284.554 98.400,284.464 98.220,284.600 98.000 C 284.736 97.780,284.499 97.600,284.073 97.600 C 283.647 97.600,283.067 97.321,282.784 96.981 C 282.408 96.528,282.193 96.488,281.979 96.834 C 281.783 97.151,281.603 97.040,281.430 96.496 C 281.162 95.651,279.600 94.965,279.600 95.691 C 279.600 95.920,279.226 95.632,278.768 95.050 C 278.310 94.468,277.783 94.087,277.596 94.203 C 277.408 94.318,277.142 94.230,277.004 94.007 C 276.866 93.783,276.223 93.600,275.576 93.600 C 274.929 93.600,274.400 93.432,274.400 93.227 C 274.400 92.570,272.729 92.274,272.312 92.857 C 272.017 93.271,271.978 93.233,272.150 92.700 C 272.318 92.177,272.151 91.998,271.487 91.994 C 270.768 91.989,270.713 91.914,271.200 91.600 C 271.643 91.314,271.382 91.209,270.200 91.200 C 268.955 91.190,268.733 91.093,269.200 90.760 C 269.654 90.437,269.469 90.390,268.440 90.568 C 267.368 90.754,266.797 90.587,265.738 89.780 C 264.999 89.217,264.205 88.873,263.972 89.017 C 263.740 89.161,263.246 89.012,262.875 88.687 C 262.504 88.361,261.525 88.119,260.700 88.147 C 259.875 88.176,259.200 88.035,259.200 87.833 C 259.200 87.632,259.082 87.585,258.937 87.730 C 258.792 87.875,258.451 87.808,258.179 87.582 C 257.907 87.357,257.440 87.223,257.142 87.286 C 256.844 87.349,256.638 87.196,256.685 86.946 C 256.737 86.664,256.243 86.527,255.385 86.585 C 254.623 86.636,254.000 86.541,254.000 86.374 C 254.000 86.207,253.493 86.150,252.873 86.247 C 252.088 86.371,251.524 86.179,251.011 85.612 C 250.218 84.736,249.210 84.448,249.917 85.300 C 250.228 85.675,250.104 85.800,249.417 85.800 C 248.849 85.800,248.575 85.610,248.694 85.300 C 248.927 84.692,248.597 84.666,247.574 85.214 C 247.040 85.500,246.800 85.500,246.800 85.214 C 246.800 84.986,246.485 84.797,246.100 84.794 C 245.496 84.789,245.482 84.730,246.000 84.363 C 246.456 84.039,246.312 83.997,245.400 84.185 C 243.922 84.490,243.609 84.497,242.600 84.254 C 242.160 84.148,241.474 84.047,241.076 84.031 C 240.678 84.014,240.464 83.820,240.600 83.600 C 240.736 83.380,240.657 83.200,240.424 83.200 C 240.191 83.200,240.000 83.470,240.000 83.800 C 240.000 84.130,239.820 84.400,239.600 84.400 C 239.380 84.400,239.245 84.182,239.300 83.915 C 239.373 83.559,238.209 83.420,234.938 83.396 C 231.833 83.372,230.280 83.198,229.829 82.824 C 229.472 82.528,229.065 82.402,228.924 82.543 C 228.782 82.684,228.907 82.800,229.200 82.800 C 229.493 82.800,229.618 82.916,229.476 83.057 C 229.335 83.198,228.945 83.086,228.610 82.808 C 228.193 82.462,228.000 82.444,228.000 82.751 C 228.000 82.998,227.370 83.200,226.600 83.200 C 225.830 83.200,225.200 83.020,225.200 82.800 C 225.200 82.165,221.610 82.308,221.363 82.952 C 221.201 83.374,220.802 83.424,219.675 83.162 C 217.811 82.729,217.100 82.714,217.347 83.114 C 217.454 83.287,217.207 83.429,216.799 83.429 C 216.391 83.429,216.066 83.332,216.076 83.214 C 216.141 82.477,215.918 82.369,215.323 82.851 C 214.863 83.224,214.743 83.240,214.947 82.900 C 215.301 82.310,215.116 82.246,214.580 82.774 M224.100 83.082 C 223.605 83.178,222.795 83.178,222.300 83.082 C 221.805 82.987,222.210 82.909,223.200 82.909 C 224.190 82.909,224.595 82.987,224.100 83.082 M213.800 124.400 C 213.936 124.620,214.926 124.800,216.000 124.800 C 217.074 124.800,218.064 124.980,218.200 125.200 C 218.336 125.420,218.797 125.600,219.224 125.600 C 219.651 125.600,220.000 125.780,220.000 126.000 C 220.000 126.220,220.270 126.400,220.600 126.400 C 220.930 126.400,221.200 126.580,221.200 126.800 C 221.200 127.020,221.408 127.200,221.661 127.200 C 222.279 127.200,225.200 130.392,225.200 131.067 C 225.200 131.360,225.380 131.600,225.600 131.600 C 225.820 131.600,226.000 131.949,226.000 132.376 C 226.000 132.803,226.180 133.264,226.400 133.400 C 226.620 133.536,226.800 134.346,226.800 135.200 C 226.800 136.054,226.980 136.864,227.200 137.000 C 227.420 137.136,227.600 137.766,227.600 138.400 C 227.600 139.034,227.420 139.664,227.200 139.800 C 226.980 139.936,226.800 140.757,226.800 141.624 C 226.800 142.491,226.620 143.200,226.400 143.200 C 226.180 143.200,226.000 143.560,226.000 144.000 C 226.000 144.440,225.820 144.800,225.600 144.800 C 225.380 144.800,225.200 145.116,225.200 145.502 C 225.200 146.594,222.163 149.554,219.662 150.900 L 217.400 152.116 208.135 152.040 C 202.045 151.990,198.781 152.108,198.611 152.382 C 198.469 152.612,197.821 152.800,197.171 152.800 C 196.521 152.800,195.632 152.980,195.195 153.200 C 194.758 153.420,194.042 153.780,193.605 154.000 C 193.168 154.220,192.538 154.400,192.205 154.400 C 191.872 154.400,191.598 154.535,191.595 154.700 C 191.593 154.865,190.859 155.351,189.964 155.779 C 189.070 156.208,186.366 158.503,183.955 160.879 C 181.545 163.256,179.309 165.200,178.986 165.200 C 178.664 165.200,178.400 165.380,178.400 165.600 C 178.400 165.820,178.040 166.000,177.600 166.000 C 177.160 166.000,176.800 166.180,176.800 166.400 C 176.800 166.620,176.271 166.800,175.624 166.800 C 174.977 166.800,174.336 166.980,174.200 167.200 C 174.064 167.420,172.984 167.600,171.800 167.600 C 170.616 167.600,169.536 167.420,169.400 167.200 C 169.264 166.980,168.533 166.800,167.776 166.800 C 167.019 166.800,166.400 166.620,166.400 166.400 C 166.400 166.180,166.113 166.000,165.762 166.000 C 164.455 166.000,160.689 162.740,160.194 161.180 C 160.057 160.751,159.778 160.400,159.573 160.400 C 159.368 160.400,159.200 160.040,159.200 159.600 C 159.200 159.160,159.020 158.800,158.800 158.800 C 158.580 158.800,158.400 158.271,158.400 157.624 C 158.400 156.977,158.220 156.336,158.000 156.200 C 157.780 156.064,157.600 154.793,157.600 153.376 C 157.600 151.925,157.775 150.800,158.000 150.800 C 158.220 150.800,158.400 150.170,158.400 149.400 C 158.400 148.630,158.580 148.000,158.800 148.000 C 159.020 148.000,159.206 147.685,159.213 147.300 C 159.227 146.531,159.375 146.314,162.000 143.206 C 164.898 139.777,169.691 135.258,171.527 134.227 C 171.892 134.022,172.542 133.527,172.971 133.127 C 173.400 132.727,173.987 132.400,174.275 132.400 C 174.564 132.400,174.800 132.250,174.800 132.067 C 174.800 131.620,182.876 127.645,184.406 127.339 C 185.072 127.206,185.714 126.940,185.832 126.748 C 185.950 126.557,186.667 126.400,187.424 126.400 C 188.181 126.400,188.800 126.220,188.800 126.000 C 188.800 125.780,189.520 125.600,190.400 125.600 C 191.280 125.600,192.000 125.420,192.000 125.200 C 192.000 124.980,192.979 124.800,194.176 124.800 C 195.373 124.800,196.464 124.620,196.600 124.400 C 196.752 124.154,200.063 124.000,205.200 124.000 C 210.337 124.000,213.648 124.154,213.800 124.400 M88.100 179.212 C 87.605 179.411,87.200 179.670,87.200 179.787 C 87.200 180.175,87.837 180.008,88.624 179.413 C 89.508 178.743,89.385 178.696,88.100 179.212 " stroke="none" fill="#dcdcdc" fill-rule="evenodd"></path><path id="path3" d="M197.800 124.685 C 195.843 124.869,191.033 125.846,189.400 126.391 L 188.200 126.792 189.400 126.614 C 190.060 126.516,191.500 126.243,192.600 126.008 C 196.603 125.151,202.741 124.747,209.000 124.928 C 213.074 125.046,214.455 125.001,212.800 124.804 C 210.150 124.488,200.697 124.413,197.800 124.685 M216.000 125.600 C 216.330 125.813,216.960 125.978,217.400 125.966 L 218.200 125.944 217.400 125.600 C 216.204 125.086,215.205 125.086,216.000 125.600 M218.603 126.405 C 218.737 126.622,219.087 126.800,219.380 126.800 C 219.674 126.800,220.796 127.594,221.875 128.564 C 223.624 130.136,224.300 131.168,225.960 134.800 C 226.405 135.774,226.411 135.769,226.181 134.600 C 225.935 133.346,224.517 130.776,223.307 129.390 C 221.917 127.798,217.881 125.236,218.603 126.405 M185.400 127.551 C 182.718 128.518,178.000 130.718,178.000 131.001 C 178.000 131.126,178.315 131.064,178.700 130.863 C 180.395 129.978,184.059 128.400,184.417 128.400 C 184.634 128.400,185.123 128.239,185.505 128.041 C 185.887 127.844,186.650 127.496,187.200 127.268 C 188.885 126.571,187.524 126.784,185.400 127.551 M175.681 132.172 C 173.721 133.558,173.585 133.865,175.400 132.805 C 177.278 131.710,177.925 131.191,177.380 131.220 C 177.171 131.230,176.407 131.659,175.681 132.172 M171.200 135.254 C 163.046 141.337,158.350 148.051,158.469 153.457 L 158.538 156.600 158.769 153.200 C 159.150 147.596,162.691 142.553,170.700 136.207 C 173.229 134.204,173.900 133.580,173.500 133.607 C 173.445 133.610,172.410 134.352,171.200 135.254 M226.528 138.400 C 226.528 139.830,226.601 140.415,226.689 139.700 C 226.778 138.985,226.778 137.815,226.689 137.100 C 226.601 136.385,226.528 136.970,226.528 138.400 M225.867 141.467 C 225.720 141.613,225.600 142.036,225.600 142.405 C 225.600 144.316,222.163 148.464,219.348 149.948 C 218.497 150.397,217.990 150.773,218.222 150.782 C 218.882 150.810,222.087 148.630,223.262 147.354 C 225.147 145.306,227.623 139.711,225.867 141.467 M199.600 151.153 C 198.830 151.289,201.350 151.405,205.200 151.410 C 209.282 151.416,211.450 151.303,210.400 151.140 C 208.227 150.801,201.543 150.809,199.600 151.153 M215.400 151.200 L 214.200 151.505 215.400 151.547 C 216.060 151.569,216.870 151.413,217.200 151.200 C 217.943 150.720,217.287 150.720,215.400 151.200 M194.600 152.352 C 190.089 153.984,186.696 156.397,182.114 161.232 C 179.881 163.589,178.474 164.544,175.200 165.924 C 174.650 166.156,174.470 166.356,174.800 166.369 C 176.466 166.433,179.668 164.217,183.832 160.115 C 188.199 155.815,193.402 152.465,195.861 152.372 C 196.267 152.356,196.960 152.189,197.400 152.000 L 198.200 151.656 197.400 151.643 C 196.960 151.635,195.700 151.954,194.600 152.352 M158.999 157.650 C 159.624 159.741,163.600 165.122,163.600 163.878 C 163.600 163.729,163.082 163.110,162.448 162.503 C 161.174 161.284,159.600 158.690,159.600 157.811 C 159.600 157.501,159.401 157.124,159.157 156.974 C 158.854 156.786,158.804 157.000,158.999 157.650 M164.191 164.386 C 164.483 164.857,168.015 166.462,168.446 166.318 C 168.649 166.250,167.729 165.716,166.403 165.130 C 165.077 164.544,164.082 164.209,164.191 164.386 M170.500 166.687 C 171.105 166.778,172.095 166.778,172.700 166.687 C 173.305 166.595,172.810 166.520,171.600 166.520 C 170.390 166.520,169.895 166.595,170.500 166.687 M114.600 209.851 C 113.296 210.022,110.675 210.705,109.400 211.205 C 108.960 211.378,107.970 211.749,107.200 212.030 C 97.786 215.465,89.529 221.866,84.174 229.880 C 82.367 232.584,78.808 239.606,78.803 240.476 C 78.802 240.848,78.620 241.264,78.400 241.400 C 78.180 241.536,78.000 241.999,78.000 242.429 C 78.000 242.859,77.842 243.523,77.649 243.905 C 76.449 246.282,75.914 252.264,76.756 253.905 C 76.952 254.287,77.524 255.461,78.026 256.513 C 83.489 267.955,99.917 265.365,103.746 252.459 C 104.461 250.048,106.310 246.071,107.087 245.271 C 107.369 244.981,107.603 244.621,107.606 244.471 C 107.648 242.717,113.821 238.739,119.200 237.000 C 125.809 234.865,129.097 231.433,130.314 225.400 C 130.710 223.436,130.212 219.278,129.494 218.560 C 129.332 218.399,129.200 217.937,129.200 217.533 C 129.200 217.130,129.020 216.800,128.800 216.800 C 128.580 216.800,128.400 216.622,128.400 216.405 C 128.400 215.923,127.334 214.582,126.047 213.443 C 125.523 212.979,124.893 212.419,124.647 212.198 C 122.820 210.553,117.938 209.412,114.600 209.851 M122.548 211.598 C 133.951 217.405,131.700 231.956,118.685 236.571 C 109.986 239.655,106.036 243.593,103.209 252.000 C 101.880 255.950,101.244 257.170,99.566 258.991 C 91.528 267.711,76.958 261.898,77.031 250.000 C 77.059 245.279,80.403 236.734,84.809 230.124 C 93.737 216.730,113.538 207.009,122.548 211.598 " stroke="none" fill="#c4c4c4" fill-rule="evenodd"></path><path id="path4" d="M218.800 82.755 C 218.800 82.950,219.340 83.188,220.000 83.285 C 220.660 83.382,221.200 83.356,221.200 83.228 C 221.200 83.099,222.055 83.027,223.100 83.068 L 225.000 83.141 223.000 82.806 C 220.275 82.348,218.800 82.331,218.800 82.755 M225.200 82.800 C 225.200 83.020,225.830 83.200,226.600 83.200 C 227.370 83.200,228.000 83.020,228.000 82.800 C 228.000 82.580,227.370 82.400,226.600 82.400 C 225.830 82.400,225.200 82.580,225.200 82.800 M201.168 84.700 C 200.729 85.280,200.729 85.320,201.168 84.931 C 201.459 84.673,201.975 84.569,202.314 84.699 C 202.719 84.855,202.832 84.775,202.642 84.468 C 202.237 83.813,201.786 83.884,201.168 84.700 M197.300 85.065 C 196.389 85.432,196.773 85.990,197.700 85.645 C 198.195 85.461,198.915 85.360,199.300 85.420 C 199.685 85.480,200.000 85.365,200.000 85.165 C 200.000 84.784,198.165 84.716,197.300 85.065 M248.694 85.300 C 248.575 85.610,248.849 85.800,249.417 85.800 C 250.104 85.800,250.228 85.675,249.917 85.300 C 249.689 85.025,249.363 84.800,249.194 84.800 C 249.024 84.800,248.799 85.025,248.694 85.300 M251.396 85.994 C 251.530 86.211,252.068 86.352,252.591 86.309 C 253.830 86.207,253.455 85.600,252.153 85.600 C 251.598 85.600,251.261 85.775,251.396 85.994 M258.180 87.568 C 258.332 87.813,258.607 87.919,258.793 87.804 C 258.979 87.689,259.224 87.781,259.336 88.008 C 259.448 88.234,259.494 88.191,259.437 87.910 C 259.380 87.630,259.012 87.338,258.619 87.262 C 258.175 87.175,258.009 87.291,258.180 87.568 M263.790 89.448 C 264.147 89.804,264.559 89.974,264.707 89.826 C 264.856 89.678,264.712 89.389,264.388 89.184 C 263.443 88.587,263.087 88.744,263.790 89.448 M266.321 90.230 C 266.816 90.576,267.441 90.771,267.710 90.661 C 267.991 90.548,267.901 90.450,267.500 90.432 C 267.115 90.414,266.800 90.220,266.800 90.000 C 266.800 89.780,266.490 89.600,266.111 89.600 C 265.548 89.600,265.586 89.715,266.321 90.230 M161.276 98.651 C 160.988 98.963,160.583 99.113,160.376 98.985 C 160.169 98.857,160.000 98.943,160.000 99.176 C 160.000 99.726,160.381 99.693,161.554 99.043 C 162.079 98.752,162.349 98.417,162.154 98.299 C 161.959 98.181,161.564 98.339,161.276 98.651 M286.087 99.300 C 286.762 99.920,288.287 100.800,288.687 100.800 C 288.851 100.800,288.323 100.350,287.514 99.800 C 285.951 98.738,285.182 98.468,286.087 99.300 M158.260 100.186 C 157.853 100.494,157.647 100.952,157.802 101.203 C 157.991 101.509,158.276 101.384,158.669 100.823 C 158.991 100.363,159.450 100.107,159.689 100.255 C 159.949 100.415,160.009 100.338,159.838 100.062 C 159.473 99.471,159.173 99.494,158.260 100.186 M155.398 102.402 C 154.998 102.844,154.766 103.299,154.882 103.415 C 154.997 103.530,155.390 103.169,155.755 102.612 C 156.552 101.396,156.393 101.302,155.398 102.402 M146.084 109.040 C 145.801 109.348,145.673 109.600,145.800 109.600 C 145.927 109.600,145.799 109.851,145.516 110.158 C 145.232 110.465,144.901 110.657,144.781 110.584 C 144.660 110.512,144.300 110.629,143.981 110.844 C 143.536 111.144,143.624 111.207,144.360 111.117 C 144.888 111.053,145.686 110.508,146.133 109.907 C 146.995 108.748,146.958 108.093,146.084 109.040 M303.540 112.128 C 303.789 112.428,303.875 112.792,303.730 112.937 C 303.585 113.082,303.677 113.200,303.933 113.200 C 304.641 113.200,304.491 112.121,303.743 111.834 C 303.225 111.635,303.182 111.696,303.540 112.128 M306.400 114.508 C 306.400 114.899,308.824 117.309,309.020 117.113 C 309.112 117.021,308.561 116.337,307.794 115.594 C 307.027 114.851,306.400 114.362,306.400 114.508 M310.460 119.180 C 310.632 119.696,311.181 119.788,311.230 119.310 C 311.247 119.151,311.044 118.948,310.780 118.860 C 310.516 118.772,310.372 118.916,310.460 119.180 M313.800 122.400 C 314.198 122.840,314.592 123.200,314.676 123.200 C 314.760 123.200,314.635 122.840,314.400 122.400 C 314.165 121.960,313.770 121.600,313.524 121.600 C 313.278 121.600,313.402 121.960,313.800 122.400 M196.600 124.400 C 196.304 124.880,197.484 124.880,198.600 124.400 C 199.274 124.110,199.200 124.052,198.124 124.028 C 197.422 124.013,196.736 124.180,196.600 124.400 M211.600 124.400 C 213.045 124.863,214.086 124.863,213.800 124.400 C 213.664 124.180,212.888 124.018,212.076 124.040 C 210.750 124.076,210.702 124.112,211.600 124.400 M129.900 125.267 C 129.367 125.825,129.333 126.000,129.757 126.000 C 130.064 126.000,130.428 125.704,130.567 125.343 C 130.917 124.431,130.720 124.408,129.900 125.267 M192.000 125.200 C 192.000 125.701,192.424 125.701,193.200 125.200 C 193.685 124.886,193.628 124.811,192.900 124.806 C 192.405 124.803,192.000 124.980,192.000 125.200 M217.000 125.200 C 217.136 125.420,217.517 125.600,217.847 125.600 C 218.177 125.600,218.336 125.420,218.200 125.200 C 218.064 124.980,217.683 124.800,217.353 124.800 C 217.023 124.800,216.864 124.980,217.000 125.200 M185.800 126.800 C 185.664 127.020,185.823 127.200,186.153 127.200 C 186.483 127.200,186.864 127.020,187.000 126.800 C 187.136 126.580,186.977 126.400,186.647 126.400 C 186.317 126.400,185.936 126.580,185.800 126.800 M182.400 128.026 C 178.737 129.671,174.800 131.772,174.800 132.081 C 174.800 132.257,174.575 132.400,174.300 132.400 C 174.025 132.401,173.277 132.851,172.638 133.400 C 171.999 133.950,171.369 134.403,171.238 134.406 C 170.880 134.416,168.400 136.664,168.400 136.979 C 168.400 137.130,169.165 136.636,170.100 135.881 C 173.075 133.480,175.889 131.655,178.886 130.182 C 180.489 129.394,182.113 128.581,182.495 128.375 C 182.877 128.169,183.451 128.000,183.771 128.000 C 184.091 128.000,184.464 127.820,184.600 127.600 C 184.962 127.014,184.419 127.119,182.400 128.026 M126.013 129.891 C 125.489 130.482,125.503 130.523,126.146 130.276 C 126.542 130.124,126.941 130.000,127.033 130.000 C 127.125 130.000,127.200 129.820,127.200 129.600 C 127.200 129.012,126.681 129.139,126.013 129.891 M224.245 130.212 C 224.610 130.769,224.986 131.147,225.082 131.051 C 225.319 130.814,224.284 129.200,223.895 129.200 C 223.722 129.200,223.880 129.656,224.245 130.212 M319.611 129.457 C 319.605 129.709,319.869 130.018,320.198 130.144 C 320.526 130.270,321.156 130.964,321.596 131.687 C 322.037 132.409,322.398 132.772,322.399 132.494 C 322.400 131.858,319.626 128.835,319.611 129.457 M122.502 134.500 C 121.434 135.849,121.119 137.011,122.150 135.800 C 123.083 134.703,123.435 134.000,123.049 134.000 C 122.966 134.000,122.720 134.225,122.502 134.500 M323.600 134.800 C 323.600 135.020,323.791 135.200,324.024 135.200 C 324.257 135.200,324.336 135.380,324.200 135.600 C 324.064 135.820,324.154 136.000,324.400 136.000 C 324.646 136.000,324.748 136.161,324.626 136.358 C 324.504 136.555,324.688 136.825,325.035 136.958 C 326.017 137.335,326.019 137.287,325.082 135.817 C 324.208 134.446,323.600 134.029,323.600 134.800 M226.800 138.400 C 226.800 139.396,226.958 139.950,227.200 139.800 C 227.420 139.664,227.600 139.034,227.600 138.400 C 227.600 137.766,227.420 137.136,227.200 137.000 C 226.958 136.850,226.800 137.404,226.800 138.400 M165.217 139.647 C 163.888 140.993,162.800 142.266,162.800 142.476 C 162.800 142.686,163.025 142.606,163.300 142.300 C 163.575 141.994,164.784 140.721,165.986 139.472 C 167.189 138.222,168.051 137.200,167.903 137.200 C 167.755 137.200,166.546 138.301,165.217 139.647 M119.800 138.706 C 119.580 138.868,119.135 139.360,118.812 139.800 C 118.378 140.391,118.509 140.346,119.312 139.630 C 120.291 138.758,120.589 138.388,120.300 138.406 C 120.245 138.409,120.020 138.544,119.800 138.706 M160.165 145.411 C 159.573 146.187,159.177 146.911,159.286 147.019 C 159.394 147.128,159.962 146.493,160.547 145.608 C 161.860 143.624,161.622 143.501,160.165 145.411 M223.661 147.227 C 222.113 149.090,220.081 150.463,217.568 151.343 C 216.500 151.717,216.140 151.969,216.659 151.981 C 218.627 152.025,225.200 147.346,225.200 145.902 C 225.200 145.418,225.072 145.528,223.661 147.227 M332.103 147.512 C 332.138 147.970,332.309 148.256,332.483 148.149 C 332.657 148.041,332.814 148.278,332.832 148.676 C 332.849 149.078,332.951 149.182,333.061 148.910 C 333.171 148.641,332.985 148.029,332.650 147.550 C 332.047 146.690,332.041 146.689,332.103 147.512 M334.645 151.412 C 335.010 151.969,335.386 152.347,335.482 152.251 C 335.719 152.014,334.684 150.400,334.295 150.400 C 334.122 150.400,334.280 150.856,334.645 151.412 M157.600 153.376 C 157.600 154.793,157.745 156.042,157.922 156.152 C 158.099 156.261,158.234 155.102,158.222 153.576 C 158.210 152.049,158.065 150.800,157.900 150.800 C 157.735 150.800,157.600 151.959,157.600 153.376 M202.700 151.896 C 204.075 151.974,206.325 151.974,207.700 151.896 C 209.075 151.818,207.950 151.754,205.200 151.754 C 202.450 151.754,201.325 151.818,202.700 151.896 M197.200 152.274 C 193.906 152.816,186.800 156.597,186.800 157.807 C 186.800 157.952,187.331 157.624,187.981 157.078 C 188.630 156.531,189.710 155.841,190.381 155.544 C 191.051 155.248,191.600 154.869,191.600 154.702 C 191.600 154.536,191.872 154.400,192.205 154.400 C 192.793 154.400,193.218 154.233,195.095 153.262 C 195.587 153.008,196.521 152.800,197.171 152.800 C 197.821 152.800,198.464 152.620,198.600 152.400 C 198.736 152.180,198.702 152.025,198.524 152.054 C 198.346 152.084,197.750 152.183,197.200 152.274 M212.705 152.283 C 213.202 152.379,213.922 152.375,214.305 152.275 C 214.687 152.175,214.280 152.096,213.400 152.101 C 212.520 152.105,212.207 152.187,212.705 152.283 M183.678 160.522 C 182.315 161.897,181.200 163.155,181.200 163.318 C 181.200 163.481,182.387 162.428,183.837 160.978 C 185.287 159.527,186.402 158.269,186.315 158.181 C 186.227 158.094,185.040 159.147,183.678 160.522 M160.402 161.569 C 161.273 163.257,164.532 166.002,165.662 165.999 C 165.958 165.998,165.570 165.627,164.800 165.176 C 164.030 164.724,162.613 163.510,161.651 162.477 C 160.648 161.401,160.116 161.014,160.402 161.569 M179.594 164.418 C 179.047 164.839,178.838 165.186,179.129 165.191 C 179.686 165.200,181.004 164.071,180.742 163.808 C 180.657 163.724,180.141 163.998,179.594 164.418 M104.646 165.424 C 104.327 166.256,104.464 166.455,105.090 166.068 C 105.361 165.901,105.422 165.559,105.235 165.256 C 104.984 164.850,104.852 164.888,104.646 165.424 M166.400 166.400 C 166.400 166.620,166.805 166.797,167.300 166.794 C 168.028 166.789,168.085 166.714,167.600 166.400 C 166.824 165.899,166.400 165.899,166.400 166.400 M169.446 167.275 C 169.557 167.454,170.616 167.600,171.800 167.600 C 172.984 167.600,174.043 167.454,174.154 167.275 C 174.264 167.096,173.205 166.950,171.800 166.950 C 170.395 166.950,169.336 167.096,169.446 167.275 M123.400 170.031 C 118.230 170.415,112.279 171.331,108.000 172.400 C 107.010 172.647,105.705 172.949,105.100 173.070 C 104.495 173.191,104.000 173.450,104.000 173.645 C 104.000 173.840,103.190 174.000,102.200 174.000 C 101.210 174.000,100.400 174.180,100.400 174.400 C 100.400 174.982,102.000 174.891,104.454 174.169 C 114.636 171.174,122.966 170.209,135.800 170.537 C 146.149 170.802,150.904 171.304,157.000 172.777 C 157.880 172.989,159.320 173.324,160.200 173.521 C 169.027 175.494,183.079 182.355,190.452 188.292 C 195.414 192.288,201.127 198.014,205.740 203.616 C 213.949 213.583,223.090 232.320,227.589 248.400 C 227.866 249.390,228.235 250.650,228.408 251.200 C 228.582 251.750,228.932 253.100,229.187 254.200 C 229.442 255.300,229.808 256.830,230.000 257.600 C 230.514 259.660,231.076 262.286,231.584 265.000 C 231.831 266.320,232.205 268.168,232.416 269.106 C 232.904 271.272,232.913 277.528,232.433 279.723 C 232.231 280.645,231.842 282.480,231.569 283.800 C 231.295 285.120,230.920 286.371,230.736 286.580 C 230.551 286.789,230.400 287.225,230.400 287.550 C 230.400 289.514,225.606 297.350,221.783 301.636 C 217.093 306.893,207.820 312.541,200.900 314.354 C 196.637 315.472,195.863 315.651,192.600 316.279 C 191.940 316.407,191.268 316.711,191.106 316.955 C 190.896 317.273,190.811 317.265,190.806 316.926 C 190.801 316.564,182.866 316.479,157.100 316.567 C 120.953 316.690,121.874 316.673,122.202 317.203 C 122.517 317.713,191.600 317.710,191.600 317.200 C 191.600 316.980,192.590 316.800,193.800 316.800 C 195.010 316.800,196.000 316.620,196.000 316.400 C 196.000 316.180,196.632 316.000,197.405 316.000 C 198.178 316.000,199.123 315.842,199.505 315.649 C 199.887 315.456,200.920 315.084,201.800 314.823 C 203.431 314.338,204.851 313.786,206.095 313.153 C 206.477 312.959,207.062 312.800,207.395 312.800 C 207.728 312.800,208.000 312.620,208.000 312.400 C 208.000 312.180,208.345 312.000,208.767 312.000 C 209.188 312.000,209.593 311.865,209.667 311.700 C 209.740 311.535,210.655 310.967,211.700 310.437 C 212.745 309.908,213.600 309.323,213.600 309.137 C 213.600 308.952,213.836 308.800,214.125 308.800 C 214.413 308.800,215.036 308.440,215.508 308.000 C 215.980 307.560,216.542 307.200,216.755 307.200 C 217.290 307.200,222.771 301.763,224.214 299.800 C 224.862 298.920,225.708 297.909,226.096 297.553 C 226.483 297.197,226.800 296.627,226.800 296.286 C 226.800 295.946,226.935 295.607,227.100 295.533 C 227.476 295.366,228.775 293.236,229.071 292.300 C 229.193 291.915,229.452 291.600,229.647 291.600 C 229.841 291.600,230.000 291.276,230.000 290.880 C 230.000 290.484,230.149 289.989,230.330 289.780 C 230.512 289.571,230.893 288.590,231.176 287.600 C 231.459 286.610,231.838 285.440,232.018 285.000 C 233.091 282.377,233.394 268.935,232.461 265.400 C 232.170 264.300,231.839 262.680,231.725 261.800 C 231.611 260.920,231.356 260.029,231.159 259.820 C 230.962 259.611,230.800 258.767,230.800 257.944 C 230.800 257.121,230.620 256.336,230.400 256.200 C 230.180 256.064,230.000 255.571,230.000 255.105 C 230.000 254.638,229.832 253.704,229.627 253.028 C 229.422 252.353,229.041 250.990,228.782 250.000 C 228.522 249.010,228.166 247.840,227.991 247.400 C 227.817 246.960,227.453 245.740,227.182 244.690 C 226.912 243.639,226.535 242.683,226.345 242.566 C 226.155 242.449,226.000 241.924,226.000 241.400 C 226.000 240.876,225.820 240.336,225.600 240.200 C 225.380 240.064,225.200 239.524,225.200 239.000 C 225.200 238.476,225.020 237.936,224.800 237.800 C 224.580 237.664,224.400 237.149,224.400 236.656 C 224.400 236.163,224.250 235.589,224.068 235.380 C 223.885 235.171,222.889 232.902,221.854 230.338 C 220.089 225.961,217.320 220.242,215.204 216.600 C 214.693 215.720,214.075 214.640,213.830 214.200 C 213.071 212.832,211.837 211.034,211.103 210.225 C 210.716 209.798,210.400 209.213,210.400 208.925 C 210.400 208.636,210.262 208.400,210.094 208.400 C 209.926 208.400,209.344 207.680,208.800 206.800 C 208.256 205.920,207.686 205.200,207.533 205.200 C 207.379 205.200,207.133 204.820,206.986 204.356 C 206.464 202.712,194.084 189.600,193.053 189.600 C 192.856 189.600,192.403 189.276,192.047 188.881 C 191.691 188.486,190.770 187.729,190.000 187.200 C 189.230 186.671,188.510 186.118,188.400 185.971 C 187.610 184.913,176.925 178.800,175.866 178.800 C 175.500 178.800,175.200 178.664,175.200 178.498 C 175.200 178.331,174.615 177.956,173.900 177.664 C 172.380 177.043,171.224 176.572,169.700 175.953 C 169.095 175.708,168.287 175.348,167.905 175.153 C 167.523 174.959,166.859 174.800,166.429 174.800 C 165.999 174.800,165.536 174.620,165.400 174.400 C 165.264 174.180,164.724 174.000,164.200 174.000 C 163.676 174.000,163.136 173.820,163.000 173.600 C 162.864 173.380,162.144 173.200,161.400 173.200 C 160.656 173.200,159.936 173.020,159.800 172.800 C 159.664 172.580,158.969 172.400,158.256 172.400 C 157.543 172.400,156.789 172.238,156.580 172.041 C 156.371 171.844,155.390 171.569,154.400 171.431 C 153.410 171.293,151.430 171.004,150.000 170.787 C 142.898 169.714,131.888 169.401,123.400 170.031 M344.655 173.400 C 344.782 173.730,345.016 174.000,345.176 174.000 C 345.336 174.000,345.467 173.730,345.467 173.400 C 345.467 173.070,345.232 172.800,344.946 172.800 C 344.647 172.800,344.523 173.056,344.655 173.400 M96.000 176.085 C 96.000 176.258,96.360 176.400,96.800 176.400 C 97.240 176.400,97.600 176.231,97.600 176.025 C 97.600 175.819,97.240 175.677,96.800 175.710 C 96.360 175.743,96.000 175.912,96.000 176.085 M88.624 179.413 C 88.188 179.742,88.069 180.000,88.352 180.000 C 88.630 180.000,89.127 179.730,89.457 179.400 C 90.224 178.633,89.642 178.642,88.624 179.413 M77.544 186.390 L 76.600 187.181 77.697 186.690 C 78.300 186.421,78.795 186.065,78.797 185.900 C 78.802 185.441,78.571 185.531,77.544 186.390 M75.506 187.772 C 75.124 188.051,74.921 188.388,75.054 188.521 C 75.187 188.653,75.565 188.492,75.895 188.162 C 76.672 187.385,76.403 187.116,75.506 187.772 M351.495 190.655 C 351.178 191.158,352.267 192.266,352.676 191.857 C 352.818 191.716,352.737 191.600,352.496 191.600 C 352.255 191.600,351.996 191.285,351.920 190.900 C 351.829 190.442,351.682 190.357,351.495 190.655 M69.843 192.633 C 69.467 193.611,69.549 193.708,70.200 193.057 C 70.880 192.377,70.967 192.000,70.443 192.000 C 70.246 192.000,69.976 192.285,69.843 192.633 M60.396 202.897 C 59.188 204.714,59.087 204.917,59.531 204.643 C 60.183 204.239,61.703 202.000,61.323 202.000 C 61.141 202.000,60.724 202.404,60.396 202.897 M356.800 207.800 C 357.171 208.247,357.178 208.400,356.825 208.400 C 356.565 208.400,356.476 208.599,356.626 208.843 C 356.820 209.156,356.992 209.137,357.213 208.779 C 357.588 208.172,357.277 207.200,356.708 207.200 C 356.474 207.200,356.513 207.454,356.800 207.800 M48.916 220.800 C 48.801 221.240,48.537 221.600,48.330 221.600 C 48.122 221.600,48.078 221.803,48.232 222.051 C 48.516 222.511,49.284 221.533,49.449 220.500 C 49.580 219.685,49.143 219.931,48.916 220.800 M47.429 223.943 C 46.525 225.693,46.656 226.041,47.623 224.455 C 48.074 223.715,48.357 223.023,48.251 222.918 C 48.145 222.812,47.776 223.273,47.429 223.943 M45.550 228.200 C 45.523 228.310,45.471 228.535,45.436 228.700 C 45.401 228.865,45.153 229.394,44.885 229.876 C 44.500 230.568,44.503 230.812,44.899 231.040 C 45.175 231.198,45.271 231.186,45.114 231.012 C 44.957 230.837,45.038 230.313,45.295 229.847 C 45.795 228.940,46.034 228.000,45.765 228.000 C 45.674 228.000,45.578 228.090,45.550 228.200 M362.812 234.800 C 362.812 235.130,362.987 235.670,363.200 236.000 C 363.545 236.533,363.588 236.533,363.588 236.000 C 363.588 235.670,363.413 235.130,363.200 234.800 C 362.855 234.267,362.812 234.267,362.812 234.800 M41.308 238.772 C 41.340 239.197,41.509 239.456,41.683 239.349 C 42.127 239.075,42.080 238.000,41.625 238.000 C 41.419 238.000,41.276 238.348,41.308 238.772 M363.708 239.620 C 363.677 240.040,363.819 240.488,364.025 240.616 C 364.231 240.743,364.400 240.487,364.400 240.047 C 364.400 239.004,363.784 238.623,363.708 239.620 M364.836 243.800 C 364.786 244.240,364.677 245.140,364.594 245.800 C 364.472 246.768,364.521 246.863,364.846 246.291 C 365.068 245.902,365.177 245.002,365.089 244.291 C 365.000 243.581,364.887 243.360,364.836 243.800 M365.828 253.955 C 365.707 254.150,365.839 254.501,366.121 254.734 C 366.506 255.054,366.647 254.965,366.692 254.380 C 366.752 253.581,366.221 253.319,365.828 253.955 M35.800 257.400 C 35.800 257.950,35.935 258.400,36.100 258.400 C 36.265 258.400,36.400 257.950,36.400 257.400 C 36.400 256.850,36.265 256.400,36.100 256.400 C 35.935 256.400,35.800 256.850,35.800 257.400 M34.006 264.500 C 34.020 265.642,34.788 266.226,34.794 265.100 C 34.797 264.495,34.620 264.000,34.400 264.000 C 34.180 264.000,34.003 264.225,34.006 264.500 M33.232 269.380 C 33.208 270.540,33.318 270.842,33.645 270.515 C 33.961 270.199,33.970 269.740,33.677 268.935 C 33.268 267.813,33.263 267.818,33.232 269.380 M367.969 271.500 C 367.953 271.665,367.873 272.150,367.793 272.578 C 367.713 273.006,367.812 273.636,368.012 273.978 C 368.272 274.422,368.379 274.114,368.388 272.900 C 368.398 271.503,368.078 270.433,367.969 271.500 M33.241 279.200 C 33.272 280.422,33.835 281.408,34.103 280.710 C 34.236 280.362,34.093 279.745,33.785 279.339 C 33.353 278.769,33.229 278.737,33.241 279.200 M34.000 283.376 C 34.000 283.693,34.169 284.057,34.376 284.185 C 34.582 284.313,34.724 284.053,34.691 283.609 C 34.622 282.695,34.000 282.486,34.000 283.376 M363.388 289.620 C 363.240 289.858,363.226 290.160,363.356 290.290 C 363.487 290.420,363.370 290.803,363.097 291.140 C 362.701 291.629,362.701 291.693,363.098 291.455 C 363.861 290.996,364.461 289.685,364.029 289.418 C 363.823 289.291,363.535 289.382,363.388 289.620 M36.269 290.025 C 36.527 290.285,36.631 290.775,36.501 291.114 C 36.345 291.519,36.425 291.632,36.732 291.442 C 37.426 291.013,37.299 290.123,36.500 289.819 C 35.963 289.615,35.909 289.663,36.269 290.025 M39.900 296.247 C 39.745 296.492,39.975 297.015,40.409 297.409 C 40.861 297.817,41.200 297.926,41.200 297.662 C 41.200 297.408,41.033 297.200,40.829 297.200 C 40.625 297.200,40.396 296.885,40.320 296.500 C 40.231 296.052,40.080 295.961,39.900 296.247 M41.606 299.039 C 41.614 299.513,42.038 300.073,42.900 300.749 C 43.510 301.228,43.600 301.206,43.600 300.582 C 43.600 300.189,43.483 299.983,43.341 300.126 C 43.198 300.269,42.748 300.001,42.341 299.532 C 41.933 299.062,41.603 298.840,41.606 299.039 M337.376 313.639 C 337.030 314.199,337.902 314.400,338.348 313.862 C 338.680 313.463,338.638 313.333,338.176 313.333 C 337.840 313.333,337.480 313.471,337.376 313.639 M66.800 315.550 C 66.800 315.743,67.269 315.900,67.843 315.900 C 68.579 315.900,68.726 315.799,68.343 315.556 C 67.636 315.109,66.800 315.105,66.800 315.550 M70.578 316.364 C 70.826 316.766,71.818 316.715,72.255 316.278 C 72.408 316.125,72.043 316.000,71.443 316.000 C 70.843 316.000,70.454 316.164,70.578 316.364 M76.526 317.059 C 76.799 317.333,121.287 317.247,121.561 316.972 C 121.662 316.871,111.517 316.797,99.018 316.807 C 86.518 316.816,76.397 316.930,76.526 317.059 M320.344 317.243 C 319.974 317.477,320.216 317.590,321.100 317.594 C 321.815 317.597,322.400 317.531,322.400 317.447 C 322.400 317.083,320.841 316.928,320.344 317.243 " stroke="none" fill="#d4d4d4" fill-rule="evenodd"></path></g></svg>